<svg width="46" height="46" viewBox="0 0 46 46" fill="none" xmlns="http://www.w3.org/2000/svg">
<g id="Frame" clip-path="url(#clip0_668_285)">
<g id="Group">
<path id="Vector" d="M41.2706 10.7823C42.9579 9.17114 43.4107 6.65451 42.3912 4.5564C41.3718 2.45818 39.1134 1.25908 36.8041 1.59031C34.4949 1.92115 32.664 3.70644 32.275 6.00634C31.8858 8.30652 33.0277 10.5944 35.0993 11.6668C34.6742 12.0228 34.3319 12.4674 34.0964 12.9694C33.8609 13.4715 33.7379 14.0189 33.7359 14.5734V20.7054H31.4363V14.5734C31.4322 11.8584 29.4025 9.57346 26.707 9.24932C28.2946 7.73576 28.8011 5.40817 27.9859 3.37176C27.1707 1.33506 25.1983 0 23.0048 0C20.8112 0 18.8388 1.33506 18.0235 3.37176C17.2085 5.40817 17.7148 7.73576 19.3025 9.24932C16.6069 9.57346 14.5773 11.8583 14.5731 14.5734V20.7054H12.2736V14.5734C12.2716 14.0189 12.1485 13.4715 11.9131 12.9694C11.6776 12.4674 11.3353 12.0228 10.9102 11.6668C12.9818 10.5944 14.1238 8.30662 13.7345 6.00624C13.3452 3.70644 11.5147 1.92115 9.20538 1.59021C6.89619 1.25908 4.63778 2.45828 3.61832 4.5564C2.59887 6.65451 3.05169 9.17114 4.73886 10.7823C2.04335 11.1065 0.0137373 13.3913 0.00952148 16.1064V27.604C0.0109062 28.6181 0.299658 29.611 0.842308 30.4677C1.38496 31.3244 2.15929 32.0098 3.07554 32.4444V46.0001H4.60855V32.908C4.86016 32.9439 9.97409 32.9693 9.97409 32.9693C10.1774 32.9693 10.3723 33.0501 10.5161 33.1938C10.6598 33.3376 10.7406 33.5325 10.7406 33.7358V45.9999H16.8726V31.4363H22.2382V44.4669H19.1722V45.9999H26.8372V44.4669H23.7712V31.4363H29.1367V45.9999H35.2688V33.7358C35.2688 33.5325 35.3495 33.3376 35.4933 33.1938C35.637 33.0501 35.832 32.9693 36.0353 32.9693C36.0353 32.9693 41.1494 32.9439 41.4008 32.908V45.9999H42.9338V32.4443C43.8501 32.0096 44.6244 31.3243 45.1671 30.4675C45.7097 29.6108 45.9985 28.6179 45.9998 27.6038V16.1062C45.9958 13.3913 43.9661 11.1064 41.2706 10.7822V10.7823ZM33.7359 6.90832C33.7359 4.79181 35.4519 3.07579 37.5684 3.07579C39.6849 3.07579 41.4009 4.79181 41.4009 6.90832C41.4009 9.02483 39.6849 10.7408 37.5684 10.7408C35.4526 10.7382 33.7384 9.02407 33.7359 6.90832ZM24.6388 10.7408L23.0048 13.1938L21.3707 10.7408H24.6388ZM19.1723 5.37531C19.1723 3.2588 20.8883 1.54278 23.0048 1.54278C25.1213 1.54278 26.8373 3.2588 26.8373 5.37531C26.8373 7.49182 25.1213 9.20784 23.0048 9.20784C20.889 9.20515 19.1748 7.49106 19.1723 5.37531ZM16.1062 14.5734C16.1126 12.6111 17.6028 10.9721 19.5555 10.7797L23.0048 15.9529L26.4541 10.7774C28.4077 10.9698 29.8981 12.6104 29.9033 14.5734V20.7054H26.8373V25.3044H19.1723V20.7054H16.1062V14.5734ZM4.60865 6.90832C4.60865 4.79181 6.32466 3.07579 8.44118 3.07579C10.5577 3.07579 12.2737 4.79181 12.2737 6.90832C12.2737 9.02483 10.5577 10.7408 8.44118 10.7408C6.32543 10.7382 4.61124 9.02407 4.60865 6.90832ZM15.3397 44.4671H12.2737V33.736C12.2737 32.4661 11.2441 31.4365 9.97419 31.4365H5.37515C3.25941 31.4338 1.54522 29.7197 1.54263 27.604V16.1064C1.54522 13.9906 3.25941 12.2764 5.37515 12.2739H8.44118C9.71108 12.2739 10.7407 13.3035 10.7407 14.5734V22.2384H17.6392V25.3044H8.44118C8.23789 25.3044 8.04292 25.2237 7.89917 25.0799C7.75543 24.9362 7.67467 24.7412 7.67467 24.5379V15.3399H6.14166V24.5379C6.14166 25.8078 7.17127 26.8375 8.44118 26.8375H11.5072C13.6229 26.84 15.337 28.5542 15.3397 30.67V44.4671ZM16.8114 29.9035C16.6437 28.7381 16.0966 27.6605 15.2547 26.8375H30.7547C29.9129 27.6605 29.3658 28.7381 29.1981 29.9035H16.8114ZM44.4669 27.604C44.4642 29.7197 42.7501 31.4338 40.6344 31.4365H36.0354C34.7655 31.4365 33.7359 32.4661 33.7359 33.736V44.4671H30.6698V30.67C30.6724 28.5542 32.3866 26.84 34.5024 26.8375H37.5684C38.8383 26.8375 39.8679 25.8078 39.8679 24.5379V15.3399H38.3349V24.5379C38.3349 24.7412 38.2541 24.9362 38.1104 25.0799C37.9666 25.2237 37.7717 25.3044 37.5684 25.3044H28.3703V22.2384H35.2689V14.5734C35.2689 13.3035 36.2985 12.2739 37.5684 12.2739H40.6344C42.7501 12.2764 44.4642 13.9906 44.4669 16.1064V27.604Z" fill="#134CB3"/>
</g>
</g>
<defs>
<clipPath id="clip0_668_285">
<rect width="46" height="46" fill="white"/>
</clipPath>
</defs>
</svg>
