<svg width="46" height="46" viewBox="0 0 46 46" fill="none" xmlns="http://www.w3.org/2000/svg">
<g id="icon">
<g id="Group">
<path id="Vector" d="M25.9236 24.6738C25.031 23.9263 23.7156 23.9613 22.8637 24.7548L20.3599 27.088V14.232C20.3599 12.7217 19.1311 11.4929 17.6206 11.4929C16.1103 11.4929 14.8815 12.7217 14.8815 14.232V19.0677C14.4598 18.8168 13.9782 18.6846 13.4875 18.6851C12.6633 18.6851 11.9235 19.0516 11.4209 19.6295C10.9184 19.0516 10.1786 18.6851 9.35431 18.6851C8.53005 18.6851 7.79034 19.0516 7.28773 19.6295C6.78521 19.0516 6.04541 18.6851 5.22115 18.6851C3.71071 18.6851 2.48193 19.9138 2.48193 21.4243V26.9428C2.48193 27.3143 2.78296 27.6153 3.15447 27.6153C3.52599 27.6153 3.82702 27.3143 3.82702 26.9428V21.4243C3.82702 20.6556 4.45248 20.0302 5.22115 20.0302C5.98973 20.0302 6.6151 20.6556 6.6151 21.4243L6.61519 25.2335C6.61519 25.605 6.91622 25.906 7.28773 25.906C7.65924 25.906 7.96027 25.605 7.96027 25.2335V21.4243C7.96027 20.6556 8.58565 20.0302 9.35431 20.0302C10.123 20.0302 10.7484 20.6556 10.7484 21.4243V25.2335C10.7484 25.605 11.0494 25.906 11.4209 25.906C11.7924 25.906 12.0934 25.605 12.0934 25.2335V21.4243C12.0934 20.6556 12.7188 20.0302 13.4875 20.0302C14.2562 20.0302 14.8815 20.6556 14.8815 21.4243V25.237C14.8815 25.6085 15.1826 25.9095 15.5541 25.9095C15.9256 25.9095 16.2266 25.6085 16.2266 25.237V14.232C16.2266 13.4634 16.852 12.838 17.6206 12.838C18.3893 12.838 19.0148 13.4634 19.0148 14.232V28.6339C19.0148 28.7649 19.053 28.8931 19.1249 29.0026C19.1967 29.1122 19.2989 29.1984 19.419 29.2506C19.5392 29.3029 19.6719 29.3189 19.801 29.2968C19.9301 29.2746 20.05 29.2153 20.1458 29.126L23.7807 25.7389C24.1368 25.4072 24.6869 25.3927 25.0599 25.7051C25.4097 25.9979 25.5066 26.5021 25.2905 26.9038C25.2885 26.9074 25.2866 26.9111 25.2847 26.9148L22.7319 31.8773C22.6503 32.0359 22.635 32.2204 22.6895 32.3903C22.7439 32.5601 22.8636 32.7014 23.0222 32.783C23.1008 32.8234 23.1865 32.8479 23.2745 32.8552C23.3625 32.8625 23.4511 32.8524 23.5352 32.8254C23.6193 32.7984 23.6973 32.7552 23.7647 32.6981C23.832 32.641 23.8875 32.5711 23.9279 32.4926L26.4782 27.5353C26.991 26.5751 26.7583 25.3728 25.9236 24.6738ZM22.3261 34.136C22.1675 34.0544 21.983 34.0392 21.8131 34.0936C21.6433 34.1481 21.502 34.2678 21.4204 34.4264L20.2944 36.6151C20.185 36.8278 20.0395 37.0199 19.8643 37.1827L15.6551 41.0983C15.5875 41.1612 15.5335 41.2374 15.4966 41.3221C15.4597 41.4068 15.4406 41.4982 15.4406 41.5907V45.3275C15.4406 45.699 15.7417 46 16.1132 46C16.4847 46 16.7857 45.699 16.7857 45.3275V41.8836L20.7806 38.1675C21.0698 37.8987 21.31 37.5816 21.4904 37.2304L22.6165 35.0417C22.6981 34.8831 22.7133 34.6986 22.6588 34.5287C22.6044 34.3589 22.4847 34.2176 22.3261 34.136ZM4.06249 38.8983C3.90836 38.6334 3.82715 38.3323 3.82711 38.0258V29.809C3.82711 29.4375 3.52608 29.1364 3.15456 29.1364C2.78305 29.1364 2.48202 29.4375 2.48202 29.809V38.0258C2.48215 38.57 2.62633 39.1045 2.8999 39.5749L3.80352 41.1278V45.2435C3.80352 45.615 4.10455 45.9161 4.47606 45.9161C4.84757 45.9161 5.1486 45.615 5.1486 45.2435V40.9463C5.14857 40.8274 5.11707 40.7107 5.05732 40.608L4.06249 38.8983Z" fill="#134CB3"/>
<path id="Vector_2" d="M8.2151 15.8949H12.8638C13.2353 15.8949 13.5363 15.5939 13.5363 15.2224C13.5363 14.8509 13.2353 14.5498 12.8638 14.5498H8.2151C6.93503 14.5498 5.89358 13.5085 5.89358 12.2283V3.6666C5.89367 2.38644 6.93503 1.34508 8.2151 1.34508H35.4019C35.7734 1.34508 36.0744 1.04405 36.0744 0.672541C36.0744 0.301029 35.7734 0 35.4019 0H8.2151C6.19335 0 4.54858 1.64486 4.54858 3.6666V12.2284C4.54858 14.2501 6.19335 15.8949 8.2151 15.8949ZM39.8515 0H38.268C37.8965 0 37.5954 0.301029 37.5954 0.672541C37.5954 1.04405 37.8965 1.34508 38.268 1.34508H39.8515C41.1316 1.34508 42.173 2.38644 42.173 3.6666V12.2284C42.173 13.5085 41.1317 14.5499 39.8515 14.5499H22.3774C22.0059 14.5499 21.7048 14.851 21.7048 15.2225C21.7048 15.594 22.0059 15.895 22.3774 15.895H39.8515C41.8733 15.895 43.5181 14.2502 43.5181 12.2284V3.6666C43.5181 1.64486 41.8733 0 39.8515 0Z" fill="#134CB3"/>
<path id="Vector_3" d="M36.0173 4.60662C35.9575 4.54158 35.8855 4.48895 35.8054 4.45174C35.7253 4.41453 35.6387 4.39346 35.5504 4.38975C35.4622 4.38603 35.3741 4.39974 35.2911 4.43009C35.2082 4.46044 35.132 4.50683 35.067 4.56662L33.5304 5.97896V4.9992C33.5304 4.62769 33.2294 4.32666 32.8579 4.32666C32.4863 4.32666 32.1853 4.62769 32.1853 4.9992V9.95206C32.1853 10.3236 32.4863 10.6246 32.8579 10.6246C33.2294 10.6246 33.5304 10.3236 33.5304 9.95206V8.79529L35.231 10.436C35.3562 10.5572 35.5237 10.6248 35.6979 10.6246C35.8319 10.6246 35.9629 10.5846 36.0741 10.5097C36.1852 10.4347 36.2714 10.3282 36.3216 10.2039C36.3718 10.0796 36.3837 9.94316 36.3558 9.81205C36.3279 9.68093 36.2614 9.56116 36.1649 9.4681L33.9972 7.37677L35.9772 5.55687C36.0422 5.49712 36.0949 5.42514 36.1321 5.34504C36.1693 5.26494 36.1904 5.17829 36.1941 5.09005C36.1978 5.0018 36.1841 4.91369 36.1538 4.83074C36.1235 4.74779 36.0771 4.67163 36.0173 4.60662ZM13.8759 4.35796H12.4372C12.3489 4.35794 12.2614 4.37533 12.1798 4.40913C12.0982 4.44292 12.0241 4.49246 11.9616 4.55491C11.8992 4.61737 11.8496 4.69151 11.8158 4.77311C11.782 4.85471 11.7646 4.94217 11.7646 5.0305V9.98345C11.7646 10.0718 11.782 10.1592 11.8158 10.2408C11.8496 10.3225 11.8991 10.3966 11.9616 10.4591C12.024 10.5215 12.0982 10.5711 12.1798 10.6048C12.2614 10.6386 12.3489 10.656 12.4372 10.656H12.4402C12.4402 10.656 13.7625 10.6501 14.1271 10.6501C15.2331 10.6501 16.1328 9.7503 16.1328 8.64437C16.1328 8.03102 15.8558 7.48132 15.4205 7.11313C15.5953 6.82966 15.6879 6.50324 15.6881 6.17023C15.6881 5.17083 14.8752 4.35796 13.8759 4.35796ZM13.8759 5.70304C14.1334 5.70304 14.343 5.9126 14.343 6.17014C14.343 6.42768 14.1334 6.63724 13.8759 6.63724C13.7673 6.63724 13.5603 6.63787 13.3363 6.63868H13.1097V5.70304H13.8759ZM14.1271 9.3049C13.9387 9.3049 13.4955 9.30651 13.1097 9.30804V7.98456L13.3422 7.98367H14.1271C14.4914 7.98367 14.7877 8.28003 14.7877 8.64419C14.7878 9.00853 14.4915 9.3049 14.1271 9.3049ZM17.1956 7.73017C17.1956 9.46649 18.6082 10.8792 20.3446 10.8792C22.0809 10.8792 23.4936 9.46649 23.4936 7.73017C23.4936 5.99384 22.0809 4.58124 20.3446 4.58124C18.6082 4.58124 17.1956 5.99384 17.1956 7.73017ZM22.1485 7.73017C22.1485 8.7249 21.3393 9.5341 20.3446 9.5341C19.3499 9.5341 18.5407 8.7249 18.5407 7.73017C18.5407 6.73552 19.3499 5.92632 20.3446 5.92632C21.3393 5.92632 22.1485 6.73552 22.1485 7.73017ZM24.4964 7.73017C24.4964 9.46649 25.909 10.8792 27.6453 10.8792C29.3816 10.8792 30.7943 9.46649 30.7943 7.73017C30.7943 5.99384 29.3816 4.58124 27.6453 4.58124C25.909 4.58124 24.4964 5.99384 24.4964 7.73017ZM29.4492 7.73017C29.4492 8.7249 28.64 9.5341 27.6453 9.5341C26.6507 9.5341 25.8415 8.7249 25.8415 7.73017C25.8415 6.73552 26.6507 5.92632 27.6453 5.92632C28.64 5.92632 29.4492 6.73552 29.4492 7.73017ZM41.8048 18.7281L40.4883 17.7627C40.4172 17.7096 40.3362 17.671 40.2501 17.6494C40.164 17.6277 40.0744 17.6233 39.9866 17.6364C39.8988 17.6496 39.8144 17.6799 39.7384 17.7258C39.6624 17.7717 39.5962 17.8322 39.5437 17.9038C39.4911 17.9754 39.4533 18.0567 39.4324 18.143C39.4115 18.2293 39.4078 18.3189 39.4217 18.4066C39.4356 18.4943 39.4667 18.5784 39.5132 18.6541C39.5597 18.7297 39.6208 18.7954 39.6929 18.8473L41.0093 19.8127C41.1245 19.8974 41.2636 19.943 41.4066 19.943C41.5484 19.9431 41.6866 19.8984 41.8015 19.8152C41.9164 19.732 42.002 19.6147 42.0462 19.4799C42.0903 19.3452 42.0908 19.1999 42.0474 19.0649C42.0041 18.9298 41.9192 18.812 41.8048 18.7281ZM33.1817 17.7627L31.8652 18.7281C31.7508 18.812 31.6659 18.9298 31.6226 19.0649C31.5792 19.1999 31.5797 19.3452 31.6238 19.48C31.668 19.6147 31.7537 19.7321 31.8686 19.8152C31.9835 19.8984 32.1217 19.9431 32.2635 19.943C32.4064 19.943 32.5456 19.8974 32.6608 19.8127L33.9772 18.8473C34.1211 18.7418 34.2171 18.5835 34.2442 18.4072C34.2713 18.2309 34.2272 18.051 34.1217 17.9072C34.0162 17.7634 33.8579 17.6673 33.6816 17.6402C33.5053 17.6131 33.3255 17.6572 33.1817 17.7627ZM36.835 18.685C36.7467 18.6849 36.6592 18.7023 36.5776 18.7361C36.496 18.7699 36.4219 18.8195 36.3594 18.8819C36.297 18.9444 36.2474 19.0185 36.2136 19.1001C36.1798 19.1817 36.1624 19.2692 36.1625 19.3575V21.0006C36.1625 21.3721 36.4635 21.6731 36.835 21.6731C37.2065 21.6731 37.5075 21.3721 37.5075 21.0006V19.3575C37.5075 19.1791 37.4367 19.0081 37.3106 18.8819C37.1844 18.7558 37.0134 18.685 36.835 18.685Z" fill="#134CB3"/>
</g>
</g>
</svg>
