<svg width="46" height="46" viewBox="0 0 46 46" fill="none" xmlns="http://www.w3.org/2000/svg">
<g id="Frame">
<g id="Group">
<path id="Vector" fill-rule="evenodd" clip-rule="evenodd" d="M12.5613 42.808C12.4863 43.3609 12.2418 43.8493 11.8294 44.2645L11.8286 44.2652C11.3227 44.7711 10.7053 45.0301 9.99036 45.0305H9.98874L4.98159 45.0433C3.55036 45.0466 2.37573 43.8819 2.37231 42.4479C2.34931 35.6598 2.32378 28.8716 2.30078 22.0824V22.0813C2.30078 21.3634 2.55387 20.7467 3.05942 20.2378C3.56551 19.7284 4.1793 19.4718 4.8987 19.4685L9.90395 19.4582C10.7007 19.4545 11.4164 19.8128 11.8965 20.3778C12.6161 18.9687 13.7007 17.482 14.6272 16.1851C15.3837 15.1262 16.0387 14.2178 16.1864 13.61L18.3902 4.53652C19.0371 1.86707 21.7503 0.213329 24.4197 0.862922C27.088 1.50972 28.7389 4.2211 28.0937 6.88955L25.7597 16.788L25.7594 16.7891C25.6787 17.1287 25.7827 17.4605 26.0431 17.6951C26.167 17.8066 26.2788 17.8283 26.562 17.8488C27.0509 17.8844 27.85 17.8732 29.3041 17.8833L40.0296 17.868C40.0484 17.8679 40.0671 17.8687 40.0858 17.8704C41.4302 17.9885 42.3194 18.4517 42.8847 19.1205C43.4511 19.7905 43.7038 20.6897 43.6993 21.7541V21.755C43.6907 23.2737 42.7879 24.731 41.1951 25.3422C41.9523 26.0233 42.3744 27.008 42.3672 28.2717C42.3599 29.9423 41.2761 31.4288 39.171 31.9484C39.8564 32.6217 40.4259 33.5766 40.419 34.7916C40.4116 36.471 39.3159 37.9622 37.2148 38.4751C37.9304 39.1395 38.5579 40.0702 38.5526 41.3107V41.3116C38.5404 43.4437 36.7432 45.1867 34.6598 45.2324L34.6476 45.2325L16.4666 45.2785H16.465C15.1419 45.2785 14.0021 44.4556 13.5392 43.3253C13.4071 43.0045 13.1126 42.8018 12.7656 42.8061H12.7635L12.5613 42.808ZM12.5176 22.1461L12.5833 41.545L12.7498 41.5434C13.625 41.5324 14.3736 42.0354 14.7068 42.8446L14.7073 42.8457C14.9853 43.5244 15.6708 44.0156 16.4645 44.0158L34.6413 43.9697C36.0567 43.9338 37.2813 42.7541 37.2898 41.3049C37.296 39.7923 35.917 38.9816 35.2016 38.5851C35.079 38.5172 34.9825 38.4104 34.9273 38.2816C34.8721 38.1528 34.8613 38.0093 34.8966 37.8736C34.9319 37.738 35.0114 37.618 35.1224 37.5325C35.2335 37.447 35.3698 37.4009 35.51 37.4014C37.815 37.41 39.1498 36.2832 39.1562 34.7857V34.7848C39.1647 33.3037 37.9173 32.3995 37.1767 32.0978C37.041 32.0425 36.9287 31.9417 36.8591 31.8127C36.7896 31.6836 36.7672 31.5344 36.7956 31.3906C36.8241 31.2468 36.9016 31.1174 37.0151 31.0245C37.1285 30.9317 37.2707 30.8812 37.4173 30.8818C39.7597 30.8904 41.0981 29.7654 41.1045 28.2659V28.265C41.1128 26.808 40.2771 25.9014 38.9238 25.6107C38.7669 25.577 38.6288 25.4848 38.5374 25.3529C38.4461 25.221 38.4084 25.0592 38.432 24.9005C38.4557 24.7418 38.5389 24.598 38.6647 24.4984C38.7905 24.3988 38.9495 24.3509 39.1094 24.3643C41.1508 24.5363 42.4279 23.2211 42.4366 21.7483C42.4397 21.0206 42.3076 20.3938 41.9204 19.9357C41.5359 19.4808 40.9116 19.2148 40.0026 19.1307L29.3033 19.146H29.298C27.7983 19.1357 26.9745 19.1449 26.4704 19.1082C25.7599 19.0566 25.5092 18.9135 25.1983 18.6336L25.1981 18.6335C24.5843 18.0806 24.3406 17.2977 24.5306 16.4982L26.865 6.59849C26.8652 6.59722 26.8655 6.59595 26.8659 6.5947C27.349 4.60056 26.1162 2.57331 24.122 2.09013L24.1214 2.08995C22.1274 1.60451 20.1006 2.83993 19.6174 4.83389L17.4134 13.9082C17.2424 14.6122 16.531 15.6925 15.6547 16.9191C14.4904 18.5488 13.0313 20.482 12.5176 22.1461ZM9.98874 43.7678C10.3569 43.7678 10.6744 43.6333 10.935 43.3731C11.1952 43.1108 11.3253 42.7913 11.3235 42.4228L11.2545 22.0586C11.2509 21.3198 10.6486 20.7175 9.90909 20.7209L4.90339 20.7312C4.53286 20.733 4.21628 20.8651 3.95534 21.1277C3.69404 21.3907 3.56362 21.7097 3.56353 22.0807C3.58653 28.8684 3.61205 35.656 3.63505 42.444V42.4443C3.63686 43.1829 4.24171 43.7823 4.97861 43.7806L9.98792 43.7678H9.98874ZM24.5508 22.3687C29.2682 22.3687 33.0918 26.1933 33.0918 30.9108C33.0918 35.6282 29.2682 39.4518 24.5508 39.4518C19.8333 39.4518 16.0088 35.6282 16.0088 30.9108C16.0088 26.1933 19.8334 22.3687 24.5508 22.3687ZM24.5508 23.6315C20.5307 23.6315 17.2715 26.8907 17.2715 30.9108C17.2715 34.9308 20.5307 38.189 24.5508 38.189C28.5708 38.189 31.8291 34.9308 31.8291 30.9108C31.8291 26.8907 28.5708 23.6315 24.5508 23.6315ZM23.0258 30.7127C23.0258 31.0611 22.7429 31.3441 22.3944 31.3441C22.046 31.3441 21.763 31.0611 21.763 30.7127C21.763 30.2961 21.4255 29.9576 21.0089 29.9576C20.9097 29.9576 20.8115 29.9771 20.7199 30.015C20.6283 30.053 20.5451 30.1086 20.4749 30.1787C20.4048 30.2489 20.3492 30.3321 20.3113 30.4237C20.2733 30.5153 20.2538 30.6135 20.2538 30.7127C20.2538 31.0611 19.9708 31.3441 19.6224 31.3441C19.2739 31.3441 18.991 31.0611 18.991 30.7127C18.991 29.599 19.8939 28.6948 21.0089 28.6948C22.1226 28.6948 23.0258 29.5989 23.0258 30.7127ZM30.1096 30.7127C30.1096 31.0611 29.8266 31.3441 29.4782 31.3441C29.1298 31.3441 28.8468 31.0611 28.8468 30.7127C28.8468 30.2961 28.5092 29.9576 28.0926 29.9576C27.676 29.9576 27.3385 30.2961 27.3385 30.7127C27.3385 31.0611 27.0555 31.3441 26.7071 31.3441C26.3586 31.3441 26.0757 31.0611 26.0757 30.7127C26.0757 29.5989 26.9789 28.6948 28.0926 28.6948C29.2064 28.6948 30.1096 29.5989 30.1096 30.7127ZM21.4757 34.0001C21.3938 33.854 21.3733 33.6814 21.4186 33.5202C21.464 33.359 21.5715 33.2225 21.7175 33.1405C21.8635 33.0587 22.0361 33.0382 22.1973 33.0835C22.3584 33.1289 22.495 33.2363 22.577 33.3823C22.9642 34.0728 23.7026 34.5407 24.5508 34.5407C25.398 34.5407 26.137 34.073 26.5234 33.3828C26.6052 33.2367 26.7417 33.1291 26.9028 33.0836C27.064 33.0382 27.2366 33.0585 27.3827 33.1402C27.5287 33.2221 27.6363 33.3586 27.6818 33.5197C27.7273 33.6809 27.7069 33.8535 27.6252 33.9996C27.0231 35.0752 25.8711 35.8034 24.5508 35.8034C23.2295 35.8034 22.0788 35.0755 21.4757 34.0001Z" fill="#FFFFFF"/>
</g>
</g>
</svg>
