<svg width="50" height="50" viewBox="0 0 50 50" fill="none" xmlns="http://www.w3.org/2000/svg">
<path d="M10.6909 14.597H11.4722C12.0936 14.5963 12.6893 14.3492 13.1287 13.9098C13.5681 13.4704 13.8152 12.8747 13.8159 12.2533V11.472H12.2534V12.2533C12.2532 12.4604 12.1708 12.659 12.0243 12.8054C11.8779 12.9519 11.6793 13.0343 11.4722 13.0345H10.6909V14.597Z" fill="#134CB3"/>
<path d="M9.90967 10.6908C10.3411 10.6908 10.6909 10.341 10.6909 9.90955C10.6909 9.47807 10.3411 9.1283 9.90967 9.1283C9.4782 9.1283 9.12842 9.47807 9.12842 9.90955C9.12842 10.341 9.4782 10.6908 9.90967 10.6908Z" fill="#134CB3"/>
<path d="M14.5972 10.6908C15.0286 10.6908 15.3784 10.341 15.3784 9.90955C15.3784 9.47807 15.0286 9.1283 14.5972 9.1283C14.1657 9.1283 13.8159 9.47807 13.8159 9.90955C13.8159 10.341 14.1657 10.6908 14.5972 10.6908Z" fill="#134CB3"/>
<path d="M41.9409 27.8783C41.9407 28.0854 41.8583 28.284 41.7118 28.4304C41.5654 28.5769 41.3668 28.6593 41.1597 28.6595H40.3784V30.222H41.1597C41.7811 30.2213 42.3768 29.9742 42.8162 29.5348C43.2556 29.0954 43.5027 28.4997 43.5034 27.8783V27.097H41.9409V27.8783Z" fill="#134CB3"/>
<path d="M43.5034 16.1595H40.3784C39.1356 16.1609 37.9442 16.6553 37.0654 17.534C36.1866 18.4128 35.6923 19.6043 35.6909 20.847V27.8497L34.0732 25.9624L33.332 22.2563C33.3293 22.2427 33.3249 22.2299 33.3216 22.2166L33.3229 22.2163L32.9133 20.612L34.4186 20.0099C34.5635 19.9519 34.6878 19.8518 34.7753 19.7226C34.8629 19.5933 34.9097 19.4407 34.9097 19.2845V16.1595C34.9097 16.0053 34.864 15.8545 34.7784 15.7261L33.2159 13.3824C33.1446 13.2754 33.0479 13.1877 32.9345 13.127C32.8211 13.0663 32.6945 13.0345 32.5659 13.0345H30.9784L30.9341 12.861L31.1308 12.5986C32.4817 10.8035 33.2412 8.63292 33.3044 6.38718C33.3143 6.0279 33.2216 5.67323 33.037 5.36481C32.8524 5.05639 32.5837 4.80702 32.2624 4.64597L32.2543 4.64197C32.0254 4.52922 31.7759 4.46425 31.521 4.45104C31.2661 4.43783 31.0112 4.47664 30.7719 4.56511C30.6072 4.00234 30.2377 3.5217 29.7361 3.21797C29.2346 2.91425 28.6374 2.8095 28.0624 2.92439L27.4802 3.0408C26.3993 3.25695 25.4404 3.87411 24.7959 4.76828C24.1514 5.66245 23.8691 6.76739 24.0059 7.86111C24.0072 7.87205 24.0088 7.88279 24.0106 7.89353L24.7642 12.3826L24.7668 12.3972L25.4357 15.9649L24.564 16.1829C24.4266 16.2172 24.3011 16.2882 24.201 16.3883C24.1009 16.4884 24.0299 16.6139 23.9955 16.7512L23.2712 19.6486L21.1472 21.5957L16.0234 18.7492L15.6135 17.5191C16.4987 16.9548 17.2275 16.1765 17.7326 15.2562C18.2377 14.3359 18.5028 13.3031 18.5034 12.2533V6.78455C18.5018 5.33464 17.9251 3.94459 16.8999 2.91935C15.8746 1.89412 14.4846 1.31742 13.0347 1.3158H11.4722C10.0223 1.31742 8.63221 1.89412 7.60698 2.91935C6.58174 3.94459 6.00505 5.33464 6.00342 6.78455V12.2533C6.00403 13.3031 6.26912 14.3359 6.77421 15.2562C7.2793 16.1765 8.00811 16.9548 8.89336 17.5191L8.4834 18.7492L3.3251 21.6148C2.71629 21.9533 2.20901 22.4484 1.85577 23.0488C1.50252 23.6492 1.31614 24.3331 1.31592 25.0297V30.222C1.31591 30.3464 1.3456 30.469 1.4025 30.5795C1.4594 30.6901 1.54187 30.7855 1.64307 30.8578L2.87842 31.7401V47.4095C2.87842 47.6167 2.96073 47.8155 3.10724 47.962C3.25375 48.1085 3.45247 48.1908 3.65967 48.1908H21.6284C21.8356 48.1908 22.0343 48.1085 22.1808 47.962C22.3274 47.8155 22.4097 47.6167 22.4097 47.4095V31.7845H24.7534C24.8945 31.7845 25.0329 31.7463 25.154 31.674C25.2751 31.6017 25.3744 31.4979 25.4413 31.3737L26.9192 28.6289L27.8936 33.5003C27.9191 33.6279 27.9761 33.7471 28.0595 33.8471L31.8301 38.3719L33.3578 47.538C33.3882 47.7204 33.4823 47.8861 33.6234 48.0056C33.7645 48.1252 33.9435 48.1908 34.1284 48.1908H47.4097C47.6169 48.1908 47.8156 48.1085 47.9621 47.962C48.1086 47.8155 48.1909 47.6167 48.1909 47.4095V33.347C48.1909 33.1831 48.1393 33.0232 48.0435 32.8902C47.9476 32.7572 47.8123 32.6577 47.6567 32.6058L46.447 32.2026C47.5664 31.0414 48.1916 29.4912 48.1909 27.8783V20.847C48.1895 19.6043 47.6952 18.4128 46.8164 17.534C45.9377 16.6553 44.7462 16.1609 43.5034 16.1595ZM37.2534 20.847C37.2543 20.0185 37.5839 19.2242 38.1697 18.6384C38.7556 18.0525 39.5499 17.723 40.3784 17.722H43.5034C44.3319 17.723 45.1262 18.0525 45.7121 18.6384C46.2979 19.2242 46.6275 20.0185 46.6284 20.847V21.6283H44.3809C43.6348 21.6291 42.9099 21.3801 42.3219 20.921C41.7338 20.4619 41.3165 19.8191 41.1363 19.0951C41.0941 18.9261 40.9965 18.776 40.8592 18.6688C40.7219 18.5616 40.5526 18.5034 40.3784 18.5034C40.2042 18.5034 40.035 18.5616 39.8977 18.6688C39.7603 18.776 39.6628 18.9261 39.6205 19.0951L39.5972 19.1884C39.4562 19.7551 39.1635 20.2728 38.7506 20.6858C38.3377 21.0988 37.8201 21.3916 37.2534 21.5328V20.847ZM32.1479 14.597L33.3472 16.3961V18.7556L32.5233 19.0851L31.3774 14.597H32.1479ZM26.3039 12.1166L25.5544 7.65212C25.4708 6.95218 25.6542 6.24644 26.0679 5.67572C26.4817 5.10499 27.0954 4.71124 27.7866 4.57302L28.3688 4.45652C28.4822 4.43386 28.5991 4.43664 28.7113 4.46465C28.8234 4.49265 28.9279 4.54519 29.0173 4.61848C29.1067 4.69176 29.1787 4.78396 29.2281 4.88844C29.2776 4.99291 29.3032 5.10705 29.3032 5.22263V5.99744C28.8199 6.32767 28.4248 6.77122 28.1524 7.28936C27.8801 7.80749 27.7387 8.38444 27.7407 8.9698V9.56658H29.3032V8.9698C29.302 8.58968 29.4072 8.2168 29.6071 7.89346C29.8069 7.57011 30.0934 7.30923 30.434 7.14041C30.5714 7.07166 30.6855 6.96395 30.762 6.83074L31.1404 6.17175C31.1815 6.10049 31.2482 6.04756 31.3269 6.02379C31.4056 6.00002 31.4904 6.00718 31.5641 6.04382L31.5686 6.04597C31.6224 6.07377 31.6672 6.11618 31.698 6.16833C31.7288 6.22048 31.7442 6.28026 31.7426 6.3408C31.6885 8.26435 31.0379 10.1235 29.8808 11.6611L29.4595 12.2229C29.3894 12.3164 29.3412 12.4244 29.3183 12.5389C29.2955 12.6535 29.2986 12.7717 29.3275 12.8849L31.6617 22.0263L28.5006 23.8327L28.2191 22.3314L29.7903 21.5458C29.9201 21.4809 30.0292 21.3812 30.1055 21.2577C30.1818 21.1343 30.2222 20.9921 30.2222 20.847V16.9408C30.2222 16.7957 30.1818 16.6535 30.1055 16.5301C30.0292 16.4067 29.9201 16.307 29.7903 16.2421L28.2278 15.4608C28.0611 15.3773 27.8699 15.3563 27.689 15.4016L26.9543 15.5852L26.3039 12.1166ZM24.5001 20.6417C24.613 20.5382 24.693 20.4038 24.7301 20.2552L25.3977 17.585L27.7875 16.9876L28.6597 17.4236V20.3642L25.9665 21.7108C25.8672 21.7605 25.7796 21.8307 25.7096 21.9169L15.7878 34.1283H13.2192L9.49434 32.2659L11.7919 28.1303L14.2479 29.3583C14.3894 29.4291 14.549 29.4552 14.7057 29.4333C14.8623 29.4114 15.0086 29.3424 15.1252 29.2355L24.5001 20.6417ZM11.4722 2.8783H13.0347C13.6391 2.87836 14.2352 3.01883 14.7761 3.28863C15.317 3.55842 15.7878 3.95017 16.1514 4.43298C15.7198 5.15262 15.1086 5.74774 14.3777 6.15999C13.6468 6.57224 12.8214 6.78746 11.9822 6.78455H7.56592C7.56711 5.74891 7.97904 4.75603 8.71134 4.02372C9.44365 3.29142 10.4365 2.87948 11.4722 2.8783ZM7.56592 12.2533V8.34705H11.9822C12.9133 8.35023 13.8338 8.15008 14.6794 7.76057C15.5251 7.37106 16.2755 6.8016 16.8782 6.09197C16.9197 6.32051 16.9406 6.55228 16.9409 6.78455V12.2533C16.9409 13.4965 16.4471 14.6888 15.568 15.5679C14.6889 16.4469 13.4966 16.9408 12.2534 16.9408C11.0102 16.9408 9.81793 16.4469 8.93886 15.5679C8.05978 14.6888 7.56592 13.4965 7.56592 12.2533ZM12.2534 18.5033C12.9117 18.5034 13.5658 18.3991 14.1914 18.1942L14.4846 19.0735L13.2635 20.2946C13.2271 20.331 13.1944 20.3709 13.1658 20.4137L12.2534 21.7823L11.3409 20.4136C11.3124 20.3708 11.2797 20.3309 11.2433 20.2945L10.0223 19.0734L10.3154 18.1941C10.941 18.399 11.5951 18.5034 12.2534 18.5033ZM2.87842 25.0297C2.87855 24.6117 2.99039 24.2014 3.20235 23.8411C3.41431 23.4809 3.71869 23.1838 4.08398 22.9807L8.99268 20.2537L10.0838 21.3448L11.6033 23.6241C11.6747 23.7311 11.7713 23.8189 11.8847 23.8796C11.9981 23.9402 12.1248 23.972 12.2534 23.972C12.382 23.972 12.5086 23.9402 12.622 23.8796C12.7354 23.8189 12.8321 23.7311 12.9034 23.6241L14.4229 21.3448L15.5142 20.2537L19.933 22.7086L14.4656 27.7203L11.8216 26.3983L8.69658 24.8358L7.99775 26.2333L10.393 27.4309L7.30801 32.984L2.87842 29.8199V25.0297ZM20.8472 46.6283H4.44092V32.8562L7.11182 34.764C7.20136 34.828 7.3034 34.8723 7.41126 34.8941C7.51912 34.9159 7.63037 34.9146 7.73771 34.8904C7.84506 34.8662 7.94607 34.8196 8.03416 34.7537C8.12224 34.6877 8.19539 34.6039 8.24883 34.5077L8.73477 33.633L12.6853 35.6083C12.7937 35.6625 12.9134 35.6908 13.0347 35.6908H16.1597C16.2758 35.6908 16.3905 35.6649 16.4954 35.615C16.6003 35.565 16.6928 35.4924 16.766 35.4022L19.7054 31.7845H20.8472V46.6283ZM24.2868 30.222H20.9749L26.7713 23.088L27.0647 24.6532L26.7096 24.8562C26.5672 24.9376 26.454 25.0617 26.3861 25.2109C26.3182 25.3601 26.2989 25.527 26.3311 25.6878L26.4387 26.2257L24.2868 30.222ZM46.6284 46.6283H34.7902L33.3365 37.9061C33.3137 37.7693 33.2549 37.641 33.1661 37.5344L29.3868 32.9993L27.9737 25.9335L32.0124 23.6257L32.5811 26.469C32.6073 26.6003 32.6668 26.7226 32.7539 26.8242L37.4414 32.2929L37.4853 32.2554C38.4391 33.2295 39.6859 33.8641 41.0348 34.0622C42.3836 34.2602 43.7602 34.0108 44.9538 33.352L46.6284 33.9101V46.6283ZM41.9409 32.5658C40.6981 32.5644 39.5067 32.0701 38.6279 31.1913C37.7491 30.3125 37.2548 29.1211 37.2534 27.8783V23.1252C37.8825 23.022 38.4845 22.7939 39.024 22.4543C39.5634 22.1148 40.0295 21.6706 40.3946 21.1481C40.8489 21.7809 41.4474 22.2964 42.1407 22.6516C42.8339 23.0068 43.6019 23.1917 44.3809 23.1908H46.6284V27.8783C46.627 29.1211 46.1327 30.3125 45.2539 31.1913C44.3752 32.0701 43.1837 32.5644 41.9409 32.5658Z" fill="#134CB3"/>
<path d="M39.5972 26.3158C40.0286 26.3158 40.3784 25.966 40.3784 25.5345C40.3784 25.1031 40.0286 24.7533 39.5972 24.7533C39.1657 24.7533 38.8159 25.1031 38.8159 25.5345C38.8159 25.966 39.1657 26.3158 39.5972 26.3158Z" fill="#134CB3"/>
<path d="M44.2847 26.3158C44.7161 26.3158 45.0659 25.966 45.0659 25.5345C45.0659 25.1031 44.7161 24.7533 44.2847 24.7533C43.8532 24.7533 43.5034 25.1031 43.5034 25.5345C43.5034 25.966 43.8532 26.3158 44.2847 26.3158Z" fill="#134CB3"/>
</svg>
