<svg width="50" height="50" viewBox="0 0 50 50" fill="none" xmlns="http://www.w3.org/2000/svg">
<path d="M14.1648 11.7352C14.5692 11.7352 14.8971 11.4074 14.8971 11.003C14.8971 10.5986 14.5692 10.2708 14.1648 10.2708C13.7604 10.2708 13.4326 10.5986 13.4326 11.003C13.4326 11.4074 13.7604 11.7352 14.1648 11.7352Z" fill="#134CB3"/>
<path d="M10.7295 38.3597C10.6325 38.3597 10.5364 38.3788 10.4468 38.416C10.3571 38.4531 10.2757 38.5075 10.2071 38.5761C10.1385 38.6447 10.0841 38.7261 10.0469 38.8158C10.0098 38.9054 9.99071 39.0015 9.99072 39.0985V40.6803C9.99072 41.0883 10.3214 41.419 10.7295 41.419C11.1376 41.419 11.4683 41.0884 11.4683 40.6803V39.0985C11.4683 39.0015 11.4492 38.9054 11.4121 38.8158C11.3749 38.7261 11.3205 38.6447 11.2519 38.5761C11.1833 38.5075 11.1019 38.4531 11.0122 38.416C10.9226 38.3788 10.8265 38.3597 10.7295 38.3597ZM34.8593 38.9377H30.1127C29.2579 38.9377 28.5625 39.6331 28.5625 40.4879V42.1586C28.5625 43.0134 29.2579 43.7088 30.1127 43.7088H34.8593C35.7141 43.7088 36.4095 43.0134 36.4095 42.1586V40.4879C36.4095 39.6331 35.714 38.9377 34.8593 38.9377ZM34.9319 42.1586C34.9319 42.1779 34.9242 42.1963 34.9106 42.21C34.897 42.2236 34.8785 42.2313 34.8592 42.2313H30.1126C30.0933 42.2313 30.0748 42.2236 30.0612 42.21C30.0475 42.1963 30.0399 42.1779 30.0398 42.1586V40.4879C30.0398 40.4477 30.0725 40.4151 30.1126 40.4151H34.8592C34.8993 40.4151 34.9319 40.4477 34.9319 40.4879V42.1586Z" fill="#134CB3"/>
<path d="M44.0573 34.0687C42.8508 32.4246 41.191 31.2489 39.2573 30.6685C39.246 30.6651 39.2346 30.662 39.2231 30.6591L32.2958 28.9369C32.2955 28.9368 32.2953 28.9367 32.2951 28.9367L32.2942 28.9365L31.4948 28.7378C31.4849 28.7353 31.4749 28.7331 31.4649 28.731C31.0378 28.6435 30.6759 28.3048 30.4957 27.8729H32.0167C34.799 27.8729 37.0625 25.6093 37.0625 22.827C37.0625 22.4189 36.7319 22.0882 36.3238 22.0882C35.9157 22.0882 35.585 22.4188 35.585 22.827C35.585 24.7945 33.9842 26.3953 32.0167 26.3953H30.373V23.845C30.5221 23.7201 30.6658 23.5891 30.804 23.4521C32.1758 22.0889 33.9988 20.0356 34.3504 17.6774C34.8022 17.6091 35.228 17.423 35.585 17.1379V19.3481C35.585 19.7562 35.9157 20.0869 36.3238 20.0869C36.7319 20.0869 37.0625 19.7563 37.0625 19.3481V12.0626C37.0625 8.01201 35.0557 4.42148 31.9841 2.23271C31.9459 2.19886 31.9043 2.16902 31.86 2.14365C31.8552 2.14092 31.8503 2.13896 31.8456 2.13633C29.8993 0.790039 27.5403 0 25 0C20.5184 0 16.3905 2.51719 14.3177 6.46006C14.267 6.45599 14.2162 6.45374 14.1653 6.45332C13.1444 6.45332 12.2825 7.179 12.026 8.16309C11.6348 8.15338 11.2474 8.24327 10.9004 8.42432C10.3542 8.70781 9.96411 9.18291 9.80181 9.76201C9.6394 10.3412 9.72593 10.9499 10.0452 11.476C10.2144 11.7547 10.4404 11.9948 10.7083 12.1807C10.6003 12.4993 10.5626 12.8376 10.5977 13.1723C10.6623 13.7843 10.9622 14.3209 11.4421 14.6834C11.872 15.0081 12.3969 15.1551 12.9374 15.1067V22.8269C12.9374 25.6092 15.201 27.8728 17.9833 27.8728H19.5043C19.3241 28.3047 18.9622 28.6434 18.5351 28.7309C18.5251 28.733 18.5151 28.7352 18.5052 28.7377L17.7058 28.9364L17.7049 28.9366C17.7047 28.9366 17.7045 28.9367 17.7042 28.9368L10.7769 30.659C10.7654 30.6618 10.754 30.665 10.7427 30.6684C8.80903 31.2487 7.14917 32.4245 5.94272 34.0686C4.73843 35.7098 4.10181 37.6601 4.10181 39.7085V48.6462C4.10181 49.3927 4.70913 50 5.45571 50H44.5443C45.2909 50 45.8982 49.3927 45.8982 48.6462V39.7085C45.8981 37.6601 45.2616 35.7099 44.0573 34.0687ZM33.9596 16.2292C33.4206 16.2292 32.9639 16.6505 32.9202 17.1885C32.7558 19.214 31.0391 21.1353 29.7623 22.4043C28.6001 23.5592 26.5084 24.4639 24.9999 24.4639C23.4914 24.4639 21.3996 23.5592 20.2375 22.4043C18.9605 21.1353 17.2439 19.214 17.0795 17.1883C17.0358 16.6505 16.5792 16.2292 16.04 16.2292C15.4136 16.2292 14.904 15.7196 14.904 15.0931V15.0044C15.1313 15.0784 15.3688 15.1163 15.6079 15.1165C16.0767 15.1165 16.5261 14.968 16.9026 14.6836C17.3826 14.3211 17.6825 13.7844 17.747 13.1725C17.7593 13.0559 17.7621 12.9393 17.7568 12.8233C17.7829 12.8222 17.8084 12.8201 17.8344 12.8188C17.8738 12.8167 17.9129 12.8142 17.9522 12.8119C18.0371 12.8069 18.1217 12.8018 18.2057 12.7955C18.2366 12.7932 18.2672 12.7904 18.298 12.7879C18.3896 12.7805 18.481 12.7729 18.5716 12.764C18.5934 12.7618 18.6151 12.7593 18.6369 12.757C18.7359 12.7469 18.8345 12.7363 18.9324 12.7245L18.9695 12.7196C19.0779 12.7063 19.1861 12.6919 19.2942 12.6763C22.6244 12.1924 25.2895 10.6979 27.3448 8.96465C29.3422 12.0259 33.0864 12.7393 33.526 12.8134C33.5827 12.8229 33.6405 12.8277 33.698 12.8277H33.9595C34.586 12.8277 35.0957 13.3373 35.0957 13.9638V15.0931H35.0958C35.0959 15.7195 34.5863 16.2292 33.9596 16.2292ZM35.5832 11.9177C35.122 11.5498 34.5496 11.3497 33.9597 11.3501H33.7366C33.3371 11.2767 30.0308 10.5946 28.4561 7.95137C29.9095 6.52041 30.9825 5.03193 31.7026 3.87627C34.0363 5.79053 35.5394 8.68096 35.5832 11.9177ZM25 1.47744C27.0109 1.47744 28.8926 2.04131 30.4956 3.01895C29.7266 4.26494 28.5052 5.95195 26.7936 7.4834C26.7809 7.49375 26.7675 7.50303 26.7551 7.51397C26.0324 8.15732 25.2833 8.72031 24.5095 9.20312C24.4853 9.21816 24.4609 9.2331 24.4365 9.24805C24.3787 9.28369 24.3208 9.31865 24.2626 9.35342C24.2167 9.38076 24.1707 9.4082 24.1243 9.43516C24.0942 9.45273 24.064 9.46982 24.0339 9.48711C22.6739 10.2659 21.1171 10.8749 19.3537 11.169L19.3461 11.1703C19.2464 11.1869 19.1461 11.2023 19.0452 11.2169L19.0127 11.2215C18.9189 11.2348 18.8245 11.2472 18.7295 11.2586L18.6757 11.2648C18.5869 11.2752 18.4974 11.285 18.4076 11.2937L18.3834 11.296C18.6205 10.8137 18.6729 10.2763 18.5288 9.76201C18.2572 8.79277 17.3482 8.16279 16.3494 8.16279C16.3345 8.16279 16.3196 8.16289 16.3045 8.16318C16.1967 7.74665 15.9762 7.3679 15.6671 7.06855C17.4995 3.65342 21.0969 1.47744 25 1.47744ZM14.3374 12.8862C14.3314 12.8851 14.3253 12.8847 14.3193 12.8837C14.2708 12.8751 14.2216 12.8705 14.1723 12.87C13.8708 12.87 13.5944 13.021 13.4295 13.2788C13.2885 13.4655 13.0912 13.5891 12.8739 13.6268C12.675 13.6615 12.4828 13.6179 12.3326 13.5045C12.1824 13.3911 12.0881 13.2181 12.0669 13.0173C12.0438 12.7979 12.1086 12.5743 12.2486 12.3891C12.2488 12.3889 12.2541 12.3825 12.2682 12.369C12.3689 12.2728 12.4404 12.15 12.4743 12.0149C12.5083 11.8798 12.5034 11.7379 12.4601 11.6055C12.4169 11.4731 12.3371 11.3555 12.23 11.2665C12.1229 11.1775 11.9927 11.1205 11.8546 11.1022C11.8465 11.1012 11.8386 11.1002 11.8349 11.0995C11.6096 11.0364 11.4225 10.8978 11.3082 10.7093C11.2034 10.5366 11.1736 10.3418 11.2244 10.1606C11.2751 9.97949 11.4018 9.82852 11.581 9.73545C11.7767 9.63408 12.0084 9.61289 12.2398 9.67773C12.3789 9.72999 12.529 9.74613 12.676 9.72465C12.823 9.70317 12.9622 9.64476 13.0805 9.55488C13.3217 9.37207 13.451 9.08184 13.4258 8.77187C13.4258 8.30791 13.7575 7.93057 14.1652 7.93057C14.5729 7.93057 14.9045 8.30791 14.9042 8.77852C14.8915 8.92659 14.9165 9.07547 14.977 9.21125C15.0374 9.34702 15.1313 9.46525 15.2499 9.55488C15.4911 9.7377 15.8054 9.78369 16.0964 9.67578C16.5428 9.55078 16.9961 9.76807 17.106 10.1605C17.1568 10.3416 17.127 10.5365 17.0222 10.7091C16.9078 10.8978 16.7207 11.0363 16.4999 11.0982C16.4931 11.0998 16.4862 11.1008 16.4791 11.1017C16.3417 11.1215 16.2127 11.1796 16.1069 11.2694C16.0011 11.3591 15.9226 11.4769 15.8806 11.6092C15.8386 11.7414 15.8347 11.8829 15.8694 12.0172C15.9041 12.1516 15.9759 12.2735 16.0766 12.3689C16.0896 12.3812 16.0947 12.3873 16.0948 12.3873C16.1121 12.4103 16.1283 12.4338 16.1432 12.4578L16.1464 12.4633C16.2512 12.6332 16.2976 12.8267 16.2775 13.017C16.2563 13.2178 16.1621 13.3908 16.0119 13.5042C15.8618 13.6176 15.6695 13.6612 15.4706 13.6265C15.2533 13.5888 15.0559 13.4652 14.9115 13.2735L14.9096 13.271C14.8921 13.244 14.8732 13.2181 14.8528 13.1933C14.8432 13.1814 14.8329 13.1706 14.8228 13.1594C14.7916 13.1243 14.7574 13.0921 14.7206 13.063C14.7028 13.0485 14.6844 13.0348 14.6656 13.0218C14.6634 13.0203 14.6612 13.019 14.659 13.0177C14.5912 12.9725 14.5173 12.9372 14.4396 12.9127C14.4324 12.9104 14.4252 12.9078 14.4179 12.9057C14.3969 12.8997 14.3757 12.8945 14.3542 12.8901C14.3488 12.8893 14.3432 12.8874 14.3374 12.8862ZM17.9833 26.3955C16.0157 26.3954 14.4149 24.7946 14.4149 22.827V17.138C14.7715 17.4228 15.1967 17.6089 15.6479 17.6774C15.8206 18.8969 16.4736 20.7467 19.196 23.4523C19.3342 23.5893 19.4779 23.7203 19.627 23.8452V26.3955H17.9833ZM24.2612 48.5226H11.4682V44.1176C11.4682 43.7096 11.1375 43.3788 10.7294 43.3788C10.3213 43.3788 9.99067 43.7095 9.99067 44.1176V48.5226H5.57925V39.7086C5.57925 37.9768 6.11685 36.3287 7.13384 34.9429C8.14526 33.5645 9.53413 32.5778 11.1507 32.0887L17.916 30.4068L24.2612 40.9325V48.5226ZM19.3923 29.994C20.3989 29.533 21.1043 28.4537 21.1043 27.2713V24.8399C22.3568 25.5183 23.785 25.9413 24.9999 25.9413C26.2147 25.9413 27.6429 25.5182 28.8954 24.8399V27.2713C28.8954 28.4537 29.6008 29.5331 30.6074 29.994L25 39.2961L19.3923 29.994ZM40.0092 48.5226V39.0985C40.0092 38.9084 39.9337 38.7261 39.7993 38.5916C39.6648 38.4572 39.4825 38.3816 39.2923 38.3816C39.1022 38.3816 38.9199 38.4572 38.7854 38.5916C38.651 38.7261 38.5754 38.9084 38.5754 39.0985V48.5226H25.7387V40.9324L32.0839 30.4067L38.8491 32.0886C40.4658 32.5777 41.8545 33.5644 42.866 34.9428C43.883 36.3287 44.4206 37.9768 44.4206 39.7085V48.5226H40.0092Z" fill="#134CB3"/>
</svg>
