<svg width="18" height="18" viewBox="0 0 18 18" fill="none" xmlns="http://www.w3.org/2000/svg">
<g opacity="0.8">
<path d="M9 14.2503C8.85103 14.2511 8.70518 14.2076 8.58104 14.1253C8.4569 14.0429 8.36009 13.9255 8.30297 13.7879C8.24584 13.6503 8.23099 13.4988 8.26029 13.3528C8.28959 13.2067 8.36173 13.0727 8.4675 12.9678L12.4425 9.00027L8.4675 5.03276C8.34463 4.88929 8.28042 4.70473 8.28771 4.51597C8.29501 4.32722 8.37325 4.14816 8.50683 4.01459C8.6404 3.88102 8.81945 3.80277 9.00821 3.79548C9.19696 3.78819 9.38152 3.85239 9.525 3.97526L14.025 8.47527C14.1647 8.61579 14.2431 8.80588 14.2431 9.00401C14.2431 9.20215 14.1647 9.39224 14.025 9.53276L9.525 14.0328C9.3853 14.1713 9.19675 14.2494 9 14.2503Z" fill="white"/>
<path d="M4.5 14.2501C4.35103 14.251 4.20518 14.2075 4.08104 14.1251C3.9569 14.0428 3.86009 13.9253 3.80297 13.7878C3.74584 13.6502 3.73099 13.4987 3.76029 13.3526C3.78959 13.2066 3.86173 13.0725 3.9675 12.9676L7.9425 9.00014L3.9675 5.03264C3.82627 4.89141 3.74693 4.69987 3.74693 4.50014C3.74693 4.30041 3.82627 4.10887 3.9675 3.96764C4.10873 3.82641 4.30027 3.74707 4.5 3.74707C4.69972 3.74707 4.89127 3.82641 5.0325 3.96764L9.5325 8.46764C9.67219 8.60816 9.75059 8.79825 9.75059 8.99639C9.75059 9.19453 9.67219 9.38462 9.5325 9.52514L5.0325 14.0251C4.96304 14.096 4.8802 14.1524 4.7888 14.191C4.69739 14.2296 4.59923 14.2497 4.5 14.2501Z" fill="white"/>
</g>
</svg>
