<svg width="12" height="20" viewBox="0 0 12 20" fill="none" xmlns="http://www.w3.org/2000/svg">
<path d="M0.827191 9.45117L10.0778 0.226167C10.3809 -0.0759023 10.8716 -0.0753945 11.1741 0.227729C11.4765 0.530814 11.4757 1.02179 11.1726 1.32409L2.47261 10L11.1729 18.6759C11.476 18.9783 11.4768 19.4689 11.1745 19.7721C11.1025 19.8444 11.0169 19.9018 10.9227 19.9409C10.8284 19.98 10.7274 20.0001 10.6254 20C10.5237 20.0001 10.423 19.9802 10.329 19.9413C10.2351 19.9025 10.1497 19.8455 10.0778 19.7736L0.827191 10.5489C0.681215 10.4036 0.599301 10.206 0.599301 10C0.599301 9.7941 0.68145 9.59668 0.827191 9.45117Z" fill="#134CB3"/>
</svg>
