<svg width="12" height="20" viewBox="0 0 12 20" fill="none" xmlns="http://www.w3.org/2000/svg">
<path d="M11.1728 9.45117L1.92222 0.226167C1.61913 -0.0759023 1.12843 -0.0753945 0.825857 0.227729C0.523514 0.530814 0.524296 1.02179 0.82742 1.32409L9.52739 10L0.827107 18.6759C0.524022 18.9783 0.523241 19.4689 0.825544 19.7721C0.897511 19.8444 0.983079 19.9018 1.07732 19.9409C1.17156 19.98 1.27261 20.0001 1.37464 20C1.47631 20.0001 1.57701 19.9802 1.67096 19.9413C1.76491 19.9025 1.85028 19.8455 1.92218 19.7736L11.1728 10.5489C11.3188 10.4036 11.4007 10.206 11.4007 10C11.4007 9.7941 11.3186 9.59668 11.1728 9.45117Z" fill="#134CB3"/>
</svg>
