<svg width="18" height="18" viewBox="0 0 18 18" fill="none" xmlns="http://www.w3.org/2000/svg">
<path d="M5.66669 3.7915C5.32502 3.7915 5.04169 3.50817 5.04169 3.1665V0.666504C5.04169 0.324837 5.32502 0.0415039 5.66669 0.0415039C6.00835 0.0415039 6.29169 0.324837 6.29169 0.666504V3.1665C6.29169 3.50817 6.00835 3.7915 5.66669 3.7915ZM12.3334 3.7915C11.9917 3.7915 11.7084 3.50817 11.7084 3.1665V0.666504C11.7084 0.324837 11.9917 0.0415039 12.3334 0.0415039C12.675 0.0415039 12.9584 0.324837 12.9584 0.666504V3.1665C12.9584 3.50817 12.675 3.7915 12.3334 3.7915ZM6.08335 11.0832C5.97502 11.0832 5.86669 11.0582 5.76669 11.0165C5.65835 10.9748 5.57502 10.9165 5.49169 10.8415C5.34169 10.6832 5.25002 10.4748 5.25002 10.2498C5.25002 10.1415 5.27502 10.0332 5.31669 9.93317C5.35835 9.83317 5.41669 9.7415 5.49169 9.65817C5.57502 9.58317 5.65835 9.52484 5.76669 9.48317C6.06669 9.35817 6.44169 9.42484 6.67502 9.65817C6.82502 9.8165 6.91669 10.0332 6.91669 10.2498C6.91669 10.2998 6.90835 10.3582 6.90002 10.4165C6.89169 10.4665 6.87502 10.5165 6.85002 10.5665C6.83335 10.6165 6.80835 10.6665 6.77502 10.7165C6.75002 10.7582 6.70835 10.7998 6.67502 10.8415C6.51669 10.9915 6.30002 11.0832 6.08335 11.0832ZM9.00002 11.0832C8.89169 11.0832 8.78335 11.0582 8.68335 11.0165C8.57502 10.9748 8.49169 10.9165 8.40835 10.8415C8.25835 10.6832 8.16669 10.4748 8.16669 10.2498C8.16669 10.1415 8.19169 10.0332 8.23335 9.93317C8.27502 9.83317 8.33335 9.7415 8.40835 9.65817C8.49169 9.58317 8.57502 9.52484 8.68335 9.48317C8.98335 9.34984 9.35835 9.42484 9.59169 9.65817C9.74169 9.8165 9.83335 10.0332 9.83335 10.2498C9.83335 10.2998 9.82502 10.3582 9.81669 10.4165C9.80835 10.4665 9.79169 10.5165 9.76669 10.5665C9.75002 10.6165 9.72502 10.6665 9.69169 10.7165C9.66669 10.7582 9.62502 10.7998 9.59169 10.8415C9.43335 10.9915 9.21669 11.0832 9.00002 11.0832ZM11.9167 11.0832C11.8084 11.0832 11.7 11.0582 11.6 11.0165C11.4917 10.9748 11.4084 10.9165 11.325 10.8415L11.225 10.7165C11.1935 10.6701 11.1682 10.6196 11.15 10.5665C11.1259 10.5193 11.1091 10.4687 11.1 10.4165C11.0917 10.3582 11.0834 10.2998 11.0834 10.2498C11.0834 10.0332 11.175 9.8165 11.325 9.65817C11.4084 9.58317 11.4917 9.52484 11.6 9.48317C11.9084 9.34984 12.275 9.42484 12.5084 9.65817C12.6584 9.8165 12.75 10.0332 12.75 10.2498C12.75 10.2998 12.7417 10.3582 12.7334 10.4165C12.725 10.4665 12.7084 10.5165 12.6834 10.5665C12.6667 10.6165 12.6417 10.6665 12.6084 10.7165C12.5834 10.7582 12.5417 10.7998 12.5084 10.8415C12.35 10.9915 12.1334 11.0832 11.9167 11.0832ZM6.08335 13.9998C5.97502 13.9998 5.86669 13.9748 5.76669 13.9332C5.66669 13.8915 5.57502 13.8332 5.49169 13.7582C5.34169 13.5998 5.25002 13.3832 5.25002 13.1665C5.25002 13.0582 5.27502 12.9498 5.31669 12.8498C5.35835 12.7415 5.41669 12.6498 5.49169 12.5748C5.80002 12.2665 6.36669 12.2665 6.67502 12.5748C6.82502 12.7332 6.91669 12.9498 6.91669 13.1665C6.91669 13.3832 6.82502 13.5998 6.67502 13.7582C6.51669 13.9082 6.30002 13.9998 6.08335 13.9998ZM9.00002 13.9998C8.78335 13.9998 8.56669 13.9082 8.40835 13.7582C8.25835 13.5998 8.16669 13.3832 8.16669 13.1665C8.16669 13.0582 8.19169 12.9498 8.23335 12.8498C8.27502 12.7415 8.33335 12.6498 8.40835 12.5748C8.71669 12.2665 9.28335 12.2665 9.59169 12.5748C9.66669 12.6498 9.72502 12.7415 9.76669 12.8498C9.80835 12.9498 9.83335 13.0582 9.83335 13.1665C9.83335 13.3832 9.74169 13.5998 9.59169 13.7582C9.43335 13.9082 9.21669 13.9998 9.00002 13.9998ZM11.9167 13.9998C11.7 13.9998 11.4834 13.9082 11.325 13.7582C11.2479 13.6799 11.1883 13.5862 11.15 13.4832C11.1084 13.3832 11.0834 13.2748 11.0834 13.1665C11.0834 13.0582 11.1084 12.9498 11.15 12.8498C11.1917 12.7415 11.25 12.6498 11.325 12.5748C11.5167 12.3832 11.8084 12.2915 12.075 12.3498C12.1334 12.3582 12.1834 12.3748 12.2334 12.3998C12.2834 12.4165 12.3334 12.4415 12.3834 12.4748C12.425 12.4998 12.4667 12.5415 12.5084 12.5748C12.6584 12.7332 12.75 12.9498 12.75 13.1665C12.75 13.3832 12.6584 13.5998 12.5084 13.7582C12.35 13.9082 12.1334 13.9998 11.9167 13.9998ZM16.0834 7.19984H1.91669C1.57502 7.19984 1.29169 6.9165 1.29169 6.57484C1.29169 6.23317 1.57502 5.94984 1.91669 5.94984H16.0834C16.425 5.94984 16.7084 6.23317 16.7084 6.57484C16.7084 6.9165 16.425 7.19984 16.0834 7.19984Z" fill="white"/>
<path d="M12.3333 17.9582H5.66667C2.625 17.9582 0.875 16.2082 0.875 13.1665V6.08317C0.875 3.0415 2.625 1.2915 5.66667 1.2915H12.3333C15.375 1.2915 17.125 3.0415 17.125 6.08317V13.1665C17.125 16.2082 15.375 17.9582 12.3333 17.9582ZM5.66667 2.5415C3.28333 2.5415 2.125 3.69984 2.125 6.08317V13.1665C2.125 15.5498 3.28333 16.7082 5.66667 16.7082H12.3333C14.7167 16.7082 15.875 15.5498 15.875 13.1665V6.08317C15.875 3.69984 14.7167 2.5415 12.3333 2.5415H5.66667Z" fill="white"/>
</svg>
