<svg width="17" height="16" viewBox="0 0 17 16" fill="none" xmlns="http://www.w3.org/2000/svg">
<g clip-path="url(#clip0_555_611)">
<path d="M13.6819 12.6667H7.60259C6.72592 12.6667 5.9486 12.0994 5.71135 11.2867L3.65654 4.41935C3.58354 4.17069 3.34088 4.00002 3.06375 4.00002H1.4537C1.07991 4.00002 0.777771 3.70135 0.777771 3.33335C0.777771 2.96535 1.07991 2.66669 1.4537 2.66669H3.06375C3.94043 2.66669 4.71707 3.23402 4.95432 4.04669L5.33892 5.33335H15.6772C16.099 5.33335 16.4991 5.53135 16.7472 5.86335C16.9932 6.19269 17.0642 6.60469 16.9419 6.99402L15.5474 11.3594C15.2744 12.1474 14.5261 12.6667 13.6819 12.6667Z" fill="#102039"/>
<path d="M8.21294 16C7.46739 16 6.86108 15.402 6.86108 14.6666C6.86108 13.9313 7.46739 13.3333 8.21294 13.3333C8.95848 13.3333 9.56479 13.9313 9.56479 14.6666C9.56479 15.402 8.95848 16 8.21294 16Z" fill="#102039"/>
<path d="M12.9444 16C12.1989 16 11.5926 15.402 11.5926 14.6666C11.5926 13.9313 12.1989 13.3333 12.9444 13.3333C13.69 13.3333 14.2963 13.9313 14.2963 14.6666C14.2963 15.402 13.69 16 12.9444 16Z" fill="#102039"/>
</g>
<defs>
<clipPath id="clip0_555_611">
<rect width="16.2222" height="16" fill="white" transform="translate(0.777771)"/>
</clipPath>
</defs>
</svg>
