<svg width="40" height="40" viewBox="0 0 40 40" fill="none" xmlns="http://www.w3.org/2000/svg">
<g id="Frame" clip-path="url(#clip0_555_1064)">
<g id="Group">
<path id="Vector" d="M13.7152 8.36047H12.4532C11.0578 8.36047 9.92258 7.22516 9.92258 5.82977C9.92258 4.43438 11.0578 3.29906 12.4532 3.29906H13.7152V0.585C13.7152 0.440208 13.7728 0.301347 13.8751 0.198964C13.9775 0.0965808 14.1164 0.0390625 14.2612 0.0390625H25.743C25.8878 0.0390625 26.0267 0.0965808 26.1291 0.198964C26.2315 0.301347 26.289 0.440208 26.289 0.585V3.29914H27.5488C28.9442 3.29914 30.0795 4.43445 30.0795 5.82984C30.0795 7.22523 28.9442 8.36055 27.5488 8.36055H26.289V8.71633C26.289 8.86112 26.2315 8.99998 26.1291 9.10236C26.0267 9.20475 25.8878 9.26227 25.743 9.26227C25.5983 9.26227 25.4594 9.20475 25.357 9.10236C25.2546 8.99998 25.1971 8.86112 25.1971 8.71633V7.81453C25.1971 7.66974 25.2546 7.53088 25.357 7.4285C25.4594 7.32611 25.5983 7.26859 25.743 7.26859H27.5487C28.3421 7.26859 28.9876 6.6232 28.9876 5.82977C28.9876 5.03641 28.3421 4.39094 27.5487 4.39094H25.743C25.5983 4.39094 25.4594 4.33342 25.357 4.23104C25.2546 4.12865 25.1971 3.98979 25.1971 3.845V1.13094H14.8071V3.84508C14.8071 3.98987 14.7496 4.12873 14.6472 4.23111C14.5448 4.3335 14.406 4.39102 14.2612 4.39102H12.4532C11.6598 4.39102 11.0144 5.03648 11.0144 5.82984C11.0144 6.62328 11.6598 7.26867 12.4532 7.26867H14.2612C14.406 7.26867 14.5448 7.32619 14.6472 7.42857C14.7496 7.53096 14.8071 7.66982 14.8071 7.81461V10.5287H22.5405C22.6853 10.5287 22.8242 10.5862 22.9266 10.6886C23.029 10.791 23.0865 10.9298 23.0865 11.0746C23.0865 11.2194 23.029 11.3583 22.9266 11.4606C22.8242 11.563 22.6853 11.6205 22.5405 11.6205H14.8071V14.3347C14.8071 14.4795 14.7496 14.6183 14.6472 14.7207C14.5448 14.8231 14.406 14.8806 14.2612 14.8806H12.4532C11.6598 14.8806 11.0144 15.526 11.0144 16.3195C11.0144 17.1128 11.6598 17.7583 12.4532 17.7583H14.2612C14.406 17.7583 14.5448 17.8158 14.6472 17.9182C14.7496 18.0206 14.8071 18.1594 14.8071 18.3042V20.7818C14.8071 20.9266 14.7496 21.0655 14.6472 21.1678C14.5448 21.2702 14.406 21.3277 14.2612 21.3277C14.1164 21.3277 13.9775 21.2702 13.8751 21.1678C13.7728 21.0655 13.7152 20.9266 13.7152 20.7818V18.85H12.4532C11.0578 18.85 9.92258 17.7147 9.92258 16.3193C9.92258 14.9239 11.0578 13.7886 12.4532 13.7886H13.7152V8.36047ZM18.1378 4.39102H19.7734C19.9181 4.39102 20.057 4.3335 20.1594 4.23111C20.2618 4.12873 20.3193 3.98987 20.3193 3.84508C20.3193 3.70029 20.2618 3.56143 20.1594 3.45904C20.057 3.35666 19.9181 3.29914 19.7734 3.29914H18.1378C16.7424 3.29914 15.6072 4.43445 15.6072 5.82984C15.6072 7.22523 16.7424 8.36055 18.1378 8.36055H19.7734C19.9181 8.36055 20.057 8.30303 20.1594 8.20065C20.2618 8.09826 20.3193 7.9594 20.3193 7.81461C20.3193 7.66982 20.2618 7.53096 20.1594 7.42857C20.057 7.32619 19.9181 7.26867 19.7734 7.26867H18.1378C17.3445 7.26867 16.699 6.6232 16.699 5.82984C16.699 5.03648 17.3445 4.39102 18.1378 4.39102ZM18.1378 14.8805H19.7734C19.9181 14.8805 20.057 14.823 20.1594 14.7206C20.2618 14.6182 20.3193 14.4793 20.3193 14.3345C20.3193 14.1897 20.2618 14.0509 20.1594 13.9485C20.057 13.8461 19.9181 13.7886 19.7734 13.7886H18.1378C16.7424 13.7886 15.6072 14.9239 15.6072 16.3193C15.6072 17.7147 16.7424 18.85 18.1378 18.85H19.7734C19.9181 18.85 20.057 18.7925 20.1594 18.6901C20.2618 18.5877 20.3193 18.4489 20.3193 18.3041C20.3193 18.1593 20.2618 18.0204 20.1594 17.918C20.057 17.8156 19.9181 17.7581 19.7734 17.7581H18.1378C17.3445 17.7581 16.699 17.1127 16.699 16.3193C16.699 15.5259 17.3445 14.8805 18.1378 14.8805ZM38.8541 17.4982C38.1222 19.161 35.1377 21.6157 32.9584 23.408C32.4292 23.8433 31.9722 24.2192 31.629 24.5177C31.5297 24.6041 31.4024 24.6517 31.2707 24.6516C31.1392 24.6517 31.012 24.6042 30.9127 24.5179C30.5723 24.2223 30.1199 23.8502 29.5959 23.4195C28.5659 22.5725 27.3565 21.578 26.2889 20.5891V24.2781H27.5487C28.9441 24.2781 30.0794 25.4134 30.0794 26.8088C30.0794 28.2042 28.9441 29.3395 27.5487 29.3395H26.2889V30.5775L30.7649 28.4062C32.4482 27.5922 34.4805 28.2979 35.2959 29.9787C35.6898 30.7906 35.7428 31.7106 35.4452 32.5692C35.1475 33.4277 34.5368 34.1169 33.7255 34.5098C32.2166 35.2412 30.8892 35.9023 29.7181 36.4857C25.1062 38.783 22.6954 39.9609 20.2976 39.961C17.7687 39.9611 15.2541 38.6509 10.1859 35.9616C9.21445 35.4462 8.11758 34.8641 6.9132 34.2351H1.07078C0.925987 34.2351 0.787126 34.1776 0.684743 34.0752C0.58236 33.9728 0.524841 33.8339 0.524841 33.6891C0.524841 33.5443 0.58236 33.4055 0.684743 33.3031C0.787126 33.2007 0.925987 33.1432 1.07078 33.1432H7.04711C7.13508 33.1432 7.22172 33.1645 7.29969 33.2052C8.55406 33.8597 9.69289 34.464 10.6976 34.9971C15.4755 37.5323 17.8737 38.8049 20.1248 38.8662C22.3674 38.9265 24.6615 37.7846 29.2313 35.5084C30.4049 34.9239 31.7351 34.2614 33.2494 33.5273C33.7982 33.2615 34.2116 32.7942 34.4136 32.2116C34.6157 31.6285 34.5802 31.0048 34.3136 30.4552C33.7606 29.3154 32.3822 28.837 31.2409 29.3889L26.0088 31.9268C25.9901 31.9373 25.9709 31.9466 25.9511 31.9548L23.2497 33.2652C23.1815 33.3799 23.1066 33.4905 23.0254 33.5964C22.358 34.4611 21.3521 34.9148 20.3361 34.9148C19.6126 34.9148 18.884 34.6849 18.2683 34.2097L12.902 30.0678C12.7902 29.9784 12.718 29.8486 12.7009 29.7065C12.6838 29.5643 12.7233 29.4211 12.8108 29.3078C12.8983 29.1944 13.0268 29.12 13.1686 29.1004C13.3105 29.0809 13.4543 29.1179 13.5691 29.2034L18.9355 33.3453C19.9392 34.12 21.3862 33.9333 22.1614 32.929C22.2552 32.8076 22.3365 32.6772 22.4043 32.5396C22.4088 32.5305 22.4135 32.5214 22.4179 32.5122C22.4383 32.4693 22.4573 32.4259 22.4748 32.3821C22.662 31.9175 22.6921 31.4045 22.5604 30.9212C22.4287 30.4379 22.1425 30.011 21.7454 29.7057C20.0161 28.3705 18.2856 27.0355 16.5553 25.7005C16.555 25.7004 16.5548 25.7002 16.5545 25.6999C15.9365 25.2231 15.3188 24.7462 14.7007 24.2694L14.1753 23.8641C13.8311 23.5977 13.4681 23.4738 13.0323 23.4738H1.07078C0.925987 23.4738 0.787126 23.4163 0.684743 23.3139C0.58236 23.2115 0.524841 23.0727 0.524841 22.9279C0.524841 22.7831 0.58236 22.6442 0.684743 22.5419C0.787126 22.4395 0.925987 22.382 1.07078 22.382H13.0323C13.7131 22.382 14.3053 22.5842 14.8427 23.0001L15.3675 23.4049L16.9109 24.5959C17.2838 24.3872 17.701 24.2783 18.1378 24.2783H19.7734C19.9181 24.2783 20.057 24.3358 20.1594 24.4382C20.2618 24.5406 20.3193 24.6794 20.3193 24.8242C20.3193 24.969 20.2618 25.1079 20.1594 25.2103C20.057 25.3126 19.9181 25.3702 19.7734 25.3702H18.1378C18.0689 25.3702 18.0011 25.3761 17.9341 25.3855C19.4271 26.5374 20.9203 27.6893 22.4122 28.8412C22.8635 29.1881 23.22 29.6433 23.4487 30.1646C23.6774 30.6859 23.7709 31.2564 23.7205 31.8234L25.1971 31.1072V28.7937C25.1971 28.6489 25.2546 28.51 25.357 28.4076C25.4594 28.3053 25.5983 28.2477 25.743 28.2477H27.5487C28.3421 28.2477 28.9876 27.6023 28.9876 26.8089C28.9876 26.0155 28.3421 25.3701 27.5487 25.3701H25.743C25.5983 25.3701 25.4594 25.3126 25.357 25.2102C25.2546 25.1078 25.1971 24.9689 25.1971 24.8241V22.11H16.4249C16.2801 22.11 16.1413 22.0525 16.0389 21.9501C15.9365 21.8477 15.879 21.7089 15.879 21.5641C15.879 21.4193 15.9365 21.2804 16.0389 21.178C16.1413 21.0756 16.2801 21.0181 16.4249 21.0181H25.1971V19.5206C24.4979 18.7891 23.9466 18.0926 23.6852 17.4984C22.5369 14.8874 23.0107 12.0282 24.8641 10.3834C26.5347 8.90102 28.9114 8.79313 31.2707 10.0758C33.6297 8.7932 36.0058 8.90102 37.6756 10.3829C39.5289 12.0274 40.0025 14.887 38.8541 17.4982ZM36.9509 11.1995C35.5677 9.9718 33.5985 9.96234 31.5484 11.1733C31.4643 11.223 31.3684 11.2492 31.2707 11.2492C31.1731 11.2492 31.0772 11.223 30.9931 11.1733C29.9756 10.5723 28.9777 10.2719 28.0616 10.2719C27.1316 10.2719 26.2861 10.5813 25.5889 11.2C24.0914 12.5289 23.728 14.8834 24.6846 17.0588C24.908 17.5664 25.4333 18.2065 26.1055 18.8934C26.1253 18.9111 26.1441 18.9298 26.1612 18.9502C27.3705 20.1759 29.0331 21.5433 30.2895 22.5763C30.6545 22.8763 30.9852 23.1483 31.2705 23.3882C31.5595 23.1451 31.8948 22.8693 32.2649 22.5648C34.2412 20.9395 37.2277 18.483 37.8547 17.0586C38.8115 14.883 38.4484 12.5283 36.9509 11.1995ZM35.3263 15.17V17.4531C35.3263 17.5248 35.3122 17.5958 35.2848 17.662C35.2573 17.7283 35.2171 17.7885 35.1664 17.8392C35.1157 17.8899 35.0555 17.9301 34.9893 17.9575C34.9231 17.9849 34.8521 17.9991 34.7804 17.9991H32.957V19.8223C32.957 19.9671 32.8995 20.106 32.7971 20.2084C32.6947 20.3108 32.5559 20.3683 32.4111 20.3683H30.128C29.9832 20.3683 29.8443 20.3108 29.7419 20.2084C29.6396 20.106 29.582 19.9671 29.582 19.8223V17.9991H27.7586C27.6138 17.9991 27.4749 17.9415 27.3726 17.8392C27.2702 17.7368 27.2127 17.5979 27.2127 17.4531V15.17C27.2127 15.0252 27.2702 14.8863 27.3726 14.784C27.4749 14.6816 27.6138 14.6241 27.7586 14.6241H29.582V12.8007C29.582 12.6559 29.6396 12.5171 29.7419 12.4147C29.8443 12.3123 29.9832 12.2548 30.128 12.2548H32.4111C32.5559 12.2548 32.6947 12.3123 32.7971 12.4147C32.8995 12.5171 32.957 12.6559 32.957 12.8007V14.6241H34.7804C34.9252 14.6241 35.064 14.6816 35.1664 14.784C35.2688 14.8863 35.3263 15.0252 35.3263 15.17ZM34.2345 15.7159H32.4112C32.2664 15.7159 32.1275 15.6584 32.0251 15.556C31.9228 15.4537 31.8652 15.3148 31.8652 15.17V13.3466H30.6739V15.17C30.6739 15.3148 30.6164 15.4537 30.514 15.556C30.4116 15.6584 30.2728 15.7159 30.128 15.7159H28.3045V16.9072H30.128C30.2728 16.9072 30.4116 16.9647 30.514 17.0671C30.6164 17.1695 30.6739 17.3083 30.6739 17.4531V19.2764H31.8652V17.4531C31.8652 17.3083 31.9228 17.1695 32.0251 17.0671C32.1275 16.9647 32.2664 16.9072 32.4112 16.9072H34.2345V15.7159Z" fill="#FFFFFF"/>
</g>
</g>
<defs>
<clipPath id="clip0_555_1064">
<rect width="40" height="40" fill="white"/>
</clipPath>
</defs>
</svg>
