<svg width="40" height="40" viewBox="0 0 50 50" fill="none" xmlns="http://www.w3.org/2000/svg">
<g id="Frame">
<g id="Group">
<path id="Vector" d="M39.0578 25.8672C39.0703 25.7579 39.0595 25.6473 39.0261 25.5425C38.9927 25.4377 38.9376 25.3412 38.8642 25.2593C38.7908 25.1774 38.701 25.1119 38.6005 25.0672C38.5 25.0225 38.3912 24.9996 38.2813 25H35.1563C34.9942 25 34.8362 25.0504 34.7041 25.1442C34.5719 25.2379 34.4722 25.3705 34.4188 25.5234L34.1258 26.3734C33.35 29.4766 32.0102 31.3484 30.1547 33.9406L29.7531 34.5023C29.6083 34.7045 29.4174 34.8692 29.1962 34.9829C28.975 35.0966 28.73 35.156 28.4813 35.1562H28.461C29.235 34.2994 29.6637 33.1859 29.6641 32.0312C29.6641 29.4461 27.5617 27.3438 24.9766 27.3438C22.3914 27.3438 20.2891 29.4461 20.2891 32.0312C20.2891 33.232 20.7469 34.3258 21.4922 35.1562C21.2444 35.1556 21.0003 35.0962 20.7799 34.9829C20.5595 34.8696 20.3691 34.7058 20.2242 34.5047L19.8195 33.9375C17.9649 31.3477 16.6258 29.475 15.8305 26.3047L15.557 25.5234C15.5036 25.3705 15.4039 25.2379 15.2717 25.1442C15.1396 25.0504 14.9816 25 14.8195 25H11.6945C11.5846 24.9996 11.4758 25.0225 11.3753 25.0672C11.2748 25.1119 11.185 25.1774 11.1116 25.2593C11.0383 25.3412 10.9831 25.4377 10.9497 25.5425C10.9163 25.6473 10.9055 25.7579 10.918 25.8672C11.3122 29.3887 12.5729 32.7576 14.5875 35.6727L18.7258 41.65V48.4375H20.2883V41.4062C20.2883 41.2474 20.2398 41.0923 20.1492 40.9617L15.8719 34.7836C14.1729 32.3252 13.0501 29.5155 12.5867 26.5633H14.2672L14.3344 26.7523C15.1813 30.143 16.6672 32.2188 18.5485 34.8469L18.9516 35.4117C19.2418 35.8156 19.6239 36.1448 20.0663 36.372C20.5087 36.5993 20.9987 36.7181 21.4961 36.7188H28.4813C28.9789 36.7182 29.4692 36.5991 29.9115 36.3712C30.3539 36.1434 30.7356 35.8134 31.025 35.4086L31.425 34.8492C33.307 32.2203 34.7938 30.1438 35.6211 26.8203L35.711 26.5625H37.3883C36.9257 29.5149 35.8027 32.3248 34.1031 34.7828L29.8258 40.9609C29.7359 41.0921 29.6877 41.2473 29.6875 41.4062V48.4375H31.25V41.65L35.3883 35.6727C37.4033 32.7578 38.6641 29.3888 39.0578 25.8672ZM24.9774 28.9062C26.7008 28.9062 28.1024 30.3078 28.1024 32.0312C28.1024 33.7547 26.7008 35.1562 24.9774 35.1562C23.2539 35.1562 21.8524 33.7547 21.8524 32.0312C21.8524 30.3078 23.2539 28.9062 24.9774 28.9062ZM24.5641 21.7422C24.6931 21.8283 24.8448 21.8743 25 21.8743C25.1552 21.8743 25.3069 21.8283 25.436 21.7422C27.1664 20.5789 32.8125 16.4445 32.8125 12.0688C32.8125 9.95234 31.5906 8.36406 29.6235 7.92344C28.1172 7.58359 26.2211 8.03203 25 9.43516C23.7789 8.03203 21.8844 7.58125 20.3766 7.92344C18.4094 8.36406 17.1875 9.95234 17.1875 12.0688C17.1875 16.4445 22.8336 20.5789 24.5641 21.7422ZM20.718 9.44844C20.9372 9.39948 21.1613 9.37511 21.386 9.37578C22.4899 9.37578 23.7047 9.94062 24.2938 11.1891C24.3568 11.3231 24.4567 11.4364 24.5818 11.5158C24.7068 11.5952 24.8519 11.6374 25 11.6374C25.1481 11.6374 25.2932 11.5952 25.4183 11.5158C25.5433 11.4364 25.6432 11.3231 25.7063 11.1891C26.418 9.67891 28.0445 9.16875 29.282 9.44766C29.8742 9.58125 31.25 10.1016 31.25 12.0688C31.25 15.4094 26.6985 18.9422 25 20.1445C23.3016 18.9422 18.75 15.4094 18.75 12.0688C18.75 10.1016 20.1258 9.58125 20.718 9.44844ZM35.1563 12.5H38.2813V14.0625H35.1563V12.5ZM11.7188 12.5H14.8438V14.0625H11.7188V12.5ZM24.2188 1.5625H25.7813V4.6875H24.2188V1.5625ZM15.0539 5.24141L16.1586 4.13672L18.368 6.34609L17.2633 7.45078L15.0539 5.24141ZM31.6242 6.34531L33.8336 4.13594L34.9383 5.24063L32.7289 7.45L31.6242 6.34531Z" fill="#FFFFFF"/>
</g>
</g>
</svg>
