<svg width="40" height="40" viewBox="0 0 40 40" fill="none" xmlns="http://www.w3.org/2000/svg">
<g id="Frame" clip-path="url(#clip0_555_1038)">
<g id="Group">
<path id="Vector" d="M8.19998 21.4153C8.50297 21.4767 8.81089 21.5107 9.11998 21.5167C9.29679 21.5167 9.46636 21.4464 9.59139 21.3214C9.71641 21.1964 9.78665 21.0268 9.78665 20.85C9.78665 20.6732 9.71641 20.5036 9.59139 20.3786C9.46636 20.2536 9.29679 20.1833 9.11998 20.1833C8.5381 20.1923 7.96835 20.0165 7.49265 19.6813C7.25376 19.4233 6.94383 19.2417 6.60192 19.1595C6.26001 19.0773 5.90141 19.0981 5.57132 19.2193C4.97132 19.468 4.25798 20.1947 4.25798 22.242C4.27399 22.5236 4.22577 22.8051 4.11697 23.0653C4.00818 23.3255 3.84165 23.5576 3.62998 23.744C2.60865 24.8687 2.68265 25.588 2.96332 26.974C2.96998 26.9953 2.97798 27.016 2.98732 27.036C3.15532 27.6273 3.36465 28.2067 3.61265 28.7693C3.64727 28.8497 3.6974 28.9225 3.76016 28.9836C3.82292 29.0446 3.89709 29.0927 3.97844 29.1251C4.05978 29.1575 4.14671 29.1735 4.23425 29.1723C4.32179 29.1711 4.40824 29.1526 4.48865 29.118C4.56906 29.0834 4.64187 29.0332 4.70291 28.9705C4.76395 28.9077 4.81203 28.8335 4.84441 28.7522C4.87679 28.6709 4.89282 28.5839 4.89161 28.4964C4.89039 28.4088 4.87194 28.3224 4.83732 28.242C4.70445 27.9347 4.58083 27.6234 4.46665 27.3087C6.04332 26.8113 7.66198 25.7087 8.18798 24.1087C8.44528 23.2299 8.44944 22.2964 8.19998 21.4153ZM6.91998 23.6973C6.55198 24.8167 5.31998 25.624 4.13265 26.0127C4.08942 25.7615 4.11128 25.5035 4.19612 25.2632C4.28097 25.0229 4.42598 24.8083 4.61732 24.64C4.93914 24.3308 5.19221 23.9573 5.36003 23.5438C5.52785 23.1302 5.60666 22.686 5.59132 22.24C5.59132 21.2833 5.82798 19.952 6.53065 20.6073C7.00626 21.5636 7.14307 22.6529 6.91998 23.6973Z" fill="#134CB3"/>
<path id="Vector_2" d="M36.6667 18.6666C35.8985 18.6676 35.1542 18.9333 34.5592 19.4191C33.9641 19.9048 33.5547 20.5809 33.4 21.3333H25.294C27.4353 17.2453 27.97 13.6439 26.512 9.24593L30.9967 8.1126C31.3551 8.85682 31.9772 9.44143 32.7422 9.75308C33.5072 10.0647 34.3606 10.0812 35.1371 9.79937C35.9136 9.51752 36.5578 8.95739 36.9447 8.22758C37.3317 7.49777 37.4339 6.65027 37.2315 5.8494C37.0291 5.04852 36.5366 4.35132 35.8493 3.89297C35.1621 3.43461 34.3292 3.24776 33.512 3.36862C32.6949 3.48949 31.9517 3.90948 31.4266 4.54715C30.9015 5.18483 30.6319 5.99476 30.67 6.81993L26.0367 7.9906C24.9657 5.27251 23.0862 2.94871 20.652 1.33327C19.3198 0.501481 17.7887 0.0427391 16.2187 0.00497711C14.6486 -0.0327849 13.0973 0.351819 11.7267 1.1186C3.48065 5.39993 3.38599 14.4333 3.38599 14.8159V16.1939C3.38599 22.5406 -2.67268 17.3486 1.40865 34.2786C2.82532 40.1566 7.98265 41.2233 11.1127 38.7833C13.2073 37.1559 14.1127 34.7919 15.246 33.1599L26.6667 35.3679C26.6751 36.1939 26.99 36.9874 27.5503 37.5944C28.1105 38.2014 28.8762 38.5788 29.6988 38.6534C30.5215 38.728 31.3425 38.4944 32.0028 37.9981C32.6631 37.5017 33.1155 36.7779 33.2725 35.9669C33.4294 35.1559 33.2796 34.3155 32.8521 33.6087C32.4246 32.9018 31.7499 32.3789 30.9588 32.1413C30.1677 31.9036 29.3165 31.9682 28.5703 32.3224C27.8241 32.6767 27.236 33.2954 26.92 34.0586L16.29 32.0039C19.5713 29.4035 22.3658 26.2422 24.544 22.6666H33.4C33.5261 23.2845 33.825 23.854 34.2619 24.3089C34.6987 24.7638 35.2557 25.0854 35.868 25.2364C36.4804 25.3873 37.123 25.3615 37.7212 25.1618C38.3195 24.9622 38.8488 24.5969 39.2477 24.1084C39.6467 23.6199 39.8988 23.0283 39.9749 22.4022C40.0511 21.7761 39.948 21.1413 39.6777 20.5714C39.4074 20.0016 38.981 19.5201 38.448 19.183C37.9151 18.8458 37.2973 18.6667 36.6667 18.6666ZM32.2827 5.64193C32.5544 5.18638 32.996 4.85744 33.5103 4.72748C34.0246 4.59752 34.5694 4.67718 35.025 4.94893C35.4805 5.22069 35.8095 5.66229 35.9394 6.17657C36.0694 6.69086 35.9897 7.23571 35.718 7.69127C35.5834 7.91683 35.4058 8.11369 35.1951 8.27059C34.9845 8.42749 34.745 8.54137 34.4903 8.60572C34.2357 8.67007 33.9709 8.68364 33.711 8.64564C33.4511 8.60764 33.2012 8.51883 32.9757 8.38427C32.7501 8.24971 32.5532 8.07203 32.3963 7.86139C32.2394 7.65076 32.1255 7.41127 32.0612 7.15663C31.9968 6.90198 31.9833 6.63715 32.0213 6.37725C32.0593 6.11736 32.1481 5.8675 32.2827 5.64193ZM23.772 21.3333H22.4313C23.4984 19.6416 24.2021 17.7466 24.4979 15.7685C24.7936 13.7904 24.6749 11.7724 24.1493 9.8426L25.2227 9.57127C26.6667 13.8619 26.038 17.3099 23.772 21.3333ZM18.572 21.3333C19.2953 19.8746 18.9287 18.4299 18.0827 17.0259C16.2567 13.9999 11.3413 12.9453 9.16532 12.6186C8.97199 9.94127 9.54132 6.9566 12.348 5.15193C16.4567 2.51193 20.6147 4.71793 22.41 8.90593L18.324 9.93793C18.1525 9.98125 18.0052 10.0909 17.9146 10.2428C17.8239 10.3947 17.7973 10.5764 17.8407 10.7479C17.884 10.9194 17.9936 11.0667 18.1456 11.1574C18.2975 11.248 18.4791 11.2746 18.6507 11.2313L22.862 10.1646C23.9573 13.9506 23.062 18.5646 20.7553 21.3299L18.572 21.3333ZM28.88 33.6766C29.2077 33.4553 29.5936 33.336 29.989 33.3339C30.3844 33.3319 30.7716 33.4471 31.1016 33.6649C31.4315 33.8828 31.6895 34.1937 31.8429 34.5581C31.9963 34.9226 32.0382 35.3243 31.9633 35.7126C31.8881 36.1008 31.6994 36.458 31.4213 36.739C31.1431 37.02 30.7878 37.2122 30.4004 37.2914C30.013 37.3706 29.6108 37.3332 29.2447 37.1839C28.8786 37.0346 28.5649 36.7801 28.3433 36.4526C28.1944 36.236 28.0905 35.9916 28.0378 35.7341C27.9851 35.4765 27.9847 35.211 28.0367 34.9533C28.0858 34.6953 28.1856 34.4495 28.3303 34.2304C28.4751 34.0112 28.6619 33.823 28.88 33.6766ZM15.646 30.8179C15.2919 31.0686 14.9714 31.3634 14.692 31.6953L9.18065 30.6286C9.00702 30.5951 8.8272 30.6319 8.68073 30.731C8.53427 30.8301 8.43316 30.9833 8.39965 31.1569C8.36615 31.3306 8.40299 31.5104 8.50207 31.6569C8.60115 31.8033 8.75436 31.9044 8.92799 31.9379L13.828 32.8853C12.78 34.5519 11.9613 36.4333 10.2947 37.7299C7.82799 39.6553 3.86265 38.7639 2.70665 33.9653C2.13865 31.6159 0.414651 24.4666 1.95332 22.0733C3.21999 20.1006 4.71932 19.9233 4.71932 16.1939V14.8159C4.71932 14.7306 4.80598 6.21193 12.3407 2.3026C17.58 -0.412067 22.414 2.9646 24.7407 8.31727L23.7067 8.5786C21.6087 3.4306 16.462 0.923934 11.6273 4.03127C4.65265 8.51327 9.36532 18.8313 9.41399 18.9366C9.44951 19.0182 9.50102 19.0918 9.56546 19.1532C9.6299 19.2146 9.70597 19.2624 9.7892 19.2939C9.87242 19.3254 9.96111 19.3399 10.05 19.3366C10.139 19.3333 10.2263 19.3122 10.307 19.2746C10.3876 19.237 10.4599 19.1836 10.5196 19.1177C10.5793 19.0517 10.6252 18.9744 10.6546 18.8904C10.6839 18.8064 10.6962 18.7173 10.6906 18.6285C10.685 18.5397 10.6617 18.4529 10.622 18.3733C10.0192 16.9708 9.58655 15.5013 9.33332 13.9959C11.218 14.3139 15.4753 15.2839 16.942 17.7146C17.934 19.3613 17.758 20.3813 16.9927 21.3333H13.3333C13.1565 21.3333 12.9869 21.4035 12.8619 21.5285C12.7369 21.6536 12.6667 21.8231 12.6667 21.9999C12.6667 22.1767 12.7369 22.3463 12.8619 22.4713C12.9869 22.5964 13.1565 22.6666 13.3333 22.6666H15.4853C13.2662 24.0516 10.8993 25.1844 8.42865 26.0439C8.26589 26.1088 8.13519 26.2351 8.06482 26.3955C7.99445 26.556 7.99007 26.7376 8.05262 26.9013C8.11517 27.065 8.23963 27.1974 8.39908 27.27C8.55853 27.3426 8.74014 27.3495 8.90465 27.2893C13.3827 25.5753 16.112 24.1366 17.58 22.6666H19.4773C17.69 24.3493 15.7513 25.7939 14.0773 29.0266C13.996 29.1836 13.9804 29.3665 14.0339 29.535C14.0874 29.7036 14.2056 29.8439 14.3627 29.9253C14.5197 30.0066 14.7025 30.0222 14.8711 29.9687C15.0396 29.9152 15.18 29.7969 15.2613 29.6399C17.132 26.0339 19.4093 24.7826 21.362 22.6666H22.972C20.9866 25.7618 18.5125 28.5147 15.646 30.8179ZM36.6667 23.9999C36.1362 23.9999 35.6275 23.7892 35.2524 23.4141C34.8774 23.0391 34.6667 22.5304 34.6667 21.9999C34.6667 21.4695 34.8774 20.9608 35.2524 20.5857C35.6275 20.2106 36.1362 19.9999 36.6667 19.9999C37.1971 19.9999 37.7058 20.2106 38.0809 20.5857C38.4559 20.9608 38.6667 21.4695 38.6667 21.9999C38.6667 22.5304 38.4559 23.0391 38.0809 23.4141C37.7058 23.7892 37.1971 23.9999 36.6667 23.9999Z" fill="#134CB3"/>
</g>
</g>
<defs>
<clipPath id="clip0_555_1038">
<rect width="40" height="40" fill="white"/>
</clipPath>
</defs>
</svg>
