<svg width="40" height="40" viewBox="0 0 40 40" fill="none" xmlns="http://www.w3.org/2000/svg">
<g id="Frame">
<g id="Group">
<path id="Vector" d="M24.8562 35.5138C22.6216 36.2129 20.2622 36.4209 17.9397 36.1234C15.6172 35.826 13.3864 35.0303 11.4 33.7906C9.41355 32.551 7.71845 30.8968 6.43071 28.9412C5.14297 26.9857 4.293 24.7749 3.93899 22.4604C3.58497 20.1458 3.73527 17.7821 4.3796 15.531C5.02392 13.2799 6.14706 11.1947 7.67212 9.41796C9.19718 7.64125 11.0881 6.21506 13.2156 5.23702C15.343 4.25898 17.6566 3.75218 19.9981 3.75133C23.7026 3.76509 27.2922 5.03852 30.1771 7.36237C33.0621 9.68623 35.0707 12.9223 35.8731 16.5388C35.9119 16.697 36.0108 16.8337 36.1489 16.92C36.287 17.0063 36.4533 17.0353 36.6124 17.0009C36.7715 16.9664 36.9109 16.8713 37.0009 16.7356C37.091 16.5999 37.1245 16.4345 37.0944 16.2745C36.3915 13.049 34.7906 10.0882 32.4765 7.73398C30.1625 5.37974 27.2297 3.72811 24.0168 2.96984C20.804 2.21156 17.4422 2.37759 14.3197 3.44874C11.1972 4.51988 8.44136 6.45245 6.37052 9.02325C4.29969 11.594 2.9983 14.6982 2.61666 17.9772C2.23503 21.2561 2.78872 24.5762 4.21378 27.5539C5.63884 30.5315 7.87714 33.0454 10.6702 34.805C13.4632 36.5646 16.697 37.4983 19.9981 37.4982C21.7706 37.4986 23.5331 37.2321 25.2262 36.7076C25.3817 36.6562 25.5107 36.5458 25.5856 36.4002C25.6606 36.2547 25.6754 36.0855 25.6269 35.9292C25.5784 35.7728 25.4706 35.6417 25.3264 35.564C25.1823 35.4864 25.0135 35.4683 24.8562 35.5138Z" fill="#134CB3"/>
<path id="Vector_2" d="M19.9981 6.87817C19.8324 6.87817 19.6734 6.94402 19.5562 7.06123C19.439 7.17844 19.3731 7.33741 19.3731 7.50317V17.5907C18.9434 17.7026 18.5513 17.9271 18.2373 18.2411C17.9233 18.5551 17.6988 18.9472 17.5869 19.3769H10.625C10.4592 19.3769 10.3003 19.4428 10.1831 19.56C10.0658 19.6772 10 19.8362 10 20.0019C10 20.1677 10.0658 20.3267 10.1831 20.4439C10.3003 20.5611 10.4592 20.6269 10.625 20.6269H17.5875C17.6969 21.0532 17.9172 21.4429 18.2259 21.7565C18.5346 22.0702 18.9208 22.2965 19.3453 22.4127C19.7698 22.5288 20.2174 22.5306 20.6428 22.4178C21.0682 22.305 21.4561 22.0817 21.7673 21.7705C22.0785 21.4593 22.3018 21.0713 22.4146 20.646C22.5274 20.2206 22.5256 19.7729 22.4095 19.3485C22.2934 18.924 22.067 18.5378 21.7534 18.2291C21.4397 17.9203 21.05 17.7001 20.6238 17.5907V7.50317C20.6238 7.33741 20.5579 7.17844 20.4407 7.06123C20.3235 6.94402 20.1639 6.87817 19.9981 6.87817ZM21.2481 20.0019C21.2481 20.2491 21.1748 20.4908 21.0375 20.6964C20.9001 20.9019 20.7049 21.0622 20.4765 21.1568C20.2481 21.2514 19.9967 21.2761 19.7543 21.2279C19.5118 21.1797 19.2891 21.0606 19.1142 20.8858C18.9394 20.711 18.8204 20.4883 18.7721 20.2458C18.7239 20.0033 18.7487 19.752 18.8433 19.5236C18.9379 19.2952 19.0981 19.0999 19.3037 18.9626C19.5092 18.8252 19.7509 18.7519 19.9981 18.7519C20.3295 18.7523 20.6473 18.8841 20.8816 19.1184C21.116 19.3528 21.2478 19.6705 21.2481 20.0019ZM37.0312 31.3875C36.8388 31.2073 36.6085 31.0721 36.3573 30.9919C36.1061 30.9117 35.8401 30.8884 35.5787 30.9238C35.5487 30.5894 35.6512 29.9244 35.4656 29.6313C35.6512 29.3513 35.5556 28.6582 35.5781 28.3388C35.8105 28.3818 36.0495 28.3731 36.2782 28.3134C36.5068 28.2537 36.7195 28.1443 36.9012 27.9932C37.0829 27.842 37.2291 27.6528 37.3294 27.4388C37.4297 27.2248 37.4817 26.9914 37.4817 26.755C37.4817 26.5187 37.4297 26.2853 37.3294 26.0713C37.2291 25.8573 37.0829 25.668 36.9012 25.5169C36.7195 25.3658 36.5068 25.2564 36.2782 25.1967C36.0495 25.137 35.8105 25.1283 35.5781 25.1713C35.5487 24.8557 35.6512 24.1588 35.4656 23.8788C35.6512 23.585 35.5556 22.9157 35.5781 22.5863C35.7953 22.6278 36.0187 22.6237 36.2343 22.5744C36.4498 22.5251 36.6528 22.4316 36.8303 22.2999C37.0079 22.1681 37.1562 22.0009 37.2658 21.8089C37.3754 21.6169 37.444 21.4042 37.4672 21.1843C37.4905 20.9644 37.4678 20.7421 37.4007 20.5314C37.3336 20.3208 37.2234 20.1263 37.0773 19.9604C36.9312 19.7944 36.7522 19.6606 36.5517 19.5674C36.3512 19.4742 36.1336 19.4236 35.9125 19.4188H35.5787V18.6044C35.5786 18.3121 35.4624 18.0317 35.2557 17.825C35.0489 17.6183 34.7686 17.5021 34.4762 17.5019H27.7612C27.469 17.5023 27.1888 17.6185 26.9823 17.8252C26.7757 18.0319 26.6595 18.3122 26.6594 18.6044V19.4188C26.4262 19.3742 26.186 19.3816 25.956 19.4405C25.7259 19.4995 25.5118 19.6085 25.3288 19.7598C25.1458 19.9111 24.9984 20.1009 24.8973 20.3158C24.7962 20.5306 24.7437 20.7651 24.7437 21.0025C24.7437 21.24 24.7962 21.4745 24.8973 21.6893C24.9984 21.9042 25.1458 22.094 25.3288 22.2453C25.5118 22.3966 25.7259 22.5056 25.956 22.5646C26.186 22.6235 26.4262 22.6309 26.6594 22.5863C26.6887 22.9244 26.5869 23.5825 26.7719 23.8788C26.5869 24.1563 26.6819 24.8538 26.6594 25.1713C26.4262 25.1267 26.186 25.1341 25.956 25.193C25.7259 25.252 25.5118 25.361 25.3288 25.5123C25.1458 25.6636 24.9984 25.8534 24.8973 26.0683C24.7962 26.2831 24.7437 26.5176 24.7437 26.755C24.7437 26.9925 24.7962 27.227 24.8973 27.4418C24.9984 27.6567 25.1458 27.8465 25.3288 27.9978C25.5118 28.1491 25.7259 28.2581 25.956 28.3171C26.186 28.376 26.4262 28.3834 26.6594 28.3388V29.1544C26.6602 29.3199 26.6987 29.4829 26.7719 29.6313C26.6986 29.7796 26.6601 29.9427 26.6594 30.1082V30.9238H26.3256C26.1042 30.928 25.8861 30.9781 25.6851 31.0711C25.4841 31.164 25.3046 31.2977 25.158 31.4637C25.0114 31.6297 24.9009 31.8244 24.8335 32.0353C24.7661 32.2463 24.7433 32.4689 24.7665 32.6891C24.7897 32.9094 24.8585 33.1224 24.9683 33.3146C25.0782 33.5069 25.2269 33.6742 25.4048 33.806C25.5828 33.9378 25.7862 34.0311 26.0022 34.0801C26.2182 34.1291 26.442 34.1327 26.6594 34.0907V34.9063C26.6597 35.1984 26.7759 35.4785 26.9825 35.6851C27.189 35.8916 27.4691 36.0078 27.7612 36.0082H29.6419C29.6477 36.3949 29.805 36.7639 30.0798 37.0359C30.3547 37.308 30.7253 37.4614 31.112 37.4633C31.4988 37.4652 31.8708 37.3154 32.1483 37.046C32.4258 36.7766 32.5866 36.4092 32.5962 36.0225L34.4762 36.0082C34.7685 36.008 35.0487 35.8919 35.2554 35.6853C35.4621 35.4787 35.5784 35.1985 35.5787 34.9063V34.0907C35.9143 34.1527 36.2609 34.1066 36.5686 33.959C36.8763 33.8114 37.1292 33.5699 37.2908 33.2693C37.4524 32.9688 37.5145 32.6246 37.4679 32.2866C37.4214 31.9485 37.2687 31.6339 37.0319 31.3882L37.0312 31.3875ZM26.325 21.3369C26.2365 21.3369 26.1516 21.3018 26.089 21.2392C26.0264 21.1766 25.9912 21.0917 25.9912 21.0032C25.9912 20.9147 26.0264 20.8298 26.089 20.7672C26.1516 20.7046 26.2365 20.6694 26.325 20.6694C26.8812 20.6332 27.8756 20.8882 27.9094 20.0444V18.7525H34.3281V20.0444C34.3281 20.2102 34.394 20.3692 34.5112 20.4864C34.6284 20.6036 34.7874 20.6694 34.9531 20.6694H35.9125C36.001 20.6694 36.0859 20.7046 36.1485 20.7672C36.2111 20.8298 36.2463 20.9147 36.2463 21.0032C36.2463 21.0917 36.2111 21.1766 36.1485 21.2392C36.0859 21.3018 36.001 21.3369 35.9125 21.3369C35.3562 21.3744 34.3625 21.1182 34.3287 21.9619V23.2544H31.9712C31.8055 23.2544 31.6465 23.3203 31.5293 23.4375C31.4121 23.5547 31.3462 23.7137 31.3462 23.8794V24.5188C31.3432 24.577 31.3179 24.6318 31.2757 24.6719C31.2334 24.712 31.1773 24.7344 31.1191 24.7344C31.0608 24.7344 31.0047 24.712 30.9625 24.6719C30.9202 24.6318 30.8949 24.577 30.8919 24.5188V23.8794C30.8919 23.7137 30.826 23.5547 30.7088 23.4375C30.5916 23.3203 30.4326 23.2544 30.2669 23.2544H27.9094V21.9619C27.9094 21.7962 27.8435 21.6372 27.7263 21.52C27.6091 21.4028 27.4501 21.3369 27.2844 21.3369H26.325ZM26.325 27.0894C26.2365 27.0894 26.1516 27.0543 26.089 26.9917C26.0264 26.9291 25.9912 26.8442 25.9912 26.7557C25.9912 26.6672 26.0264 26.5823 26.089 26.5197C26.1516 26.4571 26.2365 26.4219 26.325 26.4219C26.8812 26.3857 27.8756 26.6407 27.9094 25.7969V24.5044H29.6419C29.637 24.7009 29.6713 24.8963 29.7429 25.0793C29.8145 25.2624 29.9219 25.4292 30.0588 25.5702C30.1956 25.7113 30.3593 25.8235 30.5401 25.9005C30.7209 25.9775 30.9152 26.0177 31.1117 26.0186C31.3082 26.0196 31.503 25.9813 31.6845 25.9061C31.8661 25.8309 32.0308 25.7202 32.169 25.5805C32.3073 25.4409 32.4162 25.275 32.4896 25.0927C32.563 24.9104 32.5992 24.7153 32.5962 24.5188L34.3287 24.5057V25.7969C34.3287 25.9627 34.3946 26.1217 34.5118 26.2389C34.629 26.3561 34.788 26.4219 34.9537 26.4219H35.9125C35.9563 26.4216 35.9998 26.4302 36.0403 26.447C36.0808 26.4639 36.1174 26.4887 36.1481 26.52C36.1929 26.5674 36.2231 26.6266 36.2349 26.6907C36.2467 26.7548 36.2398 26.8209 36.2149 26.8811C36.19 26.9413 36.1481 26.993 36.0945 27.03C36.0408 27.0669 35.9776 27.0876 35.9125 27.0894H34.9537C34.788 27.0894 34.629 27.1553 34.5118 27.2725C34.3946 27.3897 34.3287 27.5487 34.3287 27.7144V29.0075H31.9712C31.8055 29.0075 31.6465 29.0734 31.5293 29.1906C31.4121 29.3078 31.3462 29.4668 31.3462 29.6325V30.2713C31.3463 30.3316 31.3223 30.3895 31.2796 30.4322C31.237 30.4748 31.1791 30.4988 31.1188 30.4988C31.0584 30.4988 31.0005 30.4748 30.9579 30.4322C30.9152 30.3895 30.8912 30.3316 30.8912 30.2713V29.6313C30.8912 29.4655 30.8254 29.3066 30.7082 29.1894C30.591 29.0721 30.432 29.0063 30.2662 29.0063H27.9094V27.7138C27.9094 27.548 27.8435 27.3891 27.7263 27.2719C27.6091 27.1546 27.4501 27.0888 27.2844 27.0888L26.325 27.0894ZM35.9125 32.8413H34.9537C34.788 32.8413 34.629 32.9071 34.5118 33.0244C34.3946 33.1416 34.3287 33.3005 34.3287 33.4663V34.7588H31.9712C31.8055 34.7588 31.6465 34.8246 31.5293 34.9419C31.4121 35.0591 31.3462 35.218 31.3462 35.3838V36.0232C31.3463 36.0835 31.3223 36.1414 31.2796 36.184C31.237 36.2267 31.1791 36.2507 31.1188 36.2507C31.0584 36.2507 31.0005 36.2267 30.9579 36.184C30.9152 36.1414 30.8912 36.0835 30.8912 36.0232V35.3838C30.8912 35.218 30.8254 35.0591 30.7082 34.9419C30.591 34.8246 30.432 34.7588 30.2662 34.7588H27.9094V33.4663C27.9094 33.3005 27.8435 33.1416 27.7263 33.0244C27.6091 32.9071 27.4501 32.8413 27.2844 32.8413H26.325C26.2365 32.8413 26.1516 32.8061 26.089 32.7435C26.0264 32.681 25.9912 32.5961 25.9912 32.5075C25.9912 32.419 26.0264 32.3341 26.089 32.2715C26.1516 32.209 26.2365 32.1738 26.325 32.1738H27.2837C27.4495 32.1738 27.6085 32.108 27.7257 31.9907C27.8429 31.8735 27.9087 31.7146 27.9087 31.5488V30.2563H29.6412C29.6364 30.4527 29.6707 30.6482 29.7423 30.8312C29.8139 31.0142 29.9213 31.1811 30.0581 31.3221C30.195 31.4631 30.3586 31.5754 30.5394 31.6524C30.7202 31.7294 30.9146 31.7695 31.1111 31.7705C31.3076 31.7714 31.5023 31.7332 31.6839 31.658C31.8654 31.5827 32.0301 31.4721 32.1684 31.3324C32.3066 31.1927 32.4156 31.0269 32.489 30.8446C32.5623 30.6623 32.5986 30.4672 32.5956 30.2707L34.3281 30.2575V31.5482C34.3281 31.7139 34.394 31.8729 34.5112 31.9901C34.6284 32.1073 34.7874 32.1732 34.9531 32.1732H35.9119C36.0005 32.1732 36.0854 32.2084 36.1481 32.271C36.2107 32.3337 36.2459 32.4186 36.2459 32.5072C36.2459 32.5958 36.2107 32.6808 36.1481 32.7435C36.0854 32.8061 36.0011 32.8413 35.9125 32.8413Z" fill="#134CB3"/>
</g>
</g>
</svg>
