<svg width="20" height="18" viewBox="0 0 20 18" fill="none" xmlns="http://www.w3.org/2000/svg">
<path d="M18.752 13.443C20.6847 10.7314 20.3893 7.01637 17.7495 4.59641C16.5434 3.49074 15.0057 2.80242 13.3448 2.6102C13.3344 2.59727 13.3236 2.58479 13.3122 2.57277C11.8673 1.0718 9.79133 0.210938 7.61672 0.210938C3.47848 0.210938 0 3.29426 0 7.24219C0 8.62637 0.429961 9.95328 1.24672 11.0993L0.105742 14.6815C0.0706615 14.7916 0.0689221 14.9096 0.100743 15.0207C0.132563 15.1318 0.196522 15.231 0.284576 15.3058C0.37263 15.3807 0.480845 15.4278 0.595611 15.4413C0.710377 15.4548 0.826568 15.434 0.92957 15.3816L4.39937 13.6173C5.11195 13.9241 5.86758 14.1255 6.65008 14.2171C8.15953 15.8044 10.2467 16.6172 12.382 16.6172C13.492 16.6172 14.598 16.391 15.5992 15.961L19.0692 17.7254C19.1514 17.7673 19.2424 17.7891 19.3346 17.7891C19.73 17.7891 20.0135 17.4037 19.893 17.0253L18.752 13.443ZM4.63586 12.4383C4.5549 12.3999 4.46621 12.3805 4.37659 12.3817C4.28697 12.3829 4.19883 12.4047 4.11895 12.4453L1.64758 13.702L2.45461 11.1681C2.48356 11.0773 2.48989 10.9807 2.47305 10.8869C2.45622 10.793 2.41673 10.7047 2.35801 10.6295C1.58199 9.63617 1.1718 8.46488 1.1718 7.24219C1.1718 4.01133 4.06297 1.38281 7.61672 1.38281C9.04781 1.38281 10.4255 1.81637 11.543 2.59711C7.77945 2.97555 4.76531 5.91516 4.76531 9.58594C4.76531 10.7277 5.05797 11.8268 5.60973 12.8116C5.276 12.7123 4.95042 12.5876 4.63586 12.4383ZM15.8798 14.789C15.7999 14.7484 15.7118 14.7267 15.6222 14.7254C15.5325 14.7242 15.4438 14.7436 15.3629 14.7821C14.4494 15.216 13.4187 15.4453 12.382 15.4453C8.82828 15.4453 5.93711 12.8168 5.93711 9.58594C5.93711 6.35508 8.82828 3.72656 12.382 3.72656C15.9358 3.72656 18.827 6.35508 18.827 9.58594C18.827 10.8086 18.4168 11.9799 17.6407 12.9732C17.582 13.0484 17.5425 13.1367 17.5257 13.2306C17.5089 13.3244 17.5152 13.421 17.5441 13.5118L18.3511 16.0457L15.8798 14.789Z" fill="#134CB3"/>
</svg>
