<svg width="60" height="60" viewBox="0 0 60 60" fill="none" xmlns="http://www.w3.org/2000/svg">
<g clip-path="url(#clip0_493_100)">
<path d="M34.4536 55.566L36.0462 54.8242L36.788 56.4168L35.1954 57.1586L34.4536 55.566Z" fill="white"/>
<path d="M55.8086 38.4647L51.9227 37.1557L51.3634 36.1718C51.889 35.8479 52.3886 35.4532 52.85 34.9903C54.1625 33.6738 54.9461 32.0112 54.9461 30.5425V26.2739C54.9461 22.8457 52.157 20.0566 48.7288 20.0566H46.8806C43.4524 20.0566 40.6634 22.8457 40.6634 26.2739V30.5425C40.6634 32.0111 41.447 33.6738 42.7595 34.9903C43.221 35.4532 43.7205 35.8479 44.2461 36.1718L43.6867 37.1558L39.801 38.4648C37.6086 39.2033 36.2531 40.0566 35.792 42.1143L34.118 41.5504L33.5586 40.5664C34.0842 40.2425 34.5838 39.8479 35.0453 39.385C36.3578 38.0685 37.1413 36.4058 37.1413 34.9371V30.6686C37.1413 27.2404 34.3522 24.4513 30.924 24.4513H29.076C25.6478 24.4513 22.8587 27.2404 22.8587 30.6686V34.9371C22.8587 36.4057 23.6423 38.0685 24.9547 39.385C25.4162 39.8479 25.9158 40.2427 26.4414 40.5664L25.882 41.5504L24.2122 42.1129C24.0353 41.3009 23.7188 40.6717 23.2314 40.1461C22.5998 39.4648 21.7213 38.9777 20.199 38.4649L16.3133 37.1559L15.7539 36.172C16.2795 35.8482 16.779 35.4534 17.2405 34.9905C18.553 33.6741 19.3365 32.0114 19.3365 30.5427V26.2741C19.3365 22.8459 16.5475 20.0569 13.1193 20.0569H11.2711C7.84289 20.0569 5.05383 22.8459 5.05383 26.2741V30.5427C5.05383 32.0113 5.83746 33.6741 7.14984 34.9905C7.61133 35.4534 8.1109 35.8481 8.63648 36.172L8.07715 37.1559L4.19145 38.4649C0.979219 39.5468 0 40.8649 0 44.1067V46.8915L12.2 52.5769L17.8049 49.8959V53.9227L30 59.6058L33.6394 57.9097L32.8969 56.3164L30.8789 57.2569V49.519L33.9636 43.353L37.4427 44.525C39.9615 45.3736 40.4373 46.0052 40.4373 48.5012V52.8026L37.6768 54.0891L38.4193 55.6823L42.1951 53.9228V49.896L47.8 52.577L60 46.8916V44.1068C59.9999 40.8649 59.0207 39.5468 55.8086 38.4647ZM42.4213 27.0381L47.8049 26.2826L53.1884 27.0381V30.1764L47.805 28.6646L42.4214 30.1758V27.0381H42.4213ZM46.8807 21.8145H48.7289C50.8341 21.8145 52.602 23.2812 53.0675 25.2461L47.805 24.5075L42.5423 25.2461C43.0077 23.2812 44.7756 21.8145 46.8807 21.8145ZM42.7433 31.9111L47.8048 30.4904L52.9058 31.9229C52.0709 33.9646 49.5551 35.4578 47.8048 35.4578C45.4779 35.4578 43.4946 33.6343 42.7433 31.9111ZM47.8048 37.2156C48.4662 37.2156 49.1231 37.1102 49.7605 36.9091L50.2658 37.7979L47.8048 40.8735L45.3437 37.7979L45.849 36.9091C46.4864 37.1101 47.1434 37.2156 47.8048 37.2156ZM24.6165 31.4326L30 30.6771L35.3835 31.4326V34.5789L30.0006 33.0589L24.6165 34.5702V31.4326ZM29.076 26.2089H30.924C33.0292 26.2089 34.7971 27.6756 35.2627 29.6405L30 28.902L24.7375 29.6405C25.2029 27.6757 26.9708 26.2089 29.076 26.2089ZM24.9386 36.3056L29.9993 34.8851L35.098 36.3248C34.26 38.3627 31.7481 39.8523 30 39.8523C27.6731 39.8522 25.6898 38.0287 24.9386 36.3056ZM30 41.61C30.6614 41.61 31.3184 41.5046 31.9557 41.3036L32.5236 42.3026L30 47.3469L27.4764 42.3025L28.0443 41.3034C28.6816 41.5046 29.3386 41.61 30 41.61ZM6.81152 27.0381L12.1951 26.2826L17.5786 27.0381V30.1617L12.1939 28.665L6.81152 30.1758V27.0381ZM11.2711 21.8145H13.1193C15.2244 21.8145 16.9923 23.2812 17.4579 25.2461L12.1954 24.5075L6.9327 25.2461C7.39793 23.2812 9.16582 21.8145 11.2711 21.8145ZM7.13367 31.9111L12.1963 30.4901L17.3016 31.9092C16.4723 33.9579 13.9493 35.4578 12.1951 35.4578C9.86824 35.4578 7.88496 33.6343 7.13367 31.9111ZM12.1951 37.2156C12.8564 37.2156 13.5135 37.1102 14.1509 36.9091L14.6562 37.7979L12.1951 40.8735L9.73406 37.7979L10.2394 36.9091C10.8768 37.1101 11.5337 37.2156 12.1951 37.2156ZM1.75781 44.1067C1.75781 41.6107 2.23359 40.9791 4.75254 40.1305L8.3734 38.9108L11.3163 42.5885V50.2256L1.75781 45.7713V44.1067ZM17.8158 47.9421L13.074 50.2102V42.5885L16.017 38.9108L19.6378 40.1306C21.6285 40.8012 22.3091 41.3428 22.5347 42.6779L21.9962 42.8593C18.9756 43.8768 17.9298 45.1037 17.8158 47.9421ZM19.5627 48.5012C19.5627 46.0053 20.0385 45.3736 22.5573 44.525L26.0364 43.353L29.1211 49.5189V57.2569L19.5627 52.8026V48.5012ZM38.0038 42.8592L37.4653 42.6778C37.6909 41.3427 38.3715 40.8011 40.3622 40.1305L43.983 38.9107L46.926 42.5884V50.21L42.1842 47.942C42.0701 45.1036 41.0243 43.8768 38.0038 42.8592ZM58.2421 45.7713L48.6837 50.2256V42.5885L51.6266 38.9108L55.2475 40.1306C57.7663 40.9792 58.2421 41.6108 58.2421 44.1068V45.7713Z" fill="white"/>
<path d="M36.0428 46.7436H37.8006V48.5014H36.0428V46.7436ZM35.2734 3.90967H37.0312V5.66748H35.2734V3.90967Z" fill="white"/>
<path d="M22.0898 21.4876H37.9102C39.364 21.4876 40.5469 20.3048 40.5469 18.8508V3.03076C40.5469 1.57682 39.3641 0.394043 37.9102 0.394043H22.0898C20.6359 0.394043 19.4531 1.57693 19.4531 3.03076V4.78857H21.2109V3.03076C21.2109 2.54607 21.6053 2.15186 22.0898 2.15186H37.9102C38.3947 2.15186 38.7891 2.54619 38.7891 3.03076V18.851C38.7891 19.3355 38.3948 19.7299 37.9102 19.7299H22.0898C21.6053 19.7299 21.2109 19.3355 21.2109 18.851V6.54627H19.4531V18.8508C19.4531 20.3048 20.6359 21.4876 22.0898 21.4876Z" fill="white"/>
<path d="M27.3633 5.66748V8.3042H24.7266V13.5776H27.3633V16.2144H32.6367V13.5776H35.2734V8.3042H32.6367V5.66748H27.3633ZM33.5156 10.062V11.8198H30.8789V14.4565H29.1211V11.8198H26.4844V10.062H29.1211V7.42529H30.8789V10.062H33.5156Z" fill="white"/>
</g>
<defs>
<clipPath id="clip0_493_100">
<rect width="60" height="60" fill="white"/>
</clipPath>
</defs>
</svg>
