<svg width="60" height="60" viewBox="0 0 60 60" fill="none" xmlns="http://www.w3.org/2000/svg">
<g clip-path="url(#clip0_443_256)">
<path d="M15.3546 28.6701C15.3428 28.9247 15.2304 29.1642 15.042 29.3358C14.8536 29.5075 14.6047 29.5973 14.3501 29.5855C14.0955 29.5737 13.856 29.4612 13.6843 29.2729C13.5127 29.0845 13.4228 28.8356 13.4346 28.581C13.4397 28.4543 13.4697 28.3299 13.523 28.2149C13.5763 28.0999 13.6518 27.9966 13.7452 27.9109C13.8386 27.8252 13.948 27.7588 14.0672 27.7155C14.1863 27.6723 14.3129 27.6531 14.4395 27.6589C14.5661 27.6648 14.6903 27.6957 14.805 27.7498C14.9196 27.8038 15.0224 27.8801 15.1075 27.9741C15.1925 28.068 15.2582 28.1779 15.3006 28.2974C15.343 28.4168 15.3614 28.5435 15.3546 28.6701ZM55.055 43.5356C54.8011 44.1109 54.3398 44.5525 53.7559 44.7788L50.8721 45.8969C50.6021 46.0018 50.3149 46.0557 50.0253 46.0558C49.0831 46.0558 48.192 45.4851 47.8314 44.5552L47.6268 44.0275L45.4912 44.9186C45.5821 45.5804 45.4637 46.2618 45.1362 46.8573C44.7327 47.591 44.0676 48.1249 43.261 48.3634C43.4823 49.1367 43.4125 49.9913 42.9985 50.7437C42.3796 51.8692 41.1699 52.4679 39.9651 52.3667C39.9753 52.9111 39.8424 53.4487 39.5796 53.9256C39.1729 54.6653 38.4998 55.202 37.6843 55.4367C37.2355 55.567 36.7634 55.5957 36.3021 55.5208C36.2925 56.0277 36.1596 56.5247 35.9148 56.9688C35.5078 57.7087 34.806 58.2644 33.9892 58.4933C33.712 58.5715 33.4253 58.6112 33.1373 58.6116C32.6027 58.6118 32.0775 58.4713 31.6144 58.2044L30.9176 57.8042C30.5114 58.3347 29.9505 58.7251 29.2957 58.9235C28.9902 59.0166 28.6725 59.064 28.3531 59.0643C27.8311 59.0643 27.3148 58.9362 26.8429 58.6839C26.1997 58.3408 25.6923 57.7891 25.4041 57.1194C24.5571 57.4405 23.5846 57.4046 22.7391 56.9523C22.1647 56.6447 21.6975 56.1696 21.3994 55.5903C20.4992 56.0312 19.4092 56.0492 18.4625 55.5428C17.706 55.1381 17.1516 54.4609 16.9015 53.6358C16.7754 53.2225 16.7335 52.7881 16.7784 52.3583C16.2752 52.3473 15.7817 52.2179 15.3379 51.9806C14.5814 51.576 14.027 50.8988 13.7771 50.0735C13.5269 49.2483 13.6121 48.3772 14.0166 47.6208L14.765 46.2215C14.6023 45.8138 14.5187 45.3765 14.4392 44.9487C14.3025 44.2146 14.1913 43.725 13.9 43.6119C13.7649 43.5594 13.4503 43.4288 12.3318 42.9308L12.0714 43.5199C11.6835 44.3971 10.821 44.9199 9.91855 44.9199C9.60156 44.9199 9.27988 44.8554 8.97191 44.7194L6.14277 43.469C5.57007 43.2158 5.12957 42.7535 4.90269 42.167C4.67582 41.5805 4.69023 40.9422 4.94336 40.3695L11.4388 25.6735C11.6919 25.1008 12.1543 24.6604 12.7408 24.4334C13.3271 24.2064 13.9654 24.2208 14.5383 24.474L17.3675 25.7244C18.5526 26.2481 19.0907 27.6386 18.5669 28.8238L18.1301 29.8119L19.8583 30.6092C19.881 30.6197 19.9034 30.6312 19.9253 30.6434C20.8942 31.1887 21.9297 30.9458 23.2405 30.6386C24.9947 30.2274 27.1499 29.7228 29.6712 31.1758C33.1561 29.054 35.8319 30.1447 37.8098 30.9532C39.2393 31.5375 40.0886 31.8469 40.9193 31.4148L42.4246 30.609L42.0232 29.5737C41.555 28.3654 42.1569 27.0014 43.3648 26.533L46.2489 25.4151C46.8327 25.1887 47.4712 25.204 48.0463 25.4577C48.6216 25.7117 49.0632 26.1729 49.2894 26.7566L55.0973 41.7378C55.324 42.3219 55.3089 42.9603 55.055 43.5356ZM10.3568 42.762L16.8522 28.066C16.9205 27.9113 16.8858 27.7723 16.8592 27.703C16.8324 27.6339 16.7644 27.5077 16.6098 27.4394L13.7806 26.189C13.7216 26.1627 13.6577 26.1491 13.5931 26.1491C13.5187 26.1491 13.4569 26.1668 13.4178 26.1821C13.3486 26.2089 13.2224 26.2767 13.1541 26.4314L6.65875 41.1274C6.59031 41.2821 6.625 41.4212 6.65172 41.4904C6.67843 41.5595 6.7464 41.6857 6.90109 41.754L9.73035 43.0044C9.96566 43.1086 10.2527 42.9974 10.3568 42.762ZM17.6663 50.2143L19.5014 47.0385C19.7764 46.3989 19.5174 45.6491 18.9013 45.3203C18.246 44.9705 17.4282 45.2179 17.0784 45.8721L15.6701 48.5051C15.5016 48.82 15.4667 49.1838 15.5714 49.5298C15.6763 49.8757 15.9074 50.159 16.2223 50.3274C16.6851 50.5747 17.2497 50.526 17.6663 50.2143ZM21.1743 53.3278L23.2121 49.3814C23.3154 48.8126 23.0372 48.2207 22.5259 47.9478C22.0592 47.6985 21.4903 47.7494 21.0729 48.0667L18.795 52.0672C18.6265 52.3822 18.5916 52.746 18.6964 53.0919C18.8012 53.4379 19.0323 53.7211 19.3472 53.8895C20.0014 54.2394 20.8207 53.9874 21.1743 53.3278ZM25.3213 54.9356L27.1236 51.472C27.2262 50.9036 26.948 50.3124 26.4371 50.0397C25.9281 49.768 25.2866 49.861 24.8716 50.2542L22.9159 54.0415C22.8905 54.5591 23.1631 55.0527 23.6235 55.299C24.2019 55.6083 24.9218 55.4506 25.3213 54.9356ZM29.5497 56.4782L30.8998 53.9533C31.1427 53.499 31.1004 52.9346 30.792 52.515C30.6747 52.3553 30.523 52.2242 30.348 52.1313C29.8389 51.8594 29.1969 51.9529 28.7818 52.3473L27.0228 55.728C26.9805 56.2565 27.2578 56.7792 27.7274 57.0305C28.3821 57.3806 29.1995 57.1327 29.5497 56.4782ZM33.7639 54.3182C33.7175 54.2922 32.8922 53.8096 32.8922 53.8096C32.8387 54.1646 32.727 54.5127 32.5532 54.8376L31.8399 56.1714L32.5484 56.5784C32.8287 56.7393 33.1607 56.7782 33.4833 56.6878C33.8186 56.5938 34.106 56.3669 34.272 56.0652C34.611 55.4489 34.3831 54.6653 33.7639 54.3182ZM31.7578 48.0738C31.65 48.0138 31.555 47.933 31.4785 47.8361C31.4019 47.7393 31.3452 47.6283 31.3117 47.5094C31.2781 47.3906 31.2684 47.2663 31.283 47.1437C31.2976 47.0211 31.3363 46.9026 31.3969 46.795C31.4574 46.6874 31.5386 46.5928 31.6358 46.5167C31.733 46.4406 31.8443 46.3844 31.9633 46.3514C32.0823 46.3184 32.2066 46.3092 32.3291 46.3244C32.4516 46.3395 32.57 46.3788 32.6773 46.4398L39.6175 50.3449C40.2359 50.6849 41.0158 50.4584 41.3557 49.84C41.6927 49.2276 41.4627 48.4456 40.843 48.0967C39.216 47.1854 37.3721 46.1527 35.558 45.1142C35.3446 44.9894 35.189 44.7855 35.1252 44.5467C35.0615 44.3078 35.0946 44.0535 35.2174 43.8389C35.3402 43.6244 35.5428 43.4671 35.781 43.4012C36.0193 43.3352 36.2739 43.3661 36.4895 43.487C38.2967 44.5217 40.1372 45.5524 41.761 46.4619L41.7613 46.4622C42.0514 46.6244 42.391 46.6622 42.7177 46.5688C43.0524 46.4731 43.3278 46.2546 43.4932 45.9538C43.6928 45.591 43.7012 45.1648 43.5166 44.7842C43.3989 44.5418 43.2105 44.3409 42.9762 44.208L35.306 39.8362C34.0566 39.1242 32.4563 39.7723 30.6027 40.5225C27.778 41.6659 24.2632 43.0888 21.2383 39.1963C21.0229 38.9193 20.9407 38.5767 21.0067 38.2319C21.0728 37.8863 21.2768 37.5979 21.5809 37.4201C23.735 36.1629 25.553 34.7918 26.9852 33.3444C27.2998 33.0262 27.6269 32.7206 27.9658 32.4283C26.4205 31.8204 25.0756 32.1346 23.6686 32.4644C22.1764 32.8142 20.6338 33.1759 19.0407 32.2969L17.3723 31.5272L13.09 41.2159C14.086 41.6592 14.4545 41.8159 14.5787 41.8641C15.6305 42.2724 15.9835 43.2126 16.1734 44.059C17.1525 43.225 18.5825 43.0248 19.7841 43.6661C20.6855 44.1471 21.2691 45.0045 21.4366 45.9478C22.1139 45.8504 22.8047 45.9715 23.4086 46.2935C24.1376 46.6814 24.6891 47.3354 24.9483 48.1195C25.7437 47.9007 26.5927 47.9959 27.3198 48.3855C28.0489 48.7733 28.6003 49.4272 28.8596 50.2112C29.6551 49.9923 30.5043 50.0877 31.2316 50.4775C31.5973 50.672 31.9215 50.9362 32.1858 51.2551L36.2021 53.5286C36.4952 53.6916 36.8375 53.7293 37.1657 53.6347C37.4983 53.539 37.7721 53.3213 37.9369 53.0217C38.2739 52.4092 38.0439 51.6272 37.4243 51.2786M46.949 42.2787L43.1078 32.3705L41.7947 33.0733C40.1427 33.9324 38.5963 33.3004 37.1007 32.689C35.144 31.8891 33.1203 31.0617 30.2131 33.056C29.5886 33.4827 28.9514 34.0231 28.3182 34.663C26.929 36.0668 25.2169 37.3968 23.2212 38.623C25.2358 40.6721 27.4108 39.7917 29.8993 38.7843C32.0116 37.929 34.1958 37.0449 36.2345 38.2069L43.9049 42.5787C44.2022 42.7478 44.4705 42.9632 44.6998 43.2169L46.949 42.2787ZM53.3495 42.4159L47.5417 27.4347C47.4807 27.2769 47.3577 27.2032 47.2899 27.1733C47.2284 27.1462 47.162 27.1321 47.0948 27.1319C47.0374 27.1319 46.9806 27.1426 46.9272 27.1635L44.0431 28.2815C43.803 28.3745 43.6789 28.6561 43.7719 28.8963L49.5798 43.8774C49.6728 44.1174 49.954 44.2415 50.1945 44.1485L53.0784 43.0304C53.2361 42.9693 53.3098 42.8465 53.3397 42.7786C53.3694 42.7109 53.4106 42.5735 53.3495 42.4159ZM46.2009 28.608C45.67 28.608 45.2398 29.0383 45.2398 29.569C45.2398 29.8239 45.3411 30.0683 45.5213 30.2486C45.7015 30.4288 45.946 30.5301 46.2009 30.5301C46.4557 30.5301 46.7002 30.4288 46.8804 30.2486C47.0607 30.0683 47.1619 29.8239 47.1619 29.569C47.1619 29.3141 47.0607 29.0697 46.8804 28.8894C46.7002 28.7092 46.4557 28.608 46.2009 28.608ZM47.3928 22.5245C47.4067 22.6553 47.393 22.7875 47.3525 22.9126C47.312 23.0378 47.2457 23.153 47.1578 23.2508C47.0699 23.3486 46.9624 23.4269 46.8423 23.4805C46.7222 23.534 46.5922 23.5618 46.4607 23.5619H37.4884C37.5053 23.6726 37.5202 23.7839 37.5323 23.8963C37.5462 24.0271 37.5325 24.1593 37.492 24.2844C37.4515 24.4096 37.3852 24.5248 37.2973 24.6226C37.2094 24.7204 37.1019 24.7987 36.9818 24.8522C36.8617 24.9058 36.7317 24.9336 36.6002 24.9337H23.3998C23.2683 24.9336 23.1382 24.906 23.0181 24.8524C22.898 24.7988 22.7905 24.7206 22.7026 24.6228C22.6147 24.525 22.5483 24.4097 22.5078 24.2846C22.4674 24.1595 22.4537 24.0272 22.4677 23.8964C22.4798 23.784 22.4946 23.6726 22.5114 23.5619H13.5393C13.4077 23.5619 13.2777 23.5343 13.1575 23.4807C13.0373 23.4272 12.9298 23.3489 12.8419 23.2511C12.754 23.1532 12.6876 23.038 12.6472 22.9128C12.6067 22.7876 12.5931 22.6553 12.6072 22.5245C12.8568 20.1921 14.3065 18.2635 16.3052 17.319C15.7034 16.6512 15.3365 15.7678 15.3365 14.8002C15.3365 12.7229 17.0264 11.0331 19.1036 11.0331C21.1807 11.0331 22.8707 12.7231 22.8707 14.8002C22.8707 15.7713 22.5012 16.6578 21.8956 17.3264C22.9257 17.8164 23.8213 18.57 24.4782 19.5151C25.1828 18.7666 26.0325 18.1695 26.9755 17.7603C26.1921 16.982 25.7062 15.9046 25.7062 14.7157C25.7062 12.3481 27.6324 10.4217 30 10.4217C32.3677 10.4217 34.294 12.3481 34.294 14.7157C34.294 15.9047 33.808 16.982 33.0245 17.7604C33.9676 18.1696 34.8173 18.7667 35.5219 19.5153C36.1786 18.5701 37.0743 17.8165 38.1045 17.3265C37.4989 16.6579 37.1294 15.7715 37.1294 14.8003C37.1294 12.7231 38.8193 11.0332 40.8965 11.0332C42.9736 11.0332 44.6636 12.7232 44.6636 14.8003C44.6636 15.7679 44.2967 16.6512 43.6949 17.3192C45.6933 18.2633 47.1433 20.192 47.3928 22.5245ZM40.8964 16.6924C41.9397 16.6924 42.7885 15.8437 42.7885 14.8003C42.7885 13.757 41.9397 12.9082 40.8964 12.9082C39.853 12.9082 39.0043 13.757 39.0043 14.8003C39.0043 15.8437 39.853 16.6924 40.8964 16.6924ZM29.9999 17.1345C31.3337 17.1345 32.4189 16.0494 32.4189 14.7156C32.4189 13.3818 31.3337 12.2966 29.9999 12.2966C28.6662 12.2966 27.581 13.3818 27.581 14.7156C27.5812 16.0494 28.6663 17.1345 29.9999 17.1345ZM19.1036 16.6924C20.1469 16.6924 20.9957 15.8437 20.9957 14.8003C20.9957 13.757 20.1469 12.9082 19.1036 12.9082C18.0603 12.9082 17.2115 13.757 17.2115 14.8003C17.2115 15.8437 18.0603 16.6924 19.1036 16.6924ZM23.0502 21.6867C23.1239 21.5155 23.2039 21.3471 23.2901 21.1818C22.5157 19.6023 20.8841 18.5673 19.1036 18.5673C17.0798 18.5673 15.3405 19.8518 14.7032 21.6867H23.0502ZM35.4592 23.0585C34.7493 20.6902 32.5607 19.0095 29.9999 19.0095C27.439 19.0095 25.2504 20.6902 24.5406 23.0585H35.4592ZM45.2968 21.6867C44.6595 19.8518 42.9202 18.5673 40.8964 18.5673C39.1158 18.5673 37.4843 19.6023 36.7098 21.1819C36.796 21.3472 36.876 21.5156 36.9497 21.6867H45.2968ZM52.834 25.6471C52.834 25.8957 52.9328 26.1342 53.1086 26.31C53.2844 26.4858 53.5229 26.5846 53.7715 26.5846C54.0202 26.5846 54.2586 26.4858 54.4344 26.31C54.6102 26.1342 54.709 25.8957 54.709 25.6471C54.709 21.2776 53.5523 16.9829 51.3639 13.2272C51.2378 13.0143 51.0326 12.86 50.7931 12.7978C50.5536 12.7356 50.2992 12.7706 50.0854 12.8951C49.8716 13.0197 49.7157 13.2238 49.6518 13.4628C49.5878 13.7018 49.6209 13.9564 49.7439 14.1712C51.7655 17.6406 52.834 21.6089 52.834 25.6471ZM6.22843 26.5846C6.47707 26.5846 6.71553 26.4858 6.89135 26.31C7.06716 26.1342 7.16593 25.8957 7.16593 25.6471C7.16593 20.6364 8.78957 15.9985 11.5366 12.2289L11.6038 14.1026C11.6082 14.2256 11.6368 14.3466 11.688 14.4586C11.7392 14.5706 11.8119 14.6714 11.902 14.7552C11.9921 14.8391 12.0979 14.9044 12.2133 14.9474C12.3286 14.9904 12.4513 15.0103 12.5744 15.0059C12.6974 15.0015 12.8184 14.9729 12.9304 14.9217C13.0423 14.8705 13.1431 14.7978 13.227 14.7077C13.3109 14.6176 13.3762 14.5118 13.4192 14.3964C13.4622 14.2811 13.4821 14.1584 13.4777 14.0353L13.3347 10.0551C17.5042 5.60135 23.4321 2.81299 29.9999 2.81299C34.8334 2.81299 39.5467 4.35553 43.4329 7.18314L41.5443 7.251C41.2958 7.25992 41.061 7.36718 40.8916 7.54919C40.7222 7.73121 40.6321 7.97306 40.641 8.22154C40.6499 8.47003 40.7572 8.70479 40.9392 8.87419C41.1212 9.04359 41.3631 9.13374 41.6116 9.12482L45.9941 8.96744C46.1363 8.96236 46.2754 8.92499 46.401 8.85817C46.5266 8.79135 46.6353 8.69682 46.719 8.58176C46.8026 8.4667 46.859 8.33411 46.8838 8.19404C46.9086 8.05397 46.9012 7.91009 46.8621 7.7733L45.6589 3.55607C45.5906 3.31696 45.4302 3.11474 45.2129 2.9939C44.9956 2.87306 44.7392 2.8435 44.5001 2.91172C44.2609 2.97994 44.0587 3.14035 43.9379 3.35767C43.817 3.57499 43.7875 3.83141 43.8557 4.07053L44.2539 5.46611C40.1035 2.53455 35.114 0.937988 29.9999 0.937988C22.8557 0.937988 16.4111 3.98686 11.8957 8.85049L7.90879 9.98803C7.66969 10.0563 7.46749 10.2167 7.34667 10.434C7.22585 10.6513 7.19631 10.9077 7.26455 11.1468C7.33278 11.3859 7.49321 11.5881 7.71053 11.709C7.92784 11.8298 8.18426 11.8593 8.42336 11.7911L9.83019 11.3897C6.97246 15.4205 5.29093 20.341 5.29093 25.6471C5.29093 25.8957 5.38971 26.1342 5.56552 26.31C5.74134 26.4858 5.97979 26.5846 6.22843 26.5846Z" fill="white"/>
</g>
<defs>
<clipPath id="clip0_443_256">
<rect width="60" height="60" fill="white" transform="translate(0 0.000976562)"/>
</clipPath>
</defs>
</svg>
