<svg width="60" height="60" viewBox="0 0 60 60" fill="none" xmlns="http://www.w3.org/2000/svg">
<path d="M34.6875 52.9688C34.0406 52.9688 33.5156 53.4937 33.5156 54.1406C33.5156 54.7875 34.0406 55.3125 34.6875 55.3125C35.3344 55.3125 35.8594 54.7875 35.8594 54.1406C35.8594 53.4937 35.3344 52.9688 34.6875 52.9688Z" fill="white"/>
<path d="M51.0938 5.39062H47.5781V3.51562C47.5781 1.57711 46.001 0 44.0625 0L15.9375 0C13.999 0 12.4219 1.57711 12.4219 3.51562V5.39062H8.90625C6.96773 5.39062 5.39062 6.96773 5.39062 8.90625C5.39062 16.5301 8.95805 22.1329 14.7455 23.6927C16.7295 28.0597 19.8663 31.7721 23.8479 34.4546C24.765 35.0726 25.3125 36.1304 25.3125 37.2844V43.7413C24.5092 43.9473 23.7722 44.365 23.1702 44.9671C22.2846 45.8528 21.7969 47.0297 21.7969 48.2812H20.625C18.6865 48.2812 17.1094 49.8584 17.1094 51.7969V58.8281C17.1094 59.4754 17.6341 60 18.2812 60H41.7188C42.3659 60 42.8906 59.4754 42.8906 58.8281V51.7969C42.8906 49.8584 41.3135 48.2812 39.375 48.2812H38.2031C38.2031 46.1011 36.707 44.2637 34.6875 43.7421V37.2902C34.6875 36.1325 35.2354 35.0727 36.1533 34.4548C40.1352 31.772 43.2721 28.0595 45.2559 23.6924C51.0425 22.1319 54.6094 16.5295 54.6094 8.90625C54.6094 6.96773 53.0323 5.39062 51.0938 5.39062ZM7.73438 8.90625C7.73438 8.26008 8.26008 7.73438 8.90625 7.73438H12.4219V12.9727C12.4219 15.6439 12.8265 18.2598 13.6254 20.779C9.89613 18.9318 7.73438 14.6655 7.73438 8.90625ZM39.375 50.625C40.0212 50.625 40.5469 51.1507 40.5469 51.7969V57.6562H19.4531V51.7969C19.4531 51.1507 19.9788 50.625 20.625 50.625H39.375ZM45.2344 12.9727C45.2344 16.1737 44.5971 19.2886 43.3399 22.2305C41.5516 26.4161 38.6138 29.9709 34.8441 32.5107C33.2784 33.5646 32.3438 35.3514 32.3438 37.2902V44.7656C32.3438 45.4129 32.8685 45.9375 33.5156 45.9375C34.808 45.9375 35.8594 46.9889 35.8594 48.2812H24.1406C24.1406 47.6557 24.3846 47.0673 24.8275 46.6243C25.2486 46.2032 25.8014 45.962 26.3925 45.9393C26.4229 45.9416 26.4534 45.9428 26.4843 45.9428C27.1314 45.9428 27.6561 45.4129 27.6561 44.7656V37.2844C27.6561 35.3496 26.722 33.5652 25.1575 32.511C21.3874 29.9711 18.4495 26.4162 16.661 22.2302C15.4034 19.2894 14.7656 16.1747 14.7656 12.9727V3.51562C14.7656 2.86945 15.2913 2.34375 15.9375 2.34375L44.0625 2.34375C44.7087 2.34375 45.2344 2.86945 45.2344 3.51562V12.9727ZM46.3751 20.7787C47.1736 18.259 47.5781 15.6432 47.5781 12.9727V7.73438H51.0938C51.7399 7.73438 52.2656 8.26008 52.2656 8.90625C52.2656 14.6652 50.1041 18.9313 46.3751 20.7787Z" fill="white"/>
<path d="M39.2741 13.847C39.2066 13.6389 39.0822 13.454 38.915 13.313C38.7478 13.1721 38.5444 13.0807 38.328 13.0494L33.2707 12.3153L31.0086 7.73152C30.9118 7.5354 30.7621 7.37026 30.5764 7.25479C30.3907 7.13932 30.1763 7.07812 29.9576 7.07812C29.739 7.07812 29.5246 7.13932 29.3389 7.25479C29.1532 7.37026 29.0035 7.5354 28.9067 7.73152L26.6446 12.3153L21.5874 13.0494C21.371 13.0808 21.1677 13.1722 21.0005 13.3131C20.8334 13.4541 20.7089 13.639 20.6414 13.847C20.5738 14.055 20.5657 14.2777 20.6181 14.49C20.6705 14.7023 20.7813 14.8957 20.9378 15.0484L24.5981 18.6155L23.7342 23.6531C23.6972 23.8686 23.7213 24.0901 23.8037 24.2927C23.8861 24.4952 24.0235 24.6707 24.2004 24.7992C24.3773 24.9277 24.5867 25.0042 24.8048 25.02C25.0229 25.0357 25.241 24.9902 25.4346 24.8885L29.9578 22.5104L34.482 24.8885C34.6756 24.9902 34.8938 25.0358 35.1119 25.0201C35.33 25.0043 35.5393 24.9278 35.7162 24.7992C35.8931 24.6707 36.0305 24.4951 36.1129 24.2926C36.1952 24.09 36.2192 23.8684 36.1822 23.6528L35.3173 18.6154L38.9774 15.0484C39.1341 14.8957 39.2448 14.7023 39.2973 14.49C39.3497 14.2777 39.3416 14.0549 39.2741 13.847ZM33.2402 17.367C33.1041 17.4997 33.0023 17.6634 32.9436 17.8442C32.8849 18.025 32.871 18.2173 32.9032 18.4046L33.4705 21.7089L30.5029 20.1491C30.3347 20.0607 30.1476 20.0145 29.9576 20.0145C29.7676 20.0145 29.5805 20.0608 29.4124 20.1492L26.4458 21.7089L27.0125 18.4044C27.0446 18.2171 27.0307 18.0248 26.9719 17.8441C26.9132 17.6634 26.8114 17.4997 26.6753 17.367L24.2749 15.0275L27.5914 14.5461C27.7795 14.5188 27.9581 14.4462 28.1118 14.3345C28.2656 14.2228 28.3898 14.0754 28.4739 13.905L29.9578 10.898L31.4416 13.905C31.5257 14.0754 31.65 14.2228 31.8037 14.3345C31.9575 14.4462 32.1361 14.5188 32.3241 14.5461L35.6408 15.0275L33.2402 17.367ZM29.9999 52.9688H25.3124C24.6653 52.9688 24.1406 53.4935 24.1406 54.1407C24.1406 54.7879 24.6653 55.3126 25.3124 55.3126H29.9999C30.6471 55.3126 31.1718 54.7879 31.1718 54.1407C31.1718 53.4935 30.6471 52.9688 29.9999 52.9688ZM48.048 56.4844H48.7013C48.3685 56.4185 48.1447 56.4119 48.048 56.4844Z" fill="white"/>
</svg>
