<svg width="60" height="60" viewBox="0 0 60 60" fill="none" xmlns="http://www.w3.org/2000/svg">
<g clip-path="url(#clip0_443_263)">
<path d="M59.1458 15.7565H59.1455L59.1436 15.7545L55.2707 15.2019C55.0758 15.1741 54.8934 15.0892 54.7467 14.9577C54.6001 14.8263 54.4957 14.6543 54.4468 14.4636C54.3978 14.2728 54.4066 14.0718 54.4719 13.886C54.5373 13.7002 54.6562 13.538 54.8138 13.4198L57.9439 11.0722C58.1551 10.9138 58.2948 10.678 58.3321 10.4166C58.3694 10.1552 58.3014 9.88966 58.143 9.67843L54.5589 4.89963C54.4005 4.6884 54.1646 4.54875 53.9032 4.51141C53.6418 4.47406 53.3763 4.54209 53.1651 4.70052L50.036 7.0481C49.8785 7.16757 49.6891 7.23747 49.4918 7.24891C49.2945 7.26035 49.0982 7.21281 48.928 7.11233C48.7579 7.01186 48.6214 6.86301 48.5361 6.68473C48.4508 6.50646 48.4205 6.30682 48.449 6.11126L49.0026 2.23844C49.0211 2.10902 49.014 1.97722 48.9816 1.85054C48.9493 1.72387 48.8923 1.60482 48.8139 1.50018C48.7355 1.39554 48.6373 1.30736 48.5248 1.24068C48.4123 1.17401 48.2878 1.13013 48.1584 1.11157L48.1573 1.11144L42.2475 0.26719C42.1181 0.248605 41.9863 0.255693 41.8596 0.288051C41.7329 0.320408 41.6139 0.377401 41.5092 0.455774C41.4046 0.534148 41.3164 0.632368 41.2497 0.744825C41.183 0.857282 41.1391 0.981775 41.1205 1.11119V1.11144L40.567 4.98426C40.5392 5.17923 40.4542 5.36159 40.3228 5.50826C40.1914 5.65493 40.0194 5.75933 39.8286 5.80825C39.6379 5.85717 39.4369 5.84841 39.2511 5.78308C39.0653 5.71775 38.9031 5.59878 38.7849 5.44123L36.4383 2.31112C36.2799 2.09988 36.044 1.96023 35.7826 1.92289C35.5213 1.88555 35.2557 1.95358 35.0445 2.112L32.0528 4.35704C30.6993 4.21318 29.3343 4.21318 27.9808 4.35704C19.1169 5.37017 12.1659 12.4391 11.3019 21.3188C11.275 21.6005 11.265 21.8803 11.2511 22.16H10.9524C10.7232 22.1605 10.5012 22.2399 10.3238 22.385C10.1465 22.5301 10.0246 22.732 9.97872 22.9565L9.29077 26.228L6.535 24.3274C6.34332 24.1952 6.11134 24.1343 5.87942 24.1554C5.64749 24.1765 5.43031 24.2782 5.26564 24.4429L2.27889 27.4297C2.11447 27.5943 2.01289 27.8113 1.9918 28.043C1.9707 28.2747 2.03142 28.5064 2.1634 28.698L4.05501 31.4488L0.78253 32.1368C0.560395 32.1854 0.361614 32.3087 0.219247 32.486C0.0768809 32.6633 -0.000490178 32.884 2.33691e-06 33.1114V37.0938C-0.000100031 37.3223 0.0784061 37.5439 0.222344 37.7213C0.366281 37.8988 0.566889 38.0214 0.790495 38.0684L4.06297 38.7564L2.17137 41.5072C2.03938 41.6988 1.97866 41.9306 1.99976 42.1623C2.02086 42.394 2.12243 42.611 2.28685 42.7756L5.2736 45.7623C5.43827 45.927 5.65546 46.0287 5.88738 46.0498C6.1193 46.0709 6.35128 46.01 6.54297 45.8778L9.29376 43.9812L9.98171 47.2537C10.0275 47.4782 10.1494 47.6801 10.3268 47.8252C10.5042 47.9703 10.7262 48.0497 10.9554 48.0502H14.9377C15.1662 48.0503 15.3878 47.9718 15.5653 47.8278C15.7428 47.6839 15.8653 47.4833 15.9124 47.2597L16.6003 43.9872L19.3511 45.8788C19.5427 46.0108 19.7745 46.0715 20.0062 46.0504C20.2379 46.0293 20.4549 45.9277 20.6195 45.7633L22.1656 44.2122V47.0496C22.1678 47.7455 22.353 48.4286 22.7024 49.0304C23.0519 49.6322 23.5535 50.1316 24.1568 50.4784V56.0098C24.1568 58.2092 25.9398 59.9922 28.1391 59.9922H32.1215C34.3208 59.9922 36.1038 58.2092 36.1038 56.0098V50.4784C36.7071 50.1316 37.2087 49.6322 37.5582 49.0304C37.9076 48.4286 38.0928 47.7455 38.095 47.0496V43.1091C38.1083 42.2931 38.326 41.4936 38.7283 40.7836C39.1306 40.0736 39.7046 39.4758 40.3977 39.0451C41.224 38.5091 42.0075 37.9099 42.7413 37.2531L41.4132 35.7696C40.7568 36.358 40.0554 36.8943 39.3155 37.3735C38.3427 37.9841 37.5388 38.8292 36.9776 39.8314C36.4165 40.8335 36.116 41.9606 36.1038 43.1091V47.0496C36.1038 48.1493 35.2124 49.0408 34.1126 49.0408H26.148C25.0482 49.0408 24.1568 48.1493 24.1568 47.0496V43.0264C24.1455 41.8998 23.8501 40.7943 23.2981 39.8121C22.7461 38.8299 21.9553 38.0028 20.9988 37.4074C13.108 32.4491 10.7305 22.033 15.6888 14.1421C17.2023 11.7333 19.3004 9.74623 21.7878 8.36566C24.2753 6.98509 27.0714 6.25583 29.9163 6.24566C29.9014 6.28112 29.8884 6.31734 29.8774 6.35418C29.8405 6.61557 29.9089 6.88093 30.0676 7.09191L32.4142 10.221C32.535 10.3774 32.6054 10.5669 32.6161 10.7643C32.6268 10.9616 32.5772 11.1576 32.4739 11.3261C32.3744 11.4959 32.2265 11.6321 32.0492 11.7174C31.8718 11.8027 31.6731 11.8332 31.4783 11.805L27.6055 11.2514C27.4761 11.2329 27.3443 11.24 27.2176 11.2724C27.0909 11.3047 26.9719 11.3617 26.8672 11.4401C26.7626 11.5185 26.6744 11.6167 26.6077 11.7292C26.5411 11.8417 26.4972 11.9662 26.4786 12.0956L26.4785 12.0967L25.6333 18.0095C25.5958 18.2708 25.6637 18.5364 25.822 18.7477C25.9803 18.959 26.216 19.0988 26.4774 19.1363L26.4785 19.1365L30.3513 19.69C30.5463 19.7178 30.7287 19.8027 30.8753 19.9342C31.022 20.0656 31.1264 20.2376 31.1753 20.4283C31.2242 20.6191 31.2155 20.8201 31.1501 21.0059C31.0848 21.1917 30.9658 21.3539 30.8083 21.4721L27.6792 23.8187C27.4679 23.9771 27.3283 24.213 27.291 24.4743C27.2536 24.7357 27.3216 25.0013 27.4801 25.2125L31.0642 29.9913C31.2226 30.2025 31.4584 30.3422 31.7198 30.3795C31.9812 30.4169 32.2467 30.3488 32.458 30.1904L35.5881 27.8438C35.7456 27.726 35.9345 27.6575 36.1309 27.647C36.3273 27.6364 36.5224 27.6843 36.6916 27.7845C36.8608 27.8847 36.9966 28.0328 37.0817 28.2101C37.1669 28.3874 37.1976 28.5859 37.1701 28.7807L36.6175 32.6535C36.5989 32.7829 36.606 32.9147 36.6384 33.0414C36.6707 33.1681 36.7277 33.2871 36.8061 33.3918C36.8845 33.4964 36.9827 33.5846 37.0951 33.6513C37.2076 33.718 37.3321 33.7619 37.4615 33.7805H37.4618L43.3755 34.6257C43.4221 34.6317 43.469 34.6347 43.5159 34.6347C43.7556 34.635 43.9874 34.5487 44.1687 34.3918C44.3499 34.2349 44.4685 34.0178 44.5025 33.7805L45.0551 29.9077C45.0828 29.7127 45.1678 29.5303 45.2992 29.3837C45.4307 29.237 45.6026 29.1326 45.7934 29.0837C45.9842 29.0347 46.1852 29.0435 46.371 29.1088C46.5568 29.1742 46.719 29.2931 46.8372 29.4507L49.1847 32.5798C49.3432 32.791 49.579 32.9307 49.8404 32.968C50.1018 33.0054 50.3673 32.9373 50.5786 32.7789L55.3574 29.1948C55.5686 29.0364 55.7082 28.8005 55.7456 28.5392C55.7829 28.2778 55.7149 28.0122 55.5565 27.801L53.2099 24.6719C53.0896 24.5152 53.0194 24.3258 53.0088 24.1286C52.9981 23.9314 53.0474 23.7355 53.1502 23.5668C53.2475 23.395 53.395 23.2571 53.573 23.1717C53.751 23.0863 53.9508 23.0574 54.1457 23.0889L58.0186 23.6415C58.148 23.6601 58.2798 23.653 58.4065 23.6206C58.5331 23.5882 58.6522 23.5313 58.7569 23.4529C58.8615 23.3745 58.9497 23.2763 59.0164 23.1638C59.0831 23.0514 59.127 22.9269 59.1455 22.7975V22.7972L59.9898 16.8835C60.0084 16.754 60.0013 16.6222 59.9689 16.4955C59.9366 16.3689 59.8796 16.2498 59.8012 16.1452C59.7228 16.0405 59.6246 15.9523 59.5122 15.8856C59.3997 15.8189 59.2752 15.775 59.1458 15.7565ZM26.148 51.0319H34.1126V53.0231H26.148V51.0319ZM26.148 55.0143H34.1126V56.0098C34.1126 57.1096 33.2212 58.001 32.1215 58.001H28.1391C27.0394 58.001 26.148 57.1096 26.148 56.0098V55.0143ZM18.2221 37.8454C18.7657 38.29 19.3338 38.7038 19.9236 39.0849C20.8643 39.6794 21.5724 40.5788 21.9297 41.6326L19.7942 43.7642L17.7263 42.3385C16.8209 41.7145 15.581 41.9428 14.9569 42.8482C14.8073 43.0654 14.7023 43.31 14.648 43.568L14.1263 46.054H11.7598L11.2381 43.572C11.0116 42.4959 9.9557 41.8071 8.8796 42.0336C8.62158 42.0879 8.37692 42.1929 8.15979 42.3425L6.09097 43.7642L4.27702 41.9542L5.7017 39.8874C6.3263 38.9823 6.09881 37.7423 5.19371 37.1177C4.97643 36.9677 4.73149 36.8624 4.47315 36.808L1.99117 36.2854V33.9199L4.47315 33.3972C5.54888 33.1691 6.23608 32.1121 6.00797 31.0363C5.95388 30.7811 5.85015 30.539 5.7027 30.3238L4.27702 28.251L6.09097 26.441L8.16079 27.8667C9.06664 28.4901 10.3065 28.2611 10.9299 27.3552C11.0792 27.1383 11.184 26.8939 11.2381 26.6362L11.4124 25.8079C11.5719 26.9549 11.8361 28.085 12.2019 29.1839C8.92602 29.5744 6.58702 32.5467 6.97754 35.8225C7.36806 39.0984 10.3404 41.4374 13.6162 41.0469C14.5873 40.931 15.5152 40.5785 16.3183 40.0203C17.1214 39.4622 17.7751 38.7153 18.2221 37.8454ZM16.676 36.4427C15.9326 38.5091 13.6548 39.5816 11.5883 38.8383C9.52187 38.0948 8.44938 35.8171 9.19271 33.7506C9.47027 32.9791 9.97955 32.3122 10.6508 31.8413C11.3221 31.3704 12.1225 31.1186 12.9424 31.1203H12.9803C13.8958 33.0944 15.1462 34.8951 16.676 36.4427ZM57.3097 21.5268L54.4225 21.1147C52.7895 20.8815 51.2767 22.0163 51.0435 23.6492C50.9315 24.4333 51.1356 25.2299 51.611 25.8636L53.3602 28.1963L50.1744 30.5857L48.4241 28.254C47.4345 26.9342 45.5624 26.6665 44.2428 27.6562C43.6091 28.1314 43.1901 28.8388 43.0779 29.6229L42.6746 32.5141L38.7331 31.9506L39.1453 29.0634C39.3791 27.4305 38.2449 25.9172 36.612 25.6835C36.2236 25.6279 35.8279 25.6494 35.4477 25.7467C35.0676 25.8441 34.7103 26.0154 34.3964 26.2509L32.0637 28.0001L29.6743 24.8143L32.006 23.064C33.3257 22.0744 33.5934 20.2024 32.6038 18.8827C32.1286 18.249 31.4212 17.83 30.6371 17.7178L27.7499 17.3056L28.3134 13.3641L31.2006 13.7762C32.8334 14.0101 34.3467 12.8759 34.5804 11.243C34.6361 10.8545 34.6146 10.4589 34.5173 10.0787C34.4199 9.69851 34.2486 9.34124 34.0131 9.02732L32.2579 6.69268L35.4437 4.30328L37.194 6.63593C38.1836 7.9557 40.0556 8.22338 41.3753 7.23378C42.009 6.75856 42.428 6.05112 42.5402 5.267L42.9524 2.37982L46.8939 2.94232L46.4817 5.82951C46.2485 7.46251 47.3832 8.9753 49.0162 9.20851C49.8004 9.32052 50.597 9.11642 51.2307 8.64103L53.5633 6.89179L55.9527 10.0777L53.6201 11.8279C52.3003 12.8175 52.0326 14.6896 53.0222 16.0092C53.4974 16.6429 54.2049 17.062 54.989 17.1742L57.8762 17.5863L57.3097 21.5268Z" fill="white"/>
<path d="M42.81 9.48025C38.4113 9.48025 34.8454 13.0462 34.8454 17.4449C34.8454 21.8436 38.4113 25.4096 42.81 25.4096C47.2087 25.4096 50.7747 21.8436 50.7747 17.4449C50.7697 13.0482 47.2068 9.4851 42.81 9.48025ZM42.81 23.4184C39.5109 23.4184 36.8365 20.744 36.8365 17.4449C36.8365 14.1458 39.5109 11.4714 42.81 11.4714C46.1091 11.4714 48.7835 14.1458 48.7835 17.4449C48.7797 20.7424 46.1075 23.4145 42.81 23.4184ZM29.1347 44.0628H31.1259V47.0495H29.1347V44.0628ZM25.7756 34.2852C19.6298 31.8843 16.5939 24.9558 18.9948 18.81C19.9252 16.4286 21.5949 14.4084 23.7586 13.0464L22.6943 11.3619C16.1812 15.4651 14.2275 24.0713 18.3306 30.5844C19.9198 33.1068 22.2758 35.0533 25.0528 36.138C27.5109 37.0798 29.1341 39.4393 29.1347 42.0716H31.1259C31.129 38.618 29.0007 35.5206 25.7756 34.2852ZM49.0463 37.0937H56.0154V39.0849H49.0463V37.0937ZM47.4137 43.8314L48.6882 42.3016L54.6622 47.2788L53.3876 48.8085L47.4137 43.8314ZM43.0728 45.0584H45.064V52.0275H43.0728V45.0584ZM1.0166 17.2108L8.98076 15.2202L9.46337 17.1507L1.49921 19.1416L1.0166 17.2108ZM2.67039 7.0412L3.82713 5.42176L10.7956 10.3992L9.63897 12.0186L2.67039 7.0412ZM11.2007 0.502464L13.1296 0.00927734L15.1659 7.97331L13.237 8.4665L11.2007 0.502464Z" fill="white"/>
</g>
<defs>
<clipPath id="clip0_443_263">
<rect width="60" height="60" fill="white" transform="translate(0 0.000976562)"/>
</clipPath>
</defs>
</svg>
