<svg width="40" height="40" viewBox="0 0 40 40" fill="none" xmlns="http://www.w3.org/2000/svg">
<g clip-path="url(#clip0_555_357)">
<path d="M39.375 12.8507C39.374 12.4447 39.266 12.0461 39.0621 11.695C38.8581 11.3439 38.5653 11.0527 38.2131 10.8507L37.9819 10.7188L38.4031 10.0863C38.6114 9.77567 38.7314 9.41424 38.7501 9.04069C38.7688 8.66714 38.6855 8.29554 38.5093 7.96566C38.3331 7.63577 38.0704 7.36001 37.7495 7.16791C37.4286 6.9758 37.0615 6.87457 36.6875 6.87505C35.7738 6.87313 34.8978 6.51061 34.25 5.8663C33.8889 5.51144 33.4443 5.25315 32.9572 5.1152C32.47 4.97725 31.956 4.96409 31.4625 5.07692C27.852 5.88496 24.4728 7.50443 21.5812 9.81255L19.7806 11.25H19.3944L18.8169 8.94193L21.0669 6.69192C21.129 6.62979 21.1774 6.55523 21.2088 6.47314C21.2402 6.39104 21.2539 6.30324 21.2491 6.21547C21.2443 6.1277 21.221 6.04194 21.1807 5.96379C21.1405 5.88564 21.0842 5.81685 21.0156 5.76192L14.7656 0.761924C14.6544 0.672628 14.516 0.624054 14.3734 0.624268C14.2307 0.624483 14.0925 0.673472 13.9815 0.763102C13.8706 0.852733 13.7936 0.977613 13.7635 1.11701C13.7333 1.2564 13.7517 1.40193 13.8156 1.52942L16.1431 6.18755L14.5 8.37505C14.4139 8.48968 14.3698 8.63043 14.3752 8.77369C14.3805 8.91696 14.435 9.05403 14.5294 9.16192L16.3569 11.25H13.125V8.12505C13.125 7.99675 13.0856 7.87155 13.012 7.76645C12.9384 7.66134 12.8343 7.58143 12.7137 7.53755L5.83874 5.03755C5.70505 4.98887 5.55874 4.98726 5.42401 5.033C5.28928 5.07873 5.17419 5.16907 5.09775 5.28908C5.02132 5.40908 4.98812 5.55158 5.00364 5.69301C5.01916 5.83445 5.08247 5.96635 5.18312 6.06692L9.37499 10.2588V11.125C6.47812 10.9499 3.59649 10.5782 0.749993 10.0126L0.499993 11.2375C3.42883 11.8193 6.39412 12.1993 9.37499 12.375V13.125C9.37495 13.25 9.41238 13.3722 9.48246 13.4757C9.55254 13.5792 9.65204 13.6593 9.76812 13.7057L16.0181 16.2057C16.1518 16.2591 16.2998 16.2648 16.4372 16.2217C16.5745 16.1786 16.6928 16.0894 16.772 15.9692C16.8513 15.849 16.8865 15.7051 16.8719 15.5619C16.8573 15.4187 16.7937 15.2849 16.6919 15.1832L14.0087 12.5H17.4506L18.9044 14.1619C18.9967 14.2674 19.1218 14.3388 19.2596 14.3647C19.3974 14.3905 19.5399 14.3693 19.6641 14.3044C19.7884 14.2395 19.8872 14.1346 19.9447 14.0068C20.0022 13.8789 20.0151 13.7355 19.9812 13.5994L19.7062 12.5H20C20.142 12.5001 20.2797 12.4518 20.3906 12.3632L22.3625 10.785C25.105 8.59739 28.3095 7.06259 31.7331 6.29692C32.0215 6.22977 32.3221 6.23606 32.6075 6.31523C32.8928 6.3944 33.1537 6.5439 33.3662 6.75005C34.249 7.62793 35.4425 8.12204 36.6875 8.12505C36.8351 8.12449 36.98 8.16413 37.1068 8.23972C37.2335 8.3153 37.3373 8.42399 37.4069 8.55409C37.4766 8.68419 37.5094 8.83081 37.5021 8.9782C37.4947 9.12559 37.4473 9.26818 37.365 9.39067L36.8956 10.095L35.5469 9.32505C34.9211 8.97489 34.2199 8.78158 33.5031 8.76166C32.7864 8.74174 32.0754 8.89581 31.4312 9.21068L30.5744 9.6388C30.1392 9.84926 29.7888 10.2018 29.581 10.6382C29.3731 11.0747 29.3203 11.5689 29.4312 12.0394C29.0559 12.3146 28.7312 12.653 28.4719 13.0394C28.2953 13.3029 28.1823 13.6036 28.1415 13.9181C28.1007 14.2325 28.1334 14.5522 28.2369 14.8519C27.8904 15.1605 27.6506 15.5708 27.5519 16.0242C27.4532 16.4775 27.5007 16.9504 27.6875 17.375C27.3353 17.658 27.0798 18.0435 26.9565 18.4781C26.8332 18.9128 26.8481 19.375 26.9991 19.8008C27.1502 20.2265 27.43 20.5948 27.7997 20.8544C28.1694 21.1141 28.6107 21.2524 29.0625 21.25H29.8525C30.1566 21.2488 30.4549 21.3329 30.7135 21.4928C30.9722 21.6527 31.1808 21.8819 31.3156 22.1544L32.4344 21.5957C32.1957 21.1153 31.8274 20.7114 31.3711 20.4294C30.9149 20.1474 30.3888 19.9987 29.8525 20H29.0625C28.8139 20 28.5754 19.9013 28.3996 19.7255C28.2238 19.5496 28.125 19.3112 28.125 19.0625C28.125 18.8139 28.2238 18.5755 28.3996 18.3996C28.5754 18.2238 28.8139 18.125 29.0625 18.125H29.7787C31.8374 18.1228 33.8504 18.7319 35.5625 19.875C35.7875 20.0248 35.9692 20.2311 36.0894 20.4732C36.2096 20.7153 36.264 20.9847 36.2473 21.2545C36.2306 21.5242 36.1433 21.7849 35.9942 22.0103C35.845 22.2357 35.6393 22.4179 35.3975 22.5388L32.3712 24.0519C31.7546 24.3577 31.0534 24.4481 30.3794 24.3088L20.7137 22.275C19.9264 22.1092 19.1291 21.9946 18.3269 21.9319L19.155 21.1038L22.625 18.625C22.9728 18.376 23.2563 18.0477 23.452 17.6673C23.6476 17.2869 23.7498 16.8653 23.75 16.4375C23.7506 16.0637 23.6495 15.6967 23.4577 15.3758C23.2658 15.0549 22.9903 14.7922 22.6607 14.6158C22.331 14.4394 21.9596 14.3559 21.5862 14.3743C21.2128 14.3926 20.8514 14.5122 20.5406 14.72L17.2375 16.9238L12.2069 18.2988C10.9354 18.6458 9.83232 19.4409 9.10124 20.5375C8.91627 20.8139 8.75726 21.1069 8.62624 21.4125L8.38187 21.9825L0.583743 22.5L0.666243 23.75L7.82874 23.2725L6.99999 25.2013L0.289368 29.4725L0.960618 30.5275L7.83562 26.1525C7.94169 26.085 8.0249 25.9869 8.07437 25.8713L9.77562 21.9032C9.87637 21.6672 9.99876 21.441 10.1412 21.2276C10.7045 20.3814 11.555 19.7678 12.5356 19.5L17.6644 18.1013C17.7293 18.0837 17.791 18.0556 17.8469 18.0182L21.2344 15.76C21.3569 15.6777 21.4995 15.6304 21.6468 15.623C21.7942 15.6156 21.9408 15.6485 22.071 15.7181C22.2011 15.7878 22.3097 15.8915 22.3853 16.0183C22.4609 16.145 22.5006 16.29 22.5 16.4375C22.4998 16.666 22.4452 16.8912 22.3406 17.0943C22.2361 17.2975 22.0846 17.4728 21.8987 17.6057L18.3869 20.1144C18.3588 20.1345 18.3325 20.1569 18.3081 20.1813L16.4331 22.0563C16.3451 22.1436 16.285 22.2551 16.2605 22.3767C16.2361 22.4982 16.2483 22.6243 16.2957 22.7389C16.343 22.8534 16.4234 22.9513 16.5266 23.0201C16.6297 23.0889 16.751 23.1254 16.875 23.125C18.0783 23.1259 19.2783 23.2516 20.4556 23.5L27.1194 24.9025L25.9256 26.6075C25.6102 27.0586 25.1971 27.4328 24.7171 27.7021C24.2371 27.9714 23.7025 28.129 23.1531 28.1632L13.7112 28.75C13.5655 28.759 13.4275 28.8187 13.3212 28.9188L2.69624 38.9188L3.55374 39.8288L14.0144 29.9851L23.2312 29.4088C23.968 29.3627 24.6849 29.1512 25.3287 28.7901C25.9725 28.4289 26.5267 27.9273 26.95 27.3225L28.45 25.1807L30.1231 25.5332C31.0733 25.7297 32.0619 25.6023 32.9312 25.1713L35.9575 23.6582C36.5461 23.3669 37.0124 22.8762 37.2732 22.2734C37.534 21.6706 37.5725 20.9948 37.3819 20.3663C37.7224 20.0147 37.9586 19.5755 38.0642 19.0975C38.1698 18.6196 38.1406 18.1218 37.98 17.6594C38.3696 17.2793 38.6278 16.7847 38.7168 16.2477C38.8058 15.7107 38.7211 15.1593 38.475 14.6738C38.7548 14.4593 38.9816 14.1834 39.1376 13.8672C39.2937 13.5511 39.3749 13.2032 39.375 12.8507ZM10.625 12.7019V10C10.625 9.8343 10.5591 9.67536 10.4419 9.55818L8.06249 7.17505L11.875 8.56255V11.875C11.875 12.0408 11.9409 12.1997 12.0581 12.3169L13.655 13.9138L10.625 12.7019ZM15.8037 8.72005L17.375 6.62505C17.4452 6.53255 17.4882 6.42232 17.4992 6.30674C17.5103 6.19116 17.4889 6.07479 17.4375 5.97067L16.2069 3.51567L19.6875 6.30192L17.6812 8.30817C17.6049 8.38452 17.5496 8.47933 17.5208 8.58339C17.492 8.68744 17.4906 8.79719 17.5169 8.90192L18.1387 11.3907L15.8037 8.72005ZM31.1331 10.7569L31.9906 10.3288C32.4503 10.1037 32.9577 9.99352 33.4694 10.0077C33.981 10.0218 34.4816 10.1599 34.9281 10.41L37.5937 11.9338C37.7459 12.02 37.8742 12.1428 37.9668 12.2912C38.0594 12.4395 38.1135 12.6087 38.1241 12.7832C38.1347 12.9578 38.1016 13.1322 38.0276 13.2907C37.9536 13.4492 37.8412 13.5867 37.7006 13.6907L36.3256 12.3157C35.6408 11.6353 34.7153 11.2524 33.75 11.25H31.8175C31.4201 11.2522 31.0251 11.3132 30.6456 11.4313C30.6674 11.2882 30.7231 11.1524 30.8078 11.0352C30.8926 10.9179 31.0041 10.8225 31.1331 10.7569ZM29.7787 16.875H29.0625C28.989 16.8787 28.9158 16.8862 28.8431 16.8975C28.7423 16.6839 28.7225 16.441 28.7873 16.2138C28.8521 15.9867 28.9972 15.7908 29.1956 15.6625C29.843 15.2298 30.6044 14.9992 31.3831 15C32.766 15.0011 34.1049 15.4858 35.1681 16.37L36.3356 17.3432C36.6022 17.5629 36.7836 17.8688 36.8485 18.2081C36.9135 18.5474 36.8578 18.8987 36.6912 19.2013C36.5581 19.0652 36.4115 18.9429 36.2537 18.8363C34.3371 17.556 32.0836 16.8735 29.7787 16.875ZM37.1362 16.3832L35.9687 15.41C34.6809 14.3384 33.0586 13.7511 31.3831 13.75C30.6938 13.7532 30.0122 13.8941 29.3781 14.1644C29.3813 14.0114 29.4277 13.8623 29.5119 13.7344C29.7644 13.3544 30.1072 13.0427 30.5095 12.8273C30.9118 12.612 31.3612 12.4995 31.8175 12.5H33.75C34.3842 12.502 34.992 12.7537 35.4419 13.2007L37.1044 14.8638C37.3227 15.079 37.4598 15.3632 37.4924 15.6681C37.525 15.973 37.4511 16.2798 37.2831 16.5363C37.2325 16.4863 37.1912 16.4288 37.1362 16.3832Z" fill="#FFFFFF"/>
</g>
<defs>
<clipPath id="clip0_555_357">
<rect width="40" height="40" fill="white"/>
</clipPath>
</defs>
</svg>
