<svg width="40" height="40" viewBox="0 0 40 40" fill="none" xmlns="http://www.w3.org/2000/svg">
<g clip-path="url(#clip0_555_388)">
<path d="M39.1949 25.1755C38.6833 24.7865 37.994 24.6736 37.3041 24.865L33.5925 25.8958C33.4277 25.9415 33.2627 25.986 33.0976 26.0294V22.5055C33.7795 22.2636 34.2695 21.6123 34.2695 20.8485V9.50146C36.1176 8.79341 37.4335 7.00435 37.4335 4.91325C37.4335 2.20403 35.2256 -0.000105621 32.5116 -0.000105621C29.7977 -0.000105621 27.5898 2.20403 27.5898 4.91325C27.5898 7.00435 28.9057 8.79341 30.7538 9.50146V13.0967C30.7538 13.4204 31.0161 13.6826 31.3398 13.6826C31.6634 13.6826 31.9257 13.4204 31.9257 13.0967V9.79052C32.118 9.81341 32.3133 9.82654 32.5116 9.82654C32.71 9.82654 32.9053 9.81341 33.0976 9.79052V20.8486C33.0976 21.1717 32.8347 21.4345 32.5116 21.4345C32.1885 21.4345 31.9257 21.1717 31.9257 20.8486V15.831C31.9257 15.5073 31.6634 15.2451 31.3398 15.2451C31.0161 15.2451 30.7538 15.5073 30.7538 15.831V20.8486C30.7538 21.6124 31.2438 22.2637 31.9257 22.5056V26.3181C28.1969 27.1758 24.3971 27.4592 20.5859 27.1643V26.4118C21.2679 26.17 21.7578 25.5186 21.7578 24.7548V13.4077C23.6059 12.6997 24.9219 10.9106 24.9219 8.8195C24.9219 7.71747 24.5633 6.67521 23.8849 5.80544C23.8375 5.74475 23.7787 5.69397 23.7118 5.65601C23.6449 5.61806 23.5711 5.59367 23.4947 5.58423C23.4184 5.5748 23.3409 5.58051 23.2667 5.60104C23.1925 5.62157 23.1232 5.65652 23.0625 5.70388C23.0018 5.7512 22.9511 5.81001 22.9131 5.87695C22.8752 5.94389 22.8508 6.01765 22.8414 6.09401C22.832 6.17038 22.8377 6.24785 22.8582 6.32201C22.8787 6.39617 22.9136 6.46556 22.9609 6.52622C23.4771 7.18802 23.75 7.98099 23.75 8.8195C23.75 10.8826 22.0678 12.561 20 12.561C17.9322 12.561 16.25 10.8826 16.25 8.8195C16.25 6.75638 17.9322 5.07802 20 5.07802C20.3373 5.07802 20.6716 5.12279 20.9936 5.21122C21.1435 5.25236 21.3035 5.23229 21.4386 5.15541C21.5736 5.07854 21.6726 4.95116 21.7138 4.8013C21.7549 4.65144 21.7348 4.49138 21.6579 4.35632C21.5811 4.22127 21.4537 4.12228 21.3038 4.08114C20.879 3.96479 20.4405 3.90593 20 3.90614C17.2861 3.90614 15.0781 6.11029 15.0781 8.8195C15.0781 10.9106 16.3941 12.6997 18.2422 13.4077V24.7549C18.2422 25.5187 18.7321 26.1701 19.4141 26.4119V27.0558C19.1177 27.0237 18.8218 26.9882 18.5263 26.9493L14.958 26.4783C14.8039 26.4579 14.6481 26.4996 14.5248 26.5942C14.4014 26.6887 14.3207 26.8284 14.3004 26.9825C14.2801 27.1365 14.3218 27.2924 14.4163 27.4157C14.5109 27.539 14.6506 27.6197 14.8046 27.6401L18.3729 28.1111C18.72 28.157 19.067 28.1978 19.4141 28.2343V34.6555C18.6915 34.5422 17.9909 34.2224 17.361 33.7122C17.24 33.617 17.0864 33.5732 16.9334 33.5904C16.7804 33.6076 16.6403 33.6843 16.5434 33.8039C16.4465 33.9235 16.4005 34.0765 16.4155 34.2297C16.4305 34.383 16.5051 34.5242 16.6234 34.6228C17.6342 35.4415 18.8027 35.8743 20.0026 35.8743C21.2 35.8743 22.3666 35.4432 23.3761 34.6275C23.4949 34.5291 23.5702 34.3879 23.5856 34.2345C23.601 34.081 23.5553 33.9276 23.4583 33.8077C23.3614 33.6877 23.2211 33.6108 23.0678 33.5936C22.9145 33.5764 22.7606 33.6204 22.6395 33.7159C22.0093 34.2252 21.3086 34.5441 20.5859 34.6564V28.3397C24.396 28.6258 28.1947 28.3515 31.9257 27.5201V30.7497C31.2022 30.6368 30.5008 30.3168 29.8701 29.806C29.8103 29.7576 29.7415 29.7214 29.6678 29.6995C29.594 29.6776 29.5166 29.6705 29.4401 29.6785C29.3636 29.6866 29.2894 29.7096 29.2217 29.7463C29.1541 29.783 29.0944 29.8327 29.0459 29.8925C28.9975 29.9523 28.9613 30.021 28.9395 30.0948C28.9176 30.1686 28.9105 30.2459 28.9185 30.3225C28.9265 30.399 28.9496 30.4732 28.9863 30.5408C29.023 30.6084 29.0726 30.6682 29.1324 30.7166C30.1433 31.5354 31.3118 31.9682 32.5116 31.9682C33.7091 31.9682 34.8756 31.537 35.8852 30.7213C36.004 30.623 36.0793 30.4818 36.0947 30.3283C36.11 30.1748 36.0643 30.0215 35.9674 29.9015C35.8704 29.7815 35.7301 29.7046 35.5768 29.6874C35.4236 29.6703 35.2697 29.7142 35.1486 29.8097C34.5191 30.3184 33.8193 30.6372 33.0975 30.7497V27.2398C33.3678 27.1711 33.6373 27.0995 33.906 27.0251L37.6177 25.9943C37.9567 25.9003 38.2649 25.9407 38.4857 26.1086C38.7066 26.2762 38.8281 26.5624 38.8281 26.9142V37.4608C38.8281 38.2147 38.2148 38.828 37.4609 38.828H2.53907C1.78524 38.828 1.17188 38.2147 1.17188 37.4608V27.3827C1.17188 26.6406 1.76618 26.0347 2.50391 26.016L6.83594 26.5879V30.7497C6.11212 30.6369 5.4104 30.3168 4.77946 29.8058C4.6587 29.708 4.50403 29.6622 4.34948 29.6784C4.19492 29.6946 4.05314 29.7716 3.95532 29.8923C3.8575 30.0131 3.81166 30.1677 3.82788 30.3223C3.8441 30.4769 3.92105 30.6186 4.0418 30.7165C5.05266 31.5352 6.22118 31.968 7.42102 31.968C8.61844 31.968 9.78501 31.5368 10.7945 30.7211C10.9134 30.6228 10.9886 30.4816 11.004 30.3281C11.0194 30.1747 10.9737 30.0213 10.8768 29.9014C10.7798 29.7814 10.6395 29.7045 10.4862 29.6873C10.3329 29.6701 10.1791 29.7141 10.058 29.8096C9.42876 30.3181 8.72923 30.6367 8.00782 30.7495V26.7427L12.0917 27.2819C12.4116 27.324 12.707 27.0986 12.7493 26.7777C12.7594 26.7014 12.7543 26.6239 12.7344 26.5496C12.7145 26.4752 12.6802 26.4056 12.6334 26.3445C12.5866 26.2834 12.5282 26.2322 12.4615 26.1937C12.3949 26.1552 12.3214 26.1302 12.2451 26.1201L8.00782 25.5607V22.5057C8.68977 22.2638 9.17969 21.6125 9.17969 20.8486V9.50146C11.0278 8.79341 12.3438 7.00435 12.3438 4.91325C12.3438 2.20403 10.1358 -0.000105621 7.42188 -0.000105621C4.69704 -0.007215 2.41188 2.29107 2.50204 5.05286C2.50384 5.12988 2.52089 5.20578 2.55219 5.27618C2.58349 5.34658 2.62842 5.41008 2.6844 5.46302C2.74037 5.51595 2.80627 5.55728 2.87831 5.58461C2.95034 5.61194 3.02707 5.62473 3.10407 5.62224C3.25941 5.61791 3.40666 5.55204 3.51344 5.43914C3.62022 5.32624 3.67777 5.17554 3.67344 5.02021C3.60266 2.9506 5.32259 1.16763 7.42188 1.17177C9.48969 1.17177 11.1719 2.85013 11.1719 4.91325C11.1719 6.97638 9.48969 8.65474 7.42188 8.65474C6.27915 8.65474 5.21219 8.14224 4.49438 7.24864C4.3965 7.12918 4.25542 7.05319 4.10181 7.03718C3.9482 7.02118 3.79448 7.06646 3.67408 7.16319C3.55368 7.25991 3.47632 7.40025 3.45884 7.5537C3.44135 7.70715 3.48515 7.8613 3.58071 7.98263C4.13868 8.67724 4.85852 9.1945 5.66407 9.50208V20.8487C5.66407 21.6126 6.15399 22.2639 6.83594 22.5058V25.406L2.61571 24.8488C1.22852 24.7833 -0.00335252 25.9664 6.8549e-06 27.3827V37.4608C6.8549e-06 38.8609 1.13899 39.9999 2.53907 39.9999H37.4609C38.861 39.9999 40 38.8609 40 37.4608V26.9142C40 26.1982 39.7066 25.5644 39.1949 25.1755ZM28.7617 4.91325C28.7617 2.85021 30.4439 1.17177 32.5117 1.17177C34.5795 1.17177 36.2617 2.85013 36.2617 4.91325C36.2617 6.97638 34.5795 8.65474 32.5117 8.65474C30.4439 8.65474 28.7617 6.9763 28.7617 4.91325ZM20 13.7328C20.1984 13.7328 20.3937 13.7197 20.5859 13.6968V24.7548C20.5859 25.0779 20.3231 25.3408 20 25.3408C19.6769 25.3408 19.4141 25.0779 19.4141 24.7548V13.6968C19.6064 13.7197 19.8016 13.7328 20 13.7328ZM7.42188 9.82654C7.62024 9.82654 7.81555 9.81341 8.00782 9.79052V20.8486C8.00782 21.1717 7.74501 21.4345 7.42188 21.4345C7.09876 21.4345 6.83594 21.1717 6.83594 20.8486V9.7913C7.03039 9.81457 7.22605 9.82633 7.42188 9.82654Z" fill="#18BCC7"/>
<path d="M17.4432 8.81945C17.4432 10.2272 18.5902 11.3724 20.0001 11.3724C21.4099 11.3724 22.557 10.2272 22.557 8.81945C22.557 7.41171 21.4098 6.26648 20 6.26648C18.5902 6.26648 17.4432 7.41171 17.4432 8.81945ZM21.385 8.81945C21.385 9.58093 20.7638 10.2005 20 10.2005C19.2363 10.2005 18.615 9.58093 18.615 8.81945C18.615 8.05796 19.2363 7.43835 20 7.43835C20.7637 7.43835 21.385 8.05796 21.385 8.81945ZM9.97875 4.9132C9.97875 3.50546 8.83172 2.36023 7.42188 2.36023C6.01204 2.36023 4.86508 3.50546 4.86508 4.9132C4.86508 6.32093 6.01204 7.46617 7.42188 7.46617C8.83172 7.46617 9.97875 6.32085 9.97875 4.9132ZM6.03696 4.9132C6.03696 4.15171 6.65821 3.5321 7.42196 3.5321C8.18571 3.5321 8.80696 4.15171 8.80696 4.9132C8.80696 5.67468 8.18563 6.29429 7.42188 6.29429C6.65813 6.29429 6.03696 5.67468 6.03696 4.9132ZM32.5117 2.36023C31.1019 2.36023 29.9548 3.50546 29.9548 4.9132C29.9548 6.32093 31.1019 7.46617 32.5117 7.46617C33.9216 7.46617 35.0685 6.32093 35.0685 4.9132C35.0685 3.50546 33.9215 2.36023 32.5117 2.36023ZM32.5117 6.29429C31.748 6.29429 31.1267 5.67468 31.1267 4.9132C31.1267 4.15171 31.748 3.5321 32.5117 3.5321C33.2753 3.5321 33.8966 4.15171 33.8966 4.9132C33.8966 5.67468 33.2753 6.29429 32.5117 6.29429Z" fill="#18BCC7"/>
</g>
<defs>
<clipPath id="clip0_555_388">
<rect width="40" height="40" fill="white"/>
</clipPath>
</defs>
</svg>
