<svg width="40" height="40" viewBox="0 0 40 40" fill="none" xmlns="http://www.w3.org/2000/svg">
<g clip-path="url(#clip0_555_454)">
<path d="M29.6819 6.87988C29.0353 6.0985 28.2247 5.46901 27.3075 5.03609C26.3904 4.60317 25.3892 4.37742 24.375 4.37488V0.624878H23.125V4.99988C23.125 5.16564 23.1908 5.32461 23.3081 5.44182C23.4253 5.55903 23.5842 5.62488 23.75 5.62488H24.375C25.2479 5.62695 26.1084 5.83118 26.8892 6.22155C27.6699 6.61191 28.3496 7.17781 28.875 7.87488C28.9332 7.9525 29.0087 8.0155 29.0955 8.0589C29.1823 8.10229 29.278 8.12488 29.375 8.12488C31.6949 8.12736 33.919 9.05003 35.5594 10.6904C37.1999 12.3308 38.1225 14.555 38.125 16.8749V39.3749H39.375V16.8749C39.3719 14.2768 38.359 11.7817 36.5503 9.91658C34.7416 8.05151 32.2786 6.96259 29.6819 6.87988Z" fill="#FFFFFF"/>
<path d="M33.7106 20.2199L32.5394 19.7824L30.6644 24.7824C30.6385 24.852 30.6252 24.9256 30.625 24.9999V26.7274C30.6227 27.5496 30.4302 28.3601 30.0625 29.0955C29.6107 30.0051 29.3754 31.0068 29.375 32.0224V39.3749H30.625V32.0224C30.6273 31.2002 30.8198 30.3897 31.1875 29.6543C31.4527 29.1126 31.642 28.537 31.75 27.9436C32.2451 29.5642 32.4978 31.2491 32.5 32.9436V39.3749H33.75V32.9424C33.7447 30.1837 33.1218 27.4613 31.9269 24.9749L33.7106 20.2199ZM16.25 5.62488C16.4158 5.62488 16.5747 5.55903 16.6919 5.44182C16.8092 5.32461 16.875 5.16564 16.875 4.99988V0.624878H15.625V4.37488C14.6108 4.37742 13.6096 4.60317 12.6925 5.03609C11.7753 5.46901 10.9647 6.0985 10.3181 6.87988C7.72136 6.96259 5.25844 8.05151 3.4497 9.91658C1.64096 11.7817 0.628062 14.2768 0.625 16.8749V39.3749H1.875V16.8749C1.87748 14.555 2.80015 12.3308 4.44056 10.6904C6.08096 9.05003 8.30512 8.12736 10.625 8.12488C10.722 8.12488 10.8177 8.10229 10.9045 8.0589C10.9913 8.0155 11.0668 7.9525 11.125 7.87488C11.6504 7.17781 12.3301 6.61191 13.1108 6.22155C13.8916 5.83118 14.7521 5.62695 15.625 5.62488H16.25Z" fill="#FFFFFF"/>
<path d="M9.375 26.7274V24.9999C9.37508 24.9248 9.36174 24.8503 9.33563 24.7799L7.46063 19.7799L6.28937 20.2174L8.07312 24.9724C6.87785 27.4596 6.25489 30.1829 6.25 32.9424V39.3749H7.5V32.9424C7.50216 31.2479 7.75489 29.563 8.25 27.9424C8.35801 28.5357 8.54729 29.1114 8.8125 29.653C9.18039 30.3888 9.37292 31.1998 9.375 32.0224V39.3749H10.625V32.0224C10.6246 31.0068 10.3893 30.0051 9.9375 29.0955C9.56979 28.3601 9.37727 27.5496 9.375 26.7274ZM22.5 36.2499C22.5 36.0841 22.4342 35.9251 22.3169 35.8079C22.1997 35.6907 22.0408 35.6249 21.875 35.6249H18.125C17.9592 35.6249 17.8003 35.6907 17.6831 35.8079C17.5658 35.9251 17.5 36.0841 17.5 36.2499V36.8749H16.25V38.1249H17.5V38.7499C17.5 38.9156 17.5658 39.0746 17.6831 39.1918C17.8003 39.309 17.9592 39.3749 18.125 39.3749H21.875C22.0408 39.3749 22.1997 39.309 22.3169 39.1918C22.4342 39.0746 22.5 38.9156 22.5 38.7499V38.1249H23.75V36.8749H22.5V36.2499ZM21.25 38.1249H18.75V36.8749H21.25V38.1249ZM22.5 31.2499C22.5 31.0841 22.4342 30.9251 22.3169 30.8079C22.1997 30.6907 22.0408 30.6249 21.875 30.6249H18.125C17.9592 30.6249 17.8003 30.6907 17.6831 30.8079C17.5658 30.9251 17.5 31.0841 17.5 31.2499V31.8749H16.25V33.1249H17.5V33.7499C17.5 33.9156 17.5658 34.0746 17.6831 34.1918C17.8003 34.309 17.9592 34.3749 18.125 34.3749H21.875C22.0408 34.3749 22.1997 34.309 22.3169 34.1918C22.4342 34.0746 22.5 33.9156 22.5 33.7499V33.1249H23.75V31.8749H22.5V31.2499ZM21.25 33.1249H18.75V31.8749H21.25V33.1249ZM22.5 26.2499C22.5 26.0841 22.4342 25.9251 22.3169 25.8079C22.1997 25.6907 22.0408 25.6249 21.875 25.6249H18.125C17.9592 25.6249 17.8003 25.6907 17.6831 25.8079C17.5658 25.9251 17.5 26.0841 17.5 26.2499V26.8749H16.25V28.1249H17.5V28.7499C17.5 28.9156 17.5658 29.0746 17.6831 29.1918C17.8003 29.309 17.9592 29.3749 18.125 29.3749H21.875C22.0408 29.3749 22.1997 29.309 22.3169 29.1918C22.4342 29.0746 22.5 28.9156 22.5 28.7499V28.1249H23.75V26.8749H22.5V26.2499ZM21.25 28.1249H18.75V26.8749H21.25V28.1249ZM23.125 21.8749H22.05L21.8563 21.0986C21.8225 20.9634 21.7445 20.8433 21.6347 20.7574C21.5248 20.6716 21.3894 20.6249 21.25 20.6249H18.75C18.6106 20.6249 18.4752 20.6716 18.3653 20.7574C18.2555 20.8433 18.1775 20.9634 18.1438 21.0986L17.95 21.8749H16.875V23.1249H17.6375L17.5188 23.5986C17.4958 23.6907 17.4941 23.7869 17.5138 23.8797C17.5335 23.9726 17.5742 24.0598 17.6326 24.1346C17.691 24.2094 17.7657 24.2699 17.8511 24.3116C17.9364 24.3532 18.0301 24.3749 18.125 24.3749H21.875C21.9699 24.3749 22.0636 24.3532 22.1489 24.3116C22.2343 24.2699 22.309 24.2094 22.3674 24.1346C22.4258 24.0598 22.4665 23.9726 22.4862 23.8797C22.5059 23.7869 22.5042 23.6907 22.4813 23.5986L22.3625 23.1249H23.125V21.8749ZM18.9256 23.1249L19.2381 21.8749H20.7619L21.0744 23.1249H18.9256ZM23.125 16.8749H22.05L21.8563 16.0986C21.8225 15.9634 21.7445 15.8433 21.6347 15.7574C21.5248 15.6716 21.3894 15.6249 21.25 15.6249H18.75C18.6106 15.6249 18.4752 15.6716 18.3653 15.7574C18.2555 15.8433 18.1775 15.9634 18.1438 16.0986L17.95 16.8749H16.875V18.1249H17.6375L17.5188 18.5986C17.4958 18.6907 17.4941 18.7869 17.5138 18.8797C17.5335 18.9726 17.5742 19.0598 17.6326 19.1346C17.691 19.2094 17.7657 19.2699 17.8511 19.3116C17.9364 19.3532 18.0301 19.3749 18.125 19.3749H21.875C21.9699 19.3749 22.0636 19.3532 22.1489 19.3116C22.2343 19.2699 22.309 19.2094 22.3674 19.1346C22.4258 19.0598 22.4665 18.9726 22.4862 18.8797C22.5059 18.7869 22.5042 18.6907 22.4813 18.5986L22.3625 18.1249H23.125V16.8749ZM18.9256 18.1249L19.2381 16.8749H20.7619L21.0744 18.1249H18.9256ZM23.125 11.8749H22.05L21.8563 11.0986C21.8225 10.9634 21.7445 10.8433 21.6347 10.7574C21.5248 10.6716 21.3894 10.6249 21.25 10.6249H18.75C18.6106 10.6249 18.4752 10.6716 18.3653 10.7574C18.2555 10.8433 18.1775 10.9634 18.1438 11.0986L17.95 11.8749H16.875V13.1249H17.6375L17.5188 13.5986C17.4958 13.6907 17.4941 13.7869 17.5138 13.8797C17.5335 13.9726 17.5742 14.0598 17.6326 14.1346C17.691 14.2094 17.7657 14.2699 17.8511 14.3116C17.9364 14.3532 18.0301 14.3749 18.125 14.3749H21.875C21.9699 14.3749 22.0636 14.3532 22.1489 14.3116C22.2343 14.2699 22.309 14.2094 22.3674 14.1346C22.4258 14.0598 22.4665 13.9726 22.4862 13.8797C22.5059 13.7869 22.5042 13.6907 22.4813 13.5986L22.3625 13.1249H23.125V11.8749ZM18.9256 13.1249L19.2381 11.8749H20.7619L21.0744 13.1249H18.9256ZM16.875 6.87488V8.12488H17.6375L17.5188 8.59863C17.4958 8.69074 17.4941 8.78688 17.5138 8.87974C17.5335 8.97261 17.5742 9.05976 17.6326 9.13458C17.691 9.2094 17.7657 9.26993 17.8511 9.31156C17.9364 9.3532 18.0301 9.37485 18.125 9.37488H21.875C21.9699 9.37485 22.0636 9.3532 22.1489 9.31156C22.2343 9.26993 22.309 9.2094 22.3674 9.13458C22.4258 9.05976 22.4665 8.97261 22.4862 8.87974C22.5059 8.78688 22.5042 8.69074 22.4813 8.59863L22.3625 8.12488H23.125V6.87488H22.05L21.8563 6.09863C21.8225 5.96336 21.7445 5.84325 21.6347 5.75741C21.5248 5.67157 21.3894 5.62492 21.25 5.62488H18.75C18.6106 5.62492 18.4752 5.67157 18.3653 5.75741C18.2555 5.84325 18.1775 5.96336 18.1438 6.09863L17.95 6.87488H16.875ZM19.2381 6.87488H20.7619L21.0744 8.12488H18.9256L19.2381 6.87488ZM23.3081 15.183L25.8081 12.683L26.6919 13.5668L24.1919 16.0668L23.3081 15.183ZM24.375 16.8749H27.5V18.1249H24.375V16.8749ZM23.3081 19.8174L24.1919 18.933L26.6919 21.433L25.8081 22.3174L23.3081 19.8174ZM13.3081 13.5668L14.1919 12.683L16.6919 15.183L15.8081 16.0668L13.3081 13.5668ZM12.5 16.8749H15.625V18.1249H12.5V16.8749ZM13.3081 21.433L15.8081 18.933L16.6925 19.8168L14.1925 22.3168L13.3081 21.433Z" fill="#FFFFFF"/>
</g>
<defs>
<clipPath id="clip0_555_454">
<rect width="40" height="40" fill="white"/>
</clipPath>
</defs>
</svg>
