<svg width="42" height="46" viewBox="0 0 42 46" fill="none" xmlns="http://www.w3.org/2000/svg">
<path d="M21.4174 45.9999C19.5827 45.9999 17.8805 45.2634 16.6244 43.926C15.3683 42.5887 14.7398 40.8436 14.8548 39.0125L14.9375 37.6942C14.9487 37.5151 15.0307 37.3478 15.1653 37.2291C15.2999 37.1104 15.4761 37.05 15.6553 37.0612C15.8344 37.0724 16.0017 37.1544 16.1204 37.289C16.2391 37.4236 16.2995 37.5998 16.2883 37.7789L16.2055 39.0972C16.1142 40.5515 16.6134 41.9374 17.6109 42.9994C18.6084 44.0615 19.9603 44.6465 21.4173 44.6465C23.8633 44.6465 25.9557 42.9819 26.5057 40.5986L26.845 39.1284C26.9352 38.7353 27.0132 38.3395 27.0791 37.9416C27.0936 37.8539 27.1253 37.7699 27.1723 37.6945C27.2193 37.619 27.2807 37.5536 27.353 37.5019C27.4254 37.4502 27.5072 37.4133 27.5938 37.3933C27.6804 37.3733 27.7701 37.3706 27.8578 37.3853C28.0348 37.4148 28.1929 37.5134 28.2972 37.6594C28.4016 37.8054 28.4436 37.9869 28.4141 38.1639C28.3437 38.5893 28.2602 39.0124 28.1638 39.4327L27.8244 40.903C27.132 43.9041 24.4973 45.9999 21.4174 45.9999ZM15.7947 35.5296C15.7022 35.5297 15.6106 35.5108 15.5257 35.4742C15.4408 35.4375 15.3643 35.3838 15.301 35.3164C15.2376 35.249 15.1887 35.1694 15.1574 35.0824C15.126 34.9954 15.1128 34.9028 15.1186 34.8105L15.2043 33.4456C15.3009 31.8936 15.2423 30.3358 15.0294 28.7954C15.007 28.6186 15.0553 28.4402 15.1636 28.2988C15.272 28.1574 15.4317 28.0644 15.6082 28.0401C15.7847 28.0157 15.9637 28.0619 16.1063 28.1686C16.2489 28.2754 16.3437 28.434 16.3701 28.6102C16.5954 30.24 16.6573 31.8882 16.5551 33.5303L16.4694 34.8952C16.4586 35.0669 16.3828 35.2281 16.2575 35.3459C16.1322 35.4637 15.9667 35.5294 15.7947 35.5296ZM40.61 37.589C40.4861 37.5891 40.3645 37.5552 40.2585 37.4908C40.1525 37.4265 40.0663 37.3343 40.0091 37.2243L37.5216 32.4405C37.3666 32.1417 37.2855 31.81 37.2852 31.4733V29.027C37.2852 28.6533 37.5881 28.3503 37.9619 28.3503C38.3357 28.3503 38.6386 28.6533 38.6386 29.027V31.4733C38.6386 31.5922 38.6676 31.7106 38.7223 31.816L41.2099 36.6C41.2636 36.7031 41.2898 36.8183 41.286 36.9345C41.2822 37.0506 41.2485 37.1639 41.1882 37.2633C41.128 37.3627 41.0431 37.4448 40.9418 37.5019C40.8405 37.559 40.7263 37.589 40.61 37.589ZM8.62045 32.4987C8.49519 32.4986 8.37242 32.4637 8.26579 32.398C8.15917 32.3323 8.07288 32.2382 8.01654 32.1264C7.96019 32.0145 7.93601 31.8892 7.94667 31.7644C7.95733 31.6396 8.00243 31.5202 8.07693 31.4195L10.8265 27.7025C10.8938 27.6115 10.9828 27.5389 11.0853 27.4912L12.0317 27.0514C13.1823 26.5161 14.1661 25.6788 14.8785 24.6286C14.9803 24.4826 15.1355 24.3826 15.3105 24.3503C15.4855 24.3179 15.6662 24.3558 15.8135 24.4557C15.9608 24.5557 16.0627 24.7096 16.0973 24.8842C16.1319 25.0587 16.0963 25.2399 15.9983 25.3884C15.1484 26.6413 13.9747 27.6401 12.602 28.2786L11.812 28.6459L9.16496 32.2243C9.10206 32.3095 9.02001 32.3787 8.92542 32.4264C8.83083 32.4741 8.72637 32.4988 8.62045 32.4987Z" fill="white"/>
<path d="M37.5163 21.1813L30.3517 15.062C30.3618 13.8686 30.0883 12.6983 29.5472 11.6278C29.5735 11.6171 29.6 11.6068 29.6262 11.5953C30.1468 11.3665 30.6028 11.0124 30.9533 10.5646C31.3038 10.1168 31.5381 9.58914 31.6352 9.02879C31.7613 8.30509 31.5504 7.57805 31.0564 7.03435C30.5623 6.49074 29.8592 6.21158 29.1264 6.26752C29.0507 6.27339 28.9759 6.28394 28.9014 6.29703C28.8968 6.25101 28.8932 6.205 28.8869 6.15889C28.7764 5.34939 28.3075 4.65023 27.6005 4.24078C26.9599 3.86978 26.2104 3.78767 25.5119 4.00385C25.2578 3.24993 24.6881 2.66021 23.94 2.38178C23.3406 2.15865 22.6976 2.16217 22.1133 2.37961C22.0093 2.15977 21.8876 1.94874 21.7495 1.74857C21.2199 0.985264 20.384 0.518617 19.4563 0.468361C18.7094 0.42785 17.9923 0.662797 17.4234 1.12223L17.4194 1.11762C17.0988 0.765921 16.7085 0.484891 16.2732 0.292461C15.838 0.100032 15.3674 0.000426645 14.8916 0C13.7122 0 12.632 0.595309 12.0023 1.59239C11.3724 2.58948 11.2989 3.8206 11.8054 4.88554L11.9327 5.15306C12.0935 5.49125 12.2191 5.84512 12.3073 6.20906L4.95952 12.4352C4.4584 12.8591 4.05581 13.3873 3.77985 13.9829C3.50389 14.5784 3.36119 15.227 3.36171 15.8834V23.1244C3.36171 23.2432 3.33275 23.3617 3.27789 23.4671L0.790279 28.251C0.707495 28.4102 0.69136 28.5958 0.745421 28.767C0.799482 28.9381 0.919312 29.0808 1.07855 29.1635C1.23779 29.2463 1.42339 29.2625 1.59452 29.2084C1.76566 29.1543 1.90831 29.0345 1.99109 28.8753L4.47861 24.0914C4.63364 23.7926 4.71473 23.4609 4.71509 23.1243V15.8833C4.71471 15.4235 4.81468 14.9691 5.00803 14.5518C5.20137 14.1346 5.48343 13.7646 5.83452 13.4676L12.447 7.86461C12.4397 7.97435 12.4292 8.08384 12.4153 8.19294L12.2294 9.6231C12.2049 9.8141 12.1821 10.0053 12.1612 10.1968L9.71197 13.123C9.55979 13.3047 9.44856 13.517 9.38586 13.7456C9.32316 13.9742 9.31046 14.2136 9.34863 14.4475L10.2262 19.8366C10.2822 20.1878 10.4618 20.5074 10.7328 20.7378C11.0037 20.9682 11.348 21.0942 11.7037 21.093H12.7391C13.2619 21.093 13.7538 20.8146 14.0229 20.3662L15.4511 17.9858C15.5233 17.8644 15.6196 17.7592 15.7341 17.6765C15.8486 17.5939 15.9789 17.5357 16.1168 17.5055C16.2545 17.4742 16.3971 17.4715 16.5359 17.4976C16.6747 17.5236 16.8066 17.5779 16.9235 17.6571L17.048 17.7406C17.2493 17.8759 17.3971 18.0772 17.4659 18.3098C17.5346 18.5424 17.52 18.7917 17.4246 19.0147L16.1034 22.0982C16.0357 22.2626 16.0355 22.447 16.1027 22.6116C16.1699 22.7762 16.2992 22.9078 16.4627 22.9778C16.6261 23.0478 16.8105 23.0507 16.9761 22.9859C17.1416 22.921 17.275 22.7936 17.3474 22.6312L18.6687 19.5477C19.1217 18.4905 18.7573 17.2579 17.8022 16.6169L17.6778 16.5334C17.1277 16.1643 16.4687 16.0403 15.822 16.1847C15.1754 16.329 14.6316 16.7214 14.2907 17.2895L12.8625 19.6698C12.8497 19.6911 12.8316 19.7087 12.81 19.7209C12.7884 19.7331 12.764 19.7396 12.7392 19.7397H11.7038C11.6696 19.7398 11.6366 19.7277 11.6106 19.7055C11.5846 19.6834 11.5673 19.6527 11.562 19.619L10.6844 14.2299C10.6775 14.1878 10.6798 14.1447 10.6911 14.1036C10.7024 14.0625 10.7224 14.0242 10.7498 13.9916L11.9961 12.5026C11.9573 13.6755 11.9864 14.8512 12.0845 16.0197C12.0919 16.1083 12.1167 16.1946 12.1574 16.2736C12.1981 16.3526 12.254 16.4228 12.3219 16.4801C12.3898 16.5375 12.4684 16.5809 12.553 16.6079C12.6377 16.6349 12.7269 16.6449 12.8155 16.6374C12.9943 16.6224 13.1598 16.537 13.2757 16.3999C13.3915 16.2628 13.4482 16.0853 13.4331 15.9065C13.2625 13.871 13.309 11.8231 13.5716 9.79742L13.7575 8.36725C13.8446 7.69748 13.8313 7.01846 13.7181 6.35261C13.7167 6.34467 13.715 6.33682 13.7137 6.32888C13.6082 5.72047 13.4202 5.12929 13.1551 4.57164L13.0279 4.30412C12.7218 3.6609 12.7663 2.91726 13.1467 2.3151C13.5271 1.71293 14.1792 1.35338 14.8916 1.35338C15.4801 1.35338 16.0223 1.59311 16.4183 2.02845C16.8144 2.46379 17.0019 3.02617 16.9465 3.61209L16.9107 3.99095C16.8463 4.67535 16.9586 5.36485 17.2369 5.99342C17.7884 7.23745 18.9197 8.10957 20.2631 8.32629L23.7814 8.89399C24.7121 9.04413 25.5746 9.39402 26.3242 9.91336C26.3474 9.93213 26.3717 9.94927 26.3969 9.96461C26.9699 10.3741 27.475 10.8835 27.8899 11.4814C27.9042 11.502 27.9171 11.5233 27.931 11.544L27.9338 11.5481C28.8693 12.9326 29.2051 14.5935 28.8768 16.2355L27.4986 23.1279C27.4789 23.2261 27.4813 23.3275 27.5056 23.4247C27.5299 23.5219 27.5755 23.6125 27.639 23.69C27.7026 23.7674 27.7826 23.8298 27.8732 23.8726C27.9638 23.9154 28.0627 23.9375 28.1629 23.9374C28.3193 23.9372 28.4707 23.8829 28.5915 23.7837C28.7123 23.6845 28.7951 23.5465 28.8258 23.3932L29.4633 20.2052L31.2671 22.3603C31.3122 22.4141 31.3316 22.4847 31.3203 22.5539L30.4496 27.9014C30.4413 27.9538 30.4145 28.0015 30.374 28.0358C30.3336 28.0702 30.2822 28.089 30.2292 28.0889H29.3065C29.2286 28.0889 29.1551 28.0474 29.1151 27.9804L27.7531 25.7106C27.401 25.1236 26.839 24.7181 26.1709 24.569C25.5029 24.4198 24.8217 24.5478 24.2532 24.9293C23.2663 25.5917 22.8899 26.8654 23.358 27.9577L25.2217 32.3073C26.0405 34.221 27.5379 35.7644 29.426 36.6407L30.1884 36.995L32.8355 40.5735C32.8985 40.6587 32.9805 40.7279 33.0751 40.7755C33.1697 40.8232 33.2741 40.8479 33.38 40.8478C33.5053 40.8477 33.6281 40.8128 33.7347 40.7471C33.8413 40.6813 33.9276 40.5873 33.9839 40.4754C34.0402 40.3635 34.0644 40.2382 34.0537 40.1134C34.0431 39.9886 33.998 39.8693 33.9235 39.7686L31.1738 36.0515C31.1066 35.9606 31.0176 35.888 30.9151 35.8403L29.9963 35.4134C28.4107 34.6774 27.1532 33.3812 26.4655 31.7741L24.6018 27.4245C24.4991 27.1845 24.4834 26.9161 24.5575 26.6657C24.6315 26.4153 24.7906 26.1986 25.0073 26.0529C25.1332 25.9677 25.2752 25.9092 25.4246 25.8812C25.5741 25.8531 25.7276 25.856 25.8759 25.8897C26.0244 25.9222 26.1646 25.9849 26.2878 26.0739C26.4111 26.1628 26.5147 26.2761 26.5924 26.4068L27.9543 28.6766C28.2376 29.1488 28.7557 29.4422 29.3064 29.4422H30.229C31.0058 29.4422 31.6603 28.8856 31.7852 28.1188L32.6559 22.7711C32.6927 22.5451 32.6804 22.3138 32.6198 22.093C32.5592 21.8722 32.4518 21.667 32.3047 21.4915L29.8035 18.5032L30.1673 16.6841L36.6374 22.2102C36.8406 22.3836 37.0039 22.599 37.1157 22.8417C37.2276 23.0843 37.2854 23.3483 37.2853 23.6155V26.1431C37.2853 26.5168 37.5882 26.8197 37.962 26.8197C38.3358 26.8197 38.6387 26.5168 38.6387 26.1431V23.6157C38.6389 23.1528 38.5386 22.6955 38.3449 22.2752C38.1511 21.8549 37.8684 21.4817 37.5163 21.1813ZM29.2304 7.61685C29.3837 7.60452 29.5378 7.62765 29.6807 7.68444C29.8237 7.74124 29.9516 7.83018 30.0547 7.94437C30.1585 8.05788 30.2348 8.19376 30.2777 8.34149C30.3205 8.48921 30.3288 8.64483 30.3019 8.79628C30.2429 9.13698 30.1004 9.45778 29.8873 9.73007C29.6742 10.0024 29.397 10.2177 29.0804 10.3568C28.9925 10.3956 28.9017 10.4248 28.809 10.4464C28.5177 10.0622 28.1905 9.70647 27.8318 9.38419C28.2703 8.9307 28.5916 8.37712 28.7679 7.7714C28.9072 7.68299 29.0659 7.62993 29.2304 7.61685ZM26.9223 5.41191C27.0907 5.50872 27.2345 5.64295 27.3426 5.80422C27.4508 5.96549 27.5204 6.14948 27.5461 6.34196C27.5865 6.63772 27.5731 6.93285 27.5127 7.21588C27.5093 7.22924 27.5069 7.24277 27.5044 7.25631C27.3877 7.76145 27.1186 8.21855 26.7336 8.56575C26.1287 8.19667 25.4746 7.91525 24.7907 7.7299C24.8095 7.70779 24.829 7.68632 24.8471 7.66376C25.3711 7.0145 25.672 6.21366 25.705 5.37997C25.8942 5.28252 26.105 5.23436 26.3178 5.23995C26.5305 5.24553 26.7385 5.30468 26.9223 5.41191ZM23.4679 3.65017C23.6502 3.71731 23.8145 3.82548 23.9482 3.9663C24.082 4.10713 24.1815 4.27683 24.2391 4.46229C24.3016 4.66132 24.3395 4.86729 24.3517 5.07555L24.3521 5.08169C24.3873 5.70848 24.1882 6.32598 23.7936 6.8142C23.6149 7.03527 23.3888 7.21335 23.132 7.33525L23.0012 7.39715L21.4676 7.14966C21.7977 6.80318 22.0583 6.3965 22.235 5.95173C22.52 5.23107 22.6129 4.44876 22.5048 3.68139C22.8091 3.54426 23.1554 3.53304 23.4679 3.65017ZM18.4741 5.44485C18.2897 5.02848 18.2154 4.57177 18.2581 4.11844L18.2939 3.73958C18.3391 3.25688 18.2812 2.77008 18.1239 2.31149C18.4532 1.97224 18.9067 1.79387 19.3832 1.81967C19.6319 1.83237 19.8745 1.90213 20.092 2.02356C20.3095 2.14498 20.4961 2.31481 20.6375 2.51991C20.8451 2.81958 20.9988 3.15323 21.0916 3.50581C21.0965 3.52863 21.1026 3.55119 21.1099 3.57348C21.2602 4.19915 21.2135 4.85597 20.9764 5.45414C20.8452 5.78463 20.6416 6.08144 20.3803 6.32265L19.8529 6.80852C19.2372 6.54493 18.7444 6.05758 18.4741 5.44485Z" fill="white"/>
<path d="M20.8276 29.7477C20.7043 29.7478 20.5833 29.7142 20.4777 29.6505C20.3721 29.5869 20.2859 29.4956 20.2284 29.3865C19.7905 28.5559 19.5591 27.6176 19.5591 26.6731C19.5591 25.0228 20.2634 23.4432 21.4914 22.3393C21.5575 22.2799 21.6346 22.2341 21.7184 22.2045C21.8022 22.1749 21.891 22.1621 21.9798 22.1668C22.0685 22.1716 22.1555 22.1937 22.2357 22.2321C22.3158 22.2704 22.3877 22.3241 22.4471 22.3902C22.5065 22.4563 22.5523 22.5334 22.5819 22.6172C22.6115 22.701 22.6243 22.7898 22.6196 22.8786C22.6148 22.9673 22.5927 23.0542 22.5544 23.1344C22.516 23.2146 22.4623 23.2864 22.3962 23.3458C21.9297 23.7655 21.5565 24.2786 21.3009 24.8518C21.0454 25.4249 20.913 26.0454 20.9125 26.673C20.9125 27.3985 21.09 28.1185 21.4257 28.7552C21.4672 28.8338 21.4927 28.9198 21.501 29.0083C21.5092 29.0968 21.4999 29.186 21.4736 29.2709C21.4473 29.3558 21.4046 29.4347 21.3478 29.503C21.2911 29.5714 21.2214 29.6279 21.1428 29.6694C21.0457 29.7208 20.9375 29.7477 20.8276 29.7477ZM24.32 22.3108C24.1648 22.3106 24.0144 22.2571 23.8939 22.1592C23.7735 22.0613 23.6904 21.925 23.6585 21.7731C23.6402 21.6861 23.6392 21.5964 23.6556 21.5091C23.672 21.4217 23.7054 21.3385 23.754 21.2641C23.8026 21.1896 23.8654 21.1255 23.9387 21.0754C24.0121 21.0252 24.0946 20.99 24.1816 20.9718C24.9261 20.8167 25.6936 20.8069 26.4418 20.943C26.5292 20.959 26.6126 20.9921 26.6872 21.0404C26.7619 21.0887 26.8262 21.1512 26.8767 21.2243C26.9272 21.2975 26.9627 21.3798 26.9814 21.4667C27 21.5536 27.0013 21.6433 26.9853 21.7307C26.9693 21.8181 26.9362 21.9015 26.8879 21.9761C26.8396 22.0508 26.7771 22.1151 26.704 22.1656C26.6308 22.2161 26.5485 22.2516 26.4616 22.2703C26.3747 22.2889 26.285 22.2902 26.1976 22.2742C25.6223 22.1696 25.0323 22.1771 24.4598 22.2963C24.4138 22.306 24.367 22.3108 24.32 22.3108ZM21.1519 20.4354C21.0445 20.4354 20.9386 20.4099 20.8431 20.3609C20.7475 20.3119 20.6649 20.2409 20.6023 20.1536C20.5396 20.0664 20.4986 19.9656 20.4826 19.8594C20.4666 19.7532 20.4761 19.6447 20.5104 19.5429C20.6527 19.1188 20.7251 18.6743 20.7245 18.2269C20.7245 15.9523 18.8739 14.1016 16.5992 14.1016C16.3188 14.1016 16.0388 14.1298 15.767 14.1855C15.401 14.2607 15.0433 14.0243 14.9685 13.6582C14.9506 13.5711 14.9501 13.4814 14.967 13.3942C14.9838 13.3069 15.0177 13.2238 15.0667 13.1497C15.1156 13.0755 15.1787 13.0117 15.2524 12.962C15.326 12.9122 15.4087 12.8774 15.4957 12.8596C15.8589 12.7856 16.2286 12.7483 16.5992 12.7484C19.6201 12.7484 22.0779 15.2061 22.0779 18.227C22.0784 18.821 21.9823 19.4112 21.7932 19.9743C21.748 20.1086 21.6618 20.2253 21.5468 20.308C21.4317 20.3908 21.2936 20.4353 21.1519 20.4354Z" fill="white"/>
</svg>
