<svg width="40" height="40" viewBox="0 0 40 40" fill="none" xmlns="http://www.w3.org/2000/svg">
<path d="M20.3628 40C18.7674 40 17.2872 39.3596 16.1949 38.1966C15.1027 37.0337 14.5562 35.5163 14.6562 33.924L14.7281 32.7777C14.7379 32.6219 14.8091 32.4764 14.9262 32.3732C15.0432 32.27 15.1965 32.2175 15.3522 32.2272C15.508 32.237 15.6535 32.3082 15.7567 32.4253C15.8599 32.5423 15.9124 32.6956 15.9027 32.8514L15.8307 33.9977C15.7513 35.2623 16.1854 36.4674 17.0528 37.3909C17.9202 38.3145 19.0957 38.8231 20.3627 38.8231C22.4896 38.8231 24.3091 37.3757 24.7874 35.3032L25.0825 34.0248C25.1608 33.6829 25.2287 33.3388 25.286 32.9928C25.2986 32.9165 25.3261 32.8435 25.367 32.7779C25.4079 32.7123 25.4613 32.6554 25.5242 32.6105C25.5871 32.5655 25.6583 32.5334 25.7336 32.516C25.8089 32.4986 25.8869 32.4963 25.9632 32.509C26.1171 32.5347 26.2545 32.6204 26.3453 32.7474C26.436 32.8744 26.4725 33.0322 26.4469 33.1861C26.3857 33.556 26.3131 33.924 26.2292 34.2894L25.9341 35.5679C25.332 38.1776 23.0409 40 20.3628 40ZM15.4734 30.8954C15.393 30.8955 15.3134 30.8791 15.2396 30.8472C15.1658 30.8153 15.0992 30.7686 15.0441 30.71C14.9891 30.6514 14.9466 30.5822 14.9193 30.5065C14.892 30.4308 14.8805 30.3504 14.8856 30.2701L14.9601 29.0832C15.0441 27.7336 14.9931 26.379 14.808 25.0395C14.7885 24.8858 14.8305 24.7307 14.9247 24.6077C15.019 24.4848 15.1579 24.404 15.3113 24.3828C15.4648 24.3616 15.6204 24.4017 15.7444 24.4946C15.8685 24.5874 15.9509 24.7253 15.9738 24.8785C16.1697 26.2957 16.2236 27.729 16.1347 29.1569L16.0601 30.3438C16.0508 30.4931 15.9849 30.6332 15.8759 30.7356C15.7669 30.8381 15.623 30.8952 15.4734 30.8954ZM37.052 32.6862C36.9442 32.6863 36.8385 32.6568 36.7464 32.6008C36.6542 32.5449 36.5792 32.4647 36.5295 32.3691L34.3665 28.2092C34.2317 27.9494 34.1612 27.661 34.1609 27.3682V25.2409C34.1609 24.916 34.4243 24.6525 34.7493 24.6525C35.0744 24.6525 35.3378 24.916 35.3378 25.2409V27.3682C35.3378 27.4715 35.3629 27.5746 35.4106 27.6662L37.5737 31.8262C37.6204 31.9158 37.6431 32.016 37.6398 32.117C37.6365 32.218 37.6072 32.3165 37.5548 32.4029C37.5024 32.4894 37.4286 32.5608 37.3405 32.6104C37.2525 32.66 37.1531 32.6861 37.052 32.6862ZM9.235 28.2598C9.12608 28.2597 9.01932 28.2294 8.9266 28.1723C8.83389 28.1151 8.75885 28.0333 8.70986 27.9361C8.66087 27.8388 8.63984 27.7298 8.64911 27.6213C8.65838 27.5128 8.69759 27.4089 8.76238 27.3214L11.1533 24.0892C11.2118 24.0101 11.2892 23.947 11.3784 23.9055L12.2013 23.523C13.2018 23.0576 14.0573 22.3294 14.6768 21.4162C14.7653 21.2893 14.9003 21.2024 15.0525 21.1742C15.2046 21.1461 15.3618 21.1791 15.4898 21.266C15.6179 21.3529 15.7065 21.4867 15.7366 21.6385C15.7667 21.7903 15.7358 21.9478 15.6505 22.077C14.9115 23.1664 13.8908 24.035 12.6972 24.5902L12.0103 24.9095L9.70849 28.0212C9.6538 28.0953 9.58244 28.1555 9.50019 28.197C9.41795 28.2384 9.3271 28.2599 9.235 28.2598Z" fill="#18BCC7"/>
<path d="M34.3618 18.4185L28.1318 13.0974C28.1406 12.0596 27.9027 11.042 27.4322 10.1112C27.4551 10.1018 27.4782 10.0929 27.5009 10.0829C27.9536 9.88393 28.3501 9.57601 28.6549 9.18659C28.9597 8.79718 29.1634 8.33838 29.2478 7.85112C29.3575 7.22182 29.1742 6.58961 28.7445 6.11683C28.3149 5.64412 27.7035 5.40138 27.0663 5.45002C27.0005 5.45512 26.9354 5.4643 26.8707 5.47567C26.8667 5.43566 26.8635 5.39565 26.858 5.35556C26.7619 4.65164 26.3542 4.04368 25.7394 3.68764C25.1824 3.36502 24.5307 3.29363 23.9233 3.48161C23.7023 2.82602 23.2069 2.31323 22.5564 2.07111C22.0352 1.87709 21.476 1.88014 20.968 2.06923C20.8775 1.87806 20.7717 1.69455 20.6516 1.5205C20.1911 0.856751 19.4643 0.450971 18.6576 0.407271C18.008 0.372043 17.3845 0.576346 16.8898 0.975849L16.8863 0.971848C16.6076 0.666018 16.2681 0.421644 15.8896 0.254314C15.5112 0.086984 15.102 0.000370996 14.6882 0C13.6627 0 12.7234 0.51766 12.1757 1.38469C11.628 2.25172 11.5641 3.32226 12.0046 4.24829L12.1153 4.48092C12.2551 4.775 12.3643 5.08271 12.441 5.39918L6.05162 10.8132C5.61587 11.1818 5.2658 11.6411 5.02583 12.159C4.78586 12.6769 4.66177 13.2409 4.66223 13.8117V20.1082C4.66223 20.2115 4.63704 20.3145 4.58934 20.4062L2.4262 24.5661C2.35422 24.7045 2.34019 24.8659 2.3872 25.0148C2.4342 25.1636 2.5384 25.2876 2.67687 25.3596C2.81534 25.4316 2.97673 25.4456 3.12555 25.3986C3.27436 25.3516 3.3984 25.2474 3.47039 25.1089L5.63345 20.9491C5.76825 20.6892 5.83877 20.4008 5.83908 20.1081V13.8116C5.83876 13.4117 5.92569 13.0166 6.09381 12.6538C6.26193 12.291 6.5072 11.9692 6.8125 11.711L12.5625 6.83879C12.5562 6.93421 12.547 7.02943 12.5349 7.12429L12.3733 8.36792C12.3519 8.534 12.3321 8.70028 12.314 8.86675L10.1842 11.4113C10.0519 11.5693 9.95515 11.7539 9.90062 11.9527C9.8461 12.1514 9.83506 12.3596 9.86825 12.563L10.6313 17.2492C10.68 17.5546 10.8362 17.8325 11.0718 18.0329C11.3074 18.2332 11.6069 18.3428 11.9161 18.3418H12.8165C13.2711 18.3418 13.6988 18.0997 13.9328 17.7097L15.1748 15.6398C15.2375 15.5343 15.3213 15.4427 15.4209 15.3709C15.5204 15.2991 15.6337 15.2484 15.7536 15.2222C15.8733 15.1949 15.9974 15.1926 16.118 15.2153C16.2387 15.2379 16.3534 15.2851 16.4551 15.354L16.5634 15.4266C16.7384 15.5443 16.8669 15.7193 16.9267 15.9216C16.9865 16.1238 16.9738 16.3406 16.8909 16.5345L15.7419 19.2158C15.6831 19.3588 15.6829 19.5192 15.7413 19.6623C15.7998 19.8054 15.9122 19.9198 16.0544 19.9807C16.1965 20.0416 16.3569 20.0441 16.5008 19.9877C16.6448 19.9313 16.7608 19.8205 16.8237 19.6793L17.9726 16.998C18.3666 16.0787 18.0497 15.0069 17.2192 14.4495L17.111 14.3769C16.6327 14.0559 16.0596 13.9481 15.4973 14.0736C14.935 14.1992 14.4621 14.5404 14.1657 15.0343L12.9238 17.1042C12.9126 17.1227 12.8969 17.138 12.8781 17.1486C12.8594 17.1592 12.8382 17.1649 12.8166 17.1649H11.9162C11.8865 17.165 11.8578 17.1545 11.8352 17.1352C11.8126 17.116 11.7976 17.0893 11.7929 17.06L11.0298 12.3739C11.0238 12.3372 11.0258 12.2998 11.0356 12.264C11.0454 12.2282 11.0629 12.195 11.0867 12.1666L12.1704 10.8718C12.1367 11.8917 12.1619 12.9141 12.2473 13.9302C12.2537 14.0072 12.2752 14.0822 12.3107 14.1509C12.3461 14.2196 12.3947 14.2807 12.4537 14.3305C12.5128 14.3804 12.581 14.4182 12.6547 14.4417C12.7283 14.4651 12.8059 14.4739 12.8829 14.4673C13.0384 14.4543 13.1823 14.38 13.2831 14.2608C13.3838 14.1416 13.4331 13.9873 13.42 13.8317C13.2716 12.0617 13.312 10.281 13.5404 8.51949L13.7021 7.27587C13.7778 6.69346 13.7662 6.10301 13.6678 5.524C13.6666 5.5171 13.6651 5.51027 13.6639 5.50337C13.5722 4.97432 13.4088 4.46025 13.1782 3.97534L13.0676 3.74272C12.8014 3.18339 12.8401 2.53675 13.1709 2.01313C13.5017 1.48951 14.0688 1.17686 14.6882 1.17686C15.2 1.17686 15.6714 1.38532 16.0158 1.76387C16.3603 2.14243 16.5233 2.63145 16.4751 3.14095L16.444 3.47039C16.3879 4.06552 16.4856 4.66508 16.7276 5.21167C17.2072 6.29343 18.1909 7.0518 19.3591 7.24025L22.4185 7.7339C23.2278 7.86446 23.9778 8.16871 24.6296 8.62031C24.6498 8.63663 24.6709 8.65154 24.6928 8.66488C25.1911 9.02091 25.6303 9.46388 25.9911 9.98382C26.0035 10.0017 26.0147 10.0202 26.0269 10.0383L26.0292 10.0418C26.8427 11.2457 27.1348 12.69 26.8493 14.1178L25.6508 20.1112C25.6337 20.1966 25.6358 20.2848 25.6569 20.3693C25.678 20.4539 25.7177 20.5326 25.7729 20.6C25.8282 20.6673 25.8978 20.7216 25.9765 20.7588C26.0553 20.796 26.1414 20.8152 26.2285 20.8151C26.3644 20.8149 26.4961 20.7677 26.6012 20.6814C26.7063 20.5952 26.7782 20.4752 26.8049 20.342L27.3593 17.5698L28.9278 19.4437C28.967 19.4905 28.9838 19.5519 28.974 19.6121L28.2169 24.2621C28.2097 24.3076 28.1864 24.3491 28.1512 24.379C28.1161 24.4089 28.0714 24.4252 28.0253 24.4251H27.2229C27.1552 24.4251 27.0913 24.389 27.0565 24.3308L25.8722 22.357C25.5659 21.8466 25.0772 21.494 24.4963 21.3643C23.9154 21.2346 23.3231 21.3459 22.8287 21.6777C21.9706 22.2536 21.6432 23.3612 22.0503 24.311L23.6709 28.0933C24.3829 29.7574 25.685 31.0995 27.3268 31.8615L27.9898 32.1696L30.2916 35.2813C30.3464 35.3554 30.4177 35.4155 30.5 35.457C30.5822 35.4984 30.673 35.5199 30.7651 35.5198C30.874 35.5197 30.9808 35.4894 31.0735 35.4322C31.1662 35.3751 31.2412 35.2933 31.2902 35.196C31.3392 35.0987 31.3602 34.9898 31.3509 34.8812C31.3417 34.7727 31.3025 34.6689 31.2377 34.5814L28.8467 31.3492C28.7882 31.2701 28.7109 31.2069 28.6217 31.1655L27.8228 30.7942C26.444 30.1543 25.3505 29.0272 24.7525 27.6297L23.1319 23.8474C23.0426 23.6387 23.029 23.4053 23.0933 23.1875C23.1577 22.9698 23.296 22.7814 23.4845 22.6547C23.5939 22.5806 23.7175 22.5298 23.8474 22.5054C23.9773 22.4809 24.1109 22.4835 24.2398 22.5128C24.3689 22.5411 24.4908 22.5956 24.598 22.6729C24.7051 22.7503 24.7953 22.8488 24.8628 22.9624L26.0471 24.9362C26.2935 25.3468 26.744 25.6019 27.2228 25.6019H28.0251C28.7006 25.6019 29.2697 25.1179 29.3783 24.4511L30.1354 19.801C30.1675 19.6045 30.1568 19.4033 30.1041 19.2113C30.0514 19.0193 29.9579 18.8409 29.8301 18.6882L27.6551 16.0897L27.9714 14.5079L33.5976 19.3132C33.7743 19.464 33.9163 19.6513 34.0135 19.8623C34.1108 20.0733 34.1611 20.3029 34.161 20.5352V22.7331C34.161 23.0581 34.4244 23.3215 34.7494 23.3215C35.0745 23.3215 35.3378 23.0581 35.3378 22.7331V20.5353C35.338 20.1329 35.2509 19.7352 35.0824 19.3697C34.9139 19.0042 34.668 18.6797 34.3618 18.4185ZM27.1567 6.62334C27.2901 6.61262 27.424 6.63274 27.5483 6.68212C27.6726 6.73151 27.7839 6.80885 27.8735 6.90814C27.9638 7.00685 28.0301 7.12501 28.0674 7.25347C28.1047 7.38193 28.1119 7.51724 28.0885 7.64894C28.0372 7.9452 27.9133 8.22416 27.728 8.46093C27.5426 8.69771 27.3016 8.88494 27.0263 9.00593C26.9498 9.03967 26.8709 9.06509 26.7903 9.08384C26.537 8.7497 26.2525 8.44041 25.9406 8.16016C26.3219 7.76583 26.6013 7.28445 26.7546 6.75774C26.8757 6.68086 27.0137 6.63472 27.1567 6.62334ZM25.1497 4.70601C25.2961 4.79019 25.4211 4.90691 25.5152 5.04715C25.6092 5.18738 25.6698 5.34738 25.6921 5.51475C25.7272 5.77193 25.7156 6.02856 25.6631 6.27468C25.6602 6.28629 25.658 6.29806 25.6558 6.30983C25.5544 6.74909 25.3204 7.14657 24.9856 7.44848C24.4596 7.12754 23.8908 6.88282 23.2961 6.72165C23.3125 6.70243 23.3294 6.68376 23.3452 6.66414C23.8009 6.09957 24.0625 5.40318 24.0912 4.67824C24.2557 4.5935 24.439 4.55162 24.624 4.55648C24.809 4.56133 24.9898 4.61276 25.1497 4.70601ZM22.1459 3.17406C22.3044 3.23244 22.4473 3.3265 22.5636 3.44896C22.6798 3.57142 22.7664 3.71899 22.8165 3.88025C22.8709 4.05332 22.9038 4.23242 22.9144 4.41352L22.9147 4.41886C22.9453 4.96389 22.7722 5.50085 22.4291 5.92539C22.2737 6.11763 22.0771 6.27247 21.8538 6.37848L21.7401 6.4323L20.4064 6.21709C20.6935 5.91581 20.9201 5.56217 21.0738 5.17542C21.3216 4.54875 21.4024 3.86849 21.3084 3.2012C21.573 3.08196 21.8741 3.0722 22.1459 3.17406ZM17.8034 4.73465C17.6431 4.37259 17.5784 3.97545 17.6156 3.58125L17.6467 3.25181C17.6861 2.83207 17.6357 2.40876 17.4989 2.00999C17.7853 1.71499 18.1796 1.55988 18.5939 1.58232C18.8103 1.59337 19.0211 1.65403 19.2103 1.75961C19.3994 1.8652 19.5617 2.01288 19.6846 2.19123C19.8652 2.45181 19.9988 2.74194 20.0795 3.04853C20.0837 3.06838 20.0891 3.08799 20.0954 3.10737C20.2261 3.65144 20.1855 4.22258 19.9793 4.74273C19.8653 5.03011 19.6882 5.2882 19.461 5.49796L19.0024 5.92045C18.467 5.69124 18.0385 5.26746 17.8034 4.73465Z" fill="#18BCC7"/>
<path d="M19.85 25.8676C19.7428 25.8677 19.6376 25.8385 19.5458 25.7831C19.454 25.7278 19.379 25.6484 19.329 25.5535C18.9482 24.8312 18.7469 24.0154 18.7469 23.194C18.7469 21.759 19.3594 20.3855 20.4273 19.4256C20.4847 19.3739 20.5518 19.3341 20.6247 19.3083C20.6975 19.2826 20.7748 19.2715 20.8519 19.2756C20.9291 19.2797 21.0047 19.2989 21.0744 19.3323C21.1441 19.3656 21.2066 19.4123 21.2583 19.4698C21.3099 19.5273 21.3498 19.5943 21.3755 19.6672C21.4012 19.7401 21.4124 19.8173 21.4083 19.8944C21.4041 19.9716 21.3849 20.0472 21.3515 20.1169C21.3182 20.1866 21.2715 20.2491 21.214 20.3007C20.8083 20.6657 20.4839 21.1119 20.2616 21.6103C20.0394 22.1087 19.9243 22.6482 19.9239 23.1939C19.9239 23.8248 20.0782 24.4509 20.3701 25.0046C20.4062 25.0729 20.4284 25.1477 20.4356 25.2246C20.4427 25.3016 20.4346 25.3792 20.4118 25.453C20.3889 25.5268 20.3518 25.5954 20.3024 25.6549C20.253 25.7143 20.1924 25.7635 20.1241 25.7995C20.0397 25.8442 19.9456 25.8676 19.85 25.8676ZM22.8869 19.4008C22.7519 19.4006 22.6211 19.354 22.5164 19.2689C22.4117 19.1838 22.3394 19.0652 22.3116 18.9332C22.2957 18.8575 22.2949 18.7795 22.3091 18.7036C22.3234 18.6276 22.3525 18.5552 22.3947 18.4905C22.437 18.4258 22.4915 18.3701 22.5553 18.3265C22.6191 18.2829 22.6909 18.2522 22.7665 18.2364C23.4139 18.1015 24.0813 18.093 24.732 18.2114C24.808 18.2253 24.8805 18.2541 24.9454 18.2961C25.0102 18.338 25.0662 18.3924 25.1101 18.456C25.154 18.5196 25.1849 18.5912 25.2011 18.6668C25.2173 18.7423 25.2185 18.8203 25.2045 18.8963C25.1906 18.9723 25.1618 19.0448 25.1198 19.1097C25.0779 19.1746 25.0235 19.2306 24.9599 19.2745C24.8963 19.3184 24.8247 19.3493 24.7491 19.3655C24.6736 19.3817 24.5956 19.3829 24.5196 19.3689C24.0193 19.278 23.5062 19.2845 23.0085 19.3881C22.9685 19.3965 22.9277 19.4008 22.8869 19.4008ZM20.132 17.77C20.0386 17.77 19.9466 17.7478 19.8635 17.7052C19.7804 17.6626 19.7086 17.6008 19.6541 17.525C19.5996 17.4491 19.5639 17.3614 19.55 17.2691C19.5361 17.1767 19.5444 17.0824 19.5742 16.9939C19.698 16.6251 19.7609 16.2386 19.7604 15.8496C19.7604 13.8716 18.1511 12.2623 16.1732 12.2623C15.9293 12.2623 15.6859 12.2868 15.4495 12.3352C15.1312 12.4007 14.8202 12.1951 14.7551 11.8767C14.7396 11.801 14.7392 11.723 14.7538 11.6471C14.7685 11.5713 14.798 11.499 14.8405 11.4345C14.8831 11.3701 14.938 11.3146 15.002 11.2713C15.066 11.228 15.1379 11.1978 15.2136 11.1823C15.5294 11.1179 15.8509 11.0855 16.1732 11.0856C18.8001 11.0856 20.9372 13.2227 20.9372 15.8496C20.9377 16.3662 20.8541 16.8793 20.6897 17.369C20.6504 17.4858 20.5754 17.5873 20.4754 17.6592C20.3753 17.7312 20.2552 17.7699 20.132 17.77Z" fill="#18BCC7"/>
</svg>
