<svg width="18" height="24" viewBox="0 0 18 24" fill="none" xmlns="http://www.w3.org/2000/svg">
<path d="M9.00006 23.9976C8.87821 23.9974 8.76057 23.953 8.66906 23.8726C8.31506 23.5596 6.10352e-05 16.1416 6.10352e-05 8.99756C6.10352e-05 4.03456 4.03806 -0.00244141 9.00006 -0.00244141C13.9621 -0.00244141 18.0001 4.03456 18.0001 8.99756C18.0001 16.1416 9.68506 23.5596 9.33106 23.8726C9.23955 23.953 9.12191 23.9974 9.00006 23.9976ZM9.00006 0.997559C4.58906 0.997559 1.00006 4.58656 1.00006 8.99756C1.00006 14.9156 7.45106 21.3556 9.00006 22.8166C10.5491 21.3556 17.0001 14.9156 17.0001 8.99756C17.0001 4.58656 13.4111 0.997559 9.00006 0.997559Z" fill="white"/>
<path d="M9.00006 13.9976C6.24306 13.9976 4.00006 11.7546 4.00006 8.99756C4.00006 6.24056 6.24306 3.99756 9.00006 3.99756C11.7571 3.99756 14.0001 6.24056 14.0001 8.99756C14.0001 11.7546 11.7571 13.9976 9.00006 13.9976ZM9.00006 4.99756C6.79406 4.99756 5.00006 6.79156 5.00006 8.99756C5.00006 11.2036 6.79406 12.9976 9.00006 12.9976C11.2061 12.9976 13.0001 11.2036 13.0001 8.99756C13.0001 6.79156 11.2061 4.99756 9.00006 4.99756Z" fill="white"/>
</svg>
