<svg width="40" height="40" viewBox="0 0 40 40" fill="none" xmlns="http://www.w3.org/2000/svg">
<g clip-path="url(#clip0_555_420)">
<g clip-path="url(#clip1_555_420)">
<path d="M31.6488 20.895L33.0938 21.4563C33.4046 21.5775 33.687 21.7616 33.9234 21.997C34.1597 22.2325 34.3449 22.5142 34.4673 22.8246L35.0433 24.291C35.0892 24.4079 35.1693 24.5082 35.273 24.5789C35.3768 24.6497 35.4994 24.6875 35.625 24.6875C35.7506 24.6875 35.8732 24.6497 35.977 24.5789C36.0808 24.5082 36.1608 24.4079 36.2067 24.291L36.7827 22.8247C36.9051 22.5143 37.0903 22.2326 37.3266 21.9971C37.563 21.7616 37.8454 21.5775 38.1563 21.4563L39.6013 20.895C39.7187 20.8494 39.8196 20.7693 39.8907 20.6654C39.9619 20.5614 39.9999 20.4384 39.9999 20.3124C39.9999 20.1864 39.9619 20.0634 39.8907 19.9595C39.8196 19.8555 39.7187 19.7755 39.6013 19.7298L38.1563 19.1685C37.8454 19.0473 37.563 18.8632 37.3266 18.6278C37.0903 18.3923 36.9051 18.1105 36.7827 17.8002L36.2067 16.3338C36.1608 16.217 36.0808 16.1166 35.977 16.0459C35.8732 15.9752 35.7506 15.9374 35.625 15.9374C35.4994 15.9374 35.3768 15.9752 35.273 16.0459C35.1693 16.1166 35.0892 16.217 35.0433 16.3338L34.4673 17.8002C34.3449 18.1105 34.1597 18.3923 33.9234 18.6277C33.687 18.8632 33.4046 19.0473 33.0938 19.1685L31.6488 19.7298C31.5313 19.7755 31.4304 19.8555 31.3593 19.9595C31.2882 20.0634 31.2501 20.1864 31.2501 20.3124C31.2501 20.4384 31.2882 20.5614 31.3593 20.6654C31.4304 20.7693 31.5313 20.8494 31.6488 20.895ZM35.625 18.2717C35.9931 19.1971 36.7286 19.9375 37.6502 20.3124C37.1928 20.4991 36.7778 20.776 36.4298 21.1266C36.0819 21.4772 35.8081 21.8944 35.625 22.3531C35.4419 21.8944 35.1682 21.4772 34.8202 21.1266C34.4723 20.776 34.0572 20.4991 33.5999 20.3124C34.5214 19.9375 35.2569 19.1972 35.625 18.2717ZM28.1745 23.2591L27.2111 23.6332C27.0937 23.6788 26.9928 23.7589 26.9216 23.8628C26.8505 23.9668 26.8124 24.0898 26.8124 24.2158C26.8124 24.3417 26.8505 24.4648 26.9216 24.5687C26.9928 24.6727 27.0937 24.7527 27.2111 24.7984L28.1745 25.1726C28.3549 25.2429 28.5188 25.3498 28.656 25.4864C28.7931 25.6231 28.9006 25.7866 28.9717 25.9667L29.3556 26.9444C29.4015 27.0613 29.4815 27.1617 29.5853 27.2325C29.6891 27.3033 29.8117 27.3411 29.9374 27.3411C30.063 27.3411 30.1856 27.3033 30.2894 27.2325C30.3932 27.1617 30.4732 27.0613 30.5191 26.9444L30.9031 25.9667C30.9742 25.7866 31.0816 25.6231 31.2188 25.4864C31.356 25.3498 31.5199 25.2429 31.7003 25.1726L32.6636 24.7984C32.781 24.7527 32.8819 24.6727 32.9531 24.5687C33.0242 24.4648 33.0623 24.3417 33.0623 24.2158C33.0623 24.0898 33.0242 23.9668 32.9531 23.8628C32.8819 23.7589 32.781 23.6788 32.6636 23.6332L31.7003 23.2591C31.3364 23.1177 31.0459 22.8282 30.9031 22.4649L30.5191 21.4873C30.4732 21.3704 30.3931 21.27 30.2894 21.1993C30.1856 21.1285 30.0629 21.0907 29.9373 21.0907C29.8117 21.0907 29.6891 21.1286 29.5853 21.1993C29.4815 21.2701 29.4015 21.3704 29.3556 21.4873L28.9717 22.4649C28.9006 22.645 28.7931 22.8086 28.656 22.9452C28.5188 23.0819 28.3549 23.1887 28.1745 23.2591ZM29.9374 23.3219C30.1581 23.6867 30.4631 23.9933 30.8269 24.2158C30.4632 24.4384 30.1582 24.7449 29.9374 25.1098C29.7167 24.7449 29.4117 24.4384 29.0479 24.2159C29.4116 23.9933 29.7166 23.6867 29.9374 23.3219ZM10.6627 26.2197C10.6425 26.3137 10.6442 26.4111 10.6678 26.5043C10.6913 26.5975 10.7361 26.6841 10.7985 26.7572C10.9992 26.992 12.8039 29.0513 14.3533 29.0513C15.9027 29.0513 17.7074 26.992 17.9081 26.7572C17.9705 26.6841 18.0153 26.5975 18.0389 26.5043C18.0624 26.4111 18.0642 26.3137 18.0439 26.2197C18.0237 26.1257 17.982 26.0376 17.9222 25.9623C17.8624 25.887 17.786 25.8266 17.699 25.7856C17.4677 25.6767 15.4084 24.7219 14.3533 24.7219C13.2982 24.7219 11.2389 25.6768 11.0076 25.7856C10.9206 25.8265 10.8442 25.887 10.7843 25.9623C10.7245 26.0376 10.6829 26.1257 10.6627 26.2197ZM14.3533 25.9719C14.7704 25.9719 15.6256 26.2655 16.364 26.5664C15.7035 27.1948 14.876 27.8013 14.3533 27.8013C13.8306 27.8013 13.0029 27.1946 12.3426 26.5664C13.081 26.2655 13.9361 25.9719 14.3533 25.9719ZM8.95329 14.2216C6.97423 14.2216 5.8886 15.1991 5.84337 15.2407C5.58931 15.4744 5.57048 15.8718 5.80415 16.1259C5.86269 16.1898 5.9339 16.2409 6.01326 16.2759C6.09261 16.3108 6.17837 16.3289 6.26509 16.3289C6.41509 16.3289 6.56548 16.2748 6.68501 16.1648C6.69142 16.1591 6.72899 16.1271 6.79462 16.0806C6.87423 17.2023 7.81165 18.0907 8.95329 18.0907C10.0949 18.0907 11.0327 17.202 11.112 16.0802C11.1756 16.1252 11.2117 16.1559 11.2171 16.1608C11.3396 16.2702 11.5002 16.327 11.6642 16.3189C11.8282 16.3108 11.9825 16.2385 12.0936 16.1177C12.2048 15.9968 12.2639 15.837 12.2582 15.6729C12.2525 15.5088 12.1825 15.3535 12.0632 15.2406C12.018 15.1991 10.9324 14.2216 8.95329 14.2216ZM9.86813 15.926C9.86813 16.4304 9.45774 16.8407 8.95329 16.8407C8.44884 16.8407 8.03853 16.4304 8.03853 15.926C8.03853 15.7946 8.06665 15.6668 8.11985 15.5493C8.36696 15.5023 8.6436 15.4716 8.95329 15.4716C9.26298 15.4716 9.53978 15.5023 9.78689 15.5493C9.8405 15.6676 9.8682 15.7961 9.86813 15.926ZM19.7534 14.2216C17.7743 14.2216 16.6887 15.1991 16.6434 15.2407C16.3894 15.4744 16.3706 15.8718 16.6042 16.1259C16.6628 16.1898 16.734 16.2409 16.8133 16.2759C16.8927 16.3108 16.9785 16.3289 17.0652 16.3289C17.2152 16.3289 17.3656 16.2748 17.4851 16.1648C17.4915 16.1591 17.5291 16.1271 17.5947 16.0806C17.6743 17.2023 18.6117 18.0907 19.7534 18.0907C20.895 18.0907 21.8325 17.2023 21.9121 16.0805C21.9761 16.1259 22.0133 16.1574 22.0211 16.1643C22.1441 16.2727 22.3048 16.3285 22.4685 16.3195C22.6322 16.3106 22.7859 16.2377 22.8963 16.1165C23.0068 15.9954 23.0653 15.8357 23.0591 15.6718C23.0529 15.508 22.9826 15.3531 22.8633 15.2406C22.8181 15.1991 21.7324 14.2216 19.7534 14.2216ZM20.6682 15.926C20.6682 16.4304 20.2578 16.8407 19.7534 16.8407C19.2489 16.8407 18.8386 16.4304 18.8386 15.926C18.8386 15.7947 18.8666 15.6668 18.9198 15.5494C19.167 15.5023 19.4436 15.4716 19.7534 15.4716C20.0631 15.4716 20.3397 15.5023 20.5869 15.5494C20.6405 15.6677 20.6683 15.7961 20.6682 15.926Z" fill="white"/>
<path d="M25.2638 36.3115C23.1307 35.7517 21.2031 35.3385 20.3466 35.1618L20.0168 30.7738C20.6009 30.2961 21.1556 29.7713 21.6527 29.2209C21.7626 29.0978 21.8193 28.9361 21.8104 28.7713C21.8015 28.6065 21.7278 28.4519 21.6053 28.3412C21.4829 28.2306 21.3216 28.1728 21.1567 28.1806C20.9919 28.1884 20.8368 28.2612 20.7253 28.3829C18.7727 30.5438 16.1055 32.0531 14.2391 32.0531C11.955 32.0531 8.13547 29.5731 6.44274 26.2539C6.05172 25.4873 5.1929 23.64 4.65743 21.2763C4.6893 21.2828 4.72149 21.2887 4.75399 21.2938L9.79086 22.0952C11.1881 22.318 12.5464 21.6076 13.172 20.329C13.8241 18.9959 14.2197 18.6694 14.3349 18.5971C14.4501 18.6694 14.8456 18.9959 15.4979 20.329C16.0471 21.4517 17.1613 22.1358 18.3703 22.1356C18.5384 22.1356 18.7085 22.1224 18.8791 22.0952L23.916 21.2938C23.9509 21.2883 23.9856 21.2818 24.0198 21.2746C23.9001 21.8025 23.7605 22.3257 23.6013 22.8431C23.5726 22.9366 23.5661 23.0355 23.5826 23.1319C23.599 23.2284 23.6379 23.3196 23.696 23.3983C23.7541 23.477 23.8299 23.5409 23.9173 23.5849C24.0046 23.629 24.1011 23.6519 24.1989 23.6519C24.3326 23.6518 24.4627 23.6089 24.5701 23.5294C24.6776 23.45 24.7568 23.3382 24.7961 23.2105C24.967 22.655 25.1165 22.0932 25.2444 21.5263C25.661 21.0199 27.1756 19.0616 28.0616 16.3516C29.4226 12.1893 28.624 8.2729 25.7522 5.02579C21.3423 0.0400099 14.6223 -0.017334 14.3384 -0.017334C14.0545 -0.017334 7.33446 0.0400099 2.92485 5.02579C0.0530518 8.2729 -0.745542 12.1892 0.615396 16.3516C1.50133 19.0609 3.0154 21.0191 3.43243 21.5259C3.99961 24.0412 4.9136 26.0073 5.32907 26.8219C6.03829 28.2124 7.25782 29.675 8.68696 30.8581L8.36344 35.162C7.11618 35.4195 3.5961 36.1795 0.437583 37.1726C0.359283 37.1972 0.286597 37.237 0.223678 37.2897C0.160758 37.3424 0.108837 37.407 0.0708803 37.4798C0.0329233 37.5525 0.00967356 37.6321 0.00245903 37.7138C-0.0047555 37.7956 0.00420646 37.878 0.0288331 37.9563C0.0687284 38.0831 0.148035 38.194 0.255232 38.2727C0.362429 38.3514 0.491931 38.3939 0.624927 38.394C0.688561 38.394 0.751818 38.3842 0.812505 38.3651C4.64321 37.1606 9.02672 36.3027 9.07055 36.2942C9.20504 36.268 9.32721 36.1984 9.41826 36.096C9.5093 35.9936 9.56419 35.8641 9.57446 35.7275L9.87415 31.7413C11.2981 32.6861 12.8355 33.3032 14.2391 33.3032C15.4038 33.3032 16.7546 32.8786 18.1454 32.0754C18.3776 31.941 18.6056 31.7995 18.8291 31.6511L19.1356 35.7275C19.1458 35.8641 19.2007 35.9936 19.2918 36.096C19.3828 36.1984 19.505 36.268 19.6395 36.2942C19.6639 36.299 22.1193 36.7785 24.9463 37.5206C24.9982 37.5343 25.0517 37.5412 25.1054 37.5413C25.2572 37.541 25.4037 37.4854 25.5175 37.3851C25.6314 37.2847 25.7049 37.1464 25.7242 36.9958C25.7436 36.8453 25.7076 36.6929 25.6228 36.5669C25.5381 36.441 25.4104 36.3502 25.2637 36.3115H25.2638ZM23.7193 20.0594L18.6824 20.8608C17.8321 20.9961 17.0031 20.5616 16.6204 19.7796C15.7923 18.0871 15.0873 17.3324 14.3347 17.3324C13.582 17.3324 12.877 18.0871 12.049 19.7796C11.6663 20.5616 10.838 20.9961 9.98696 20.8608L4.95008 20.0594C4.82021 20.0391 4.69635 19.9906 4.58725 19.9173C4.47814 19.844 4.38644 19.7477 4.3186 19.6351C4.31243 19.6236 4.30641 19.612 4.29961 19.6009C4.22712 19.4682 4.18919 19.3193 4.1893 19.168V14.6545C4.1893 12.898 5.55891 11.4156 7.30727 11.2798C9.72743 11.0918 12.0916 10.9965 14.3345 10.9965C16.5774 10.9965 18.9417 11.0918 21.3617 11.2798C23.1101 11.4156 24.4797 12.898 24.4797 14.6545V19.168C24.4805 19.383 24.4042 19.5911 24.2647 19.7547C24.1251 19.9182 23.9315 20.0263 23.7191 20.0593L23.7193 20.0594ZM23.3791 8.13938C25.174 10.2942 25.9634 12.7392 25.7299 15.418V14.6545C25.7299 12.2493 23.8538 10.2195 21.4587 10.0336C21.2922 10.0206 21.1267 10.0092 20.9608 9.9972C19.4788 9.02743 17.9205 8.32634 16.7041 7.8611C17.2917 7.75587 17.9242 7.66462 18.5043 7.62696C20.2798 7.51157 22.6803 7.98915 23.3791 8.13938ZM18.1138 9.83142C16.8259 9.77563 15.5622 9.74649 14.3348 9.74649C13.1073 9.74649 11.8488 9.77548 10.5638 9.83103C12.3086 8.99032 13.857 8.52376 14.3384 8.38821C14.8202 8.52392 16.3689 8.99063 18.1138 9.83142ZM3.8611 5.85392C7.90188 1.28524 14.0774 1.23267 14.3384 1.23267C14.5993 1.23267 20.7749 1.28524 24.8156 5.85384C27.3493 8.71868 28.0692 12.0254 26.9595 15.6853C27.1848 13.3893 26.8174 10.2126 24.1945 7.16704C20.317 2.66532 14.8454 2.74446 14.353 2.76165C13.9826 2.74938 10.6145 2.70071 7.29704 4.77642C7.15736 4.86472 7.05834 5.00475 7.02164 5.16587C6.98493 5.32699 7.01353 5.49609 7.10117 5.63618C7.18882 5.77627 7.32838 5.87595 7.48932 5.91342C7.65027 5.95088 7.8195 5.92309 7.96001 5.8361C11.0584 3.89759 14.2939 4.01087 14.3248 4.01142C14.3438 4.01235 14.3628 4.01235 14.3818 4.01142C14.4271 4.0097 18.4033 3.86688 21.7971 6.58368C20.7645 6.43228 19.5081 6.30915 18.4234 6.37954C16.701 6.49142 14.2006 7.1304 14.1809 7.13556C14.0013 7.18142 10.7028 8.04142 7.71524 9.99665C7.54711 10.0088 7.37946 10.0204 7.21079 10.0335C4.81571 10.2195 2.93954 12.2493 2.93954 14.6544V14.7409C2.88321 12.2622 3.72727 9.99368 5.45938 7.98267C5.65988 7.74988 5.86995 7.52552 6.08907 7.31017C6.20602 7.19373 6.27216 7.03576 6.27308 6.87073C6.274 6.70571 6.20961 6.54701 6.09396 6.42928C5.97831 6.31155 5.8208 6.24434 5.65578 6.24231C5.49076 6.24028 5.33164 6.3036 5.21313 6.41845C4.96925 6.65814 4.73543 6.90787 4.51227 7.16696C1.83399 10.2766 1.50696 13.5234 1.76172 15.8294C0.588911 12.1121 1.29422 8.75618 3.86118 5.85384L3.8611 5.85392Z" fill="white"/>
<path d="M39.7635 34.8791C37.5922 33.1562 33.819 30.1717 32.9447 29.5397C32.1314 28.9518 31.1209 28.8098 30.0886 29.0768L23.053 24.4861C22.9328 24.4077 22.7894 24.3731 22.6468 24.3879C22.5041 24.4028 22.3709 24.4662 22.2695 24.5676L21.4325 25.4045C21.3311 25.5059 21.2677 25.6391 21.2528 25.7818C21.238 25.9244 21.2727 26.0678 21.351 26.1879L25.9417 33.2237C25.6748 34.2561 25.8169 35.2665 26.4047 36.0798C26.7272 36.526 27.6887 37.7647 29.2625 39.7618C29.321 39.8361 29.3956 39.8962 29.4807 39.9374C29.5658 39.9787 29.6592 40.0001 29.7537 39.9999C29.8711 39.9998 29.986 39.9667 30.0854 39.9044C30.1848 39.8421 30.2646 39.7531 30.3158 39.6475C30.3669 39.5419 30.3874 39.4241 30.3747 39.3075C30.3621 39.1909 30.3168 39.0802 30.2442 38.988C28.703 37.0326 27.7257 35.7736 27.4177 35.3476C26.7003 34.3551 27.0895 32.8174 28.3859 31.5211C29.6823 30.2245 31.22 29.8354 32.2123 30.5528C33.0669 31.1704 36.8234 34.1419 38.9865 35.8583C39.1165 35.9595 39.2812 36.0053 39.4448 35.9857C39.6084 35.9662 39.7577 35.8827 39.8601 35.7537C39.9626 35.6246 40.0099 35.4603 39.9918 35.2965C39.9736 35.1327 39.8916 34.9827 39.7634 34.8791H39.7635ZM27.502 30.6371C27.1155 31.0235 26.7934 31.4315 26.5372 31.8489L22.6751 25.9297L22.7946 25.8101L28.7138 29.6723C28.2963 29.9285 27.8884 30.2507 27.502 30.6371ZM16.1634 22.8893C16.2815 22.775 16.3499 22.6189 16.3537 22.4546C16.3575 22.2903 16.2965 22.1311 16.1839 22.0114C16.0712 21.8918 15.916 21.8213 15.7518 21.8153C15.5875 21.8093 15.4275 21.8681 15.3064 21.9792C15.0172 22.2515 14.672 22.4015 14.3343 22.4015C13.9966 22.4015 13.6514 22.2515 13.3623 21.9793C13.3026 21.923 13.2324 21.879 13.1556 21.8499C13.0789 21.8208 12.9972 21.807 12.9151 21.8095C12.8331 21.8119 12.7523 21.8305 12.6775 21.8642C12.6026 21.8978 12.5351 21.9459 12.4788 22.0057C12.4225 22.0654 12.3786 22.1357 12.3495 22.2124C12.3203 22.2891 12.3066 22.3709 12.309 22.4529C12.3115 22.5349 12.3301 22.6157 12.3637 22.6906C12.3974 22.7654 12.4455 22.8329 12.5052 22.8892C13.0272 23.3808 13.6767 23.6516 14.3343 23.6516C14.9919 23.6516 15.6413 23.3808 16.1634 22.8893Z" fill="white"/>
</g>
</g>
<defs>
<clipPath id="clip0_555_420">
<rect width="40" height="40" fill="white"/>
</clipPath>
<clipPath id="clip1_555_420">
<rect width="40" height="40" fill="white"/>
</clipPath>
</defs>
</svg>
