<svg width="15" height="12" viewBox="0 0 15 12" fill="none" xmlns="http://www.w3.org/2000/svg">
<path fill-rule="evenodd" clip-rule="evenodd" d="M13.8748 8.55562C13.8748 9.90674 12.7757 11.0041 11.4263 11.0041H3.39325C2.04384 11.0041 0.94475 9.90671 0.94475 8.55562V3.4443C0.944449 3.00885 1.06111 2.5813 1.28253 2.20634L5.20216 6.12596C5.78856 6.71409 6.57384 7.03815 7.41059 7.03815C8.24563 7.03815 9.03091 6.71409 9.61731 6.12596L13.5369 2.20634C13.7584 2.58129 13.875 3.00884 13.8747 3.4443V8.55562H13.8748ZM11.4263 0.995836H3.39325C2.836 0.995836 2.32159 1.18443 1.91009 1.49821L5.86916 5.45899C6.27897 5.86705 6.82591 6.0934 7.41059 6.0934C7.99356 6.0934 8.54053 5.86705 8.95031 5.45899L12.9094 1.49821C12.4979 1.18443 11.9835 0.995836 11.4263 0.995836ZM11.4263 0.0510864H3.39325C1.52259 0.0510864 0 1.57368 0 3.44434V8.55565C0 10.428 1.52259 11.9489 3.39325 11.9489H11.4263C13.2969 11.9489 14.8195 10.428 14.8195 8.55565V3.4443C14.8195 1.57365 13.2969 0.0510864 11.4263 0.0510864Z" fill="white"/>
</svg>
