<svg width="16" height="15" viewBox="0 0 16 15" fill="none" xmlns="http://www.w3.org/2000/svg">
<g clip-path="url(#clip0_555_662)">
<path d="M14.8984 10.5909C14.8736 10.5703 12.063 8.57063 11.3041 8.69297C10.938 8.75766 10.7289 9.0075 10.3094 9.50719C10.1934 9.6463 10.0748 9.7832 9.95358 9.91781C9.68842 9.83143 9.42979 9.72616 9.17968 9.60281C7.88851 8.97422 6.8453 7.93101 6.21671 6.63984C6.09336 6.38973 5.98809 6.1311 5.90171 5.86594C6.03952 5.73984 6.23264 5.57719 6.31514 5.50781C6.81249 5.09062 7.06186 4.88109 7.12655 4.51453C7.25921 3.75562 5.24921 0.945937 5.22858 0.920625C5.13705 0.790808 5.01783 0.682933 4.87954 0.604789C4.74124 0.526645 4.58733 0.480181 4.42889 0.46875C3.61421 0.46875 1.28827 3.48563 1.28827 3.99422C1.28827 4.02375 1.33093 7.02562 5.03264 10.7911C8.79389 14.4886 11.7958 14.5312 11.8253 14.5312C12.3334 14.5312 15.3508 12.2053 15.3508 11.3906C15.3392 11.2322 15.2927 11.0783 15.2144 10.94C15.1362 10.8017 15.0283 10.6825 14.8984 10.5909ZM11.7733 13.5909C11.3664 13.5562 8.84452 13.2239 5.69452 10.1297C2.5853 6.96422 2.26139 4.43813 2.22905 4.04672C2.84348 3.08233 3.58552 2.20548 4.43499 1.44C4.45374 1.45875 4.47858 1.48688 4.51046 1.52344C5.16194 2.41276 5.72315 3.36481 6.18577 4.36547C6.03533 4.51682 5.87632 4.65939 5.70952 4.7925C5.45086 4.98959 5.21334 5.21297 5.00077 5.45906C4.9648 5.50953 4.9392 5.56663 4.92544 5.62705C4.91168 5.68748 4.91004 5.75003 4.92061 5.81109C5.01981 6.24081 5.17175 6.65662 5.37296 7.04906C6.09384 8.52939 7.29003 9.72541 8.77046 10.4461C9.16282 10.6476 9.57865 10.7997 10.0084 10.8989C10.0695 10.9097 10.1321 10.9082 10.1925 10.8944C10.253 10.8807 10.3101 10.8549 10.3605 10.8188C10.6074 10.6053 10.8316 10.3669 11.0294 10.1072C11.1765 9.93188 11.373 9.69797 11.4475 9.63188C12.4507 10.094 13.4049 10.6559 14.2956 11.3091C14.3345 11.3419 14.3622 11.3672 14.3805 11.3836C13.6149 12.2333 12.7379 12.9755 11.7733 13.59V13.5909ZM11.6008 7.03125H12.5383C12.5372 6.03703 12.1417 5.08385 11.4387 4.38083C10.7357 3.67781 9.78249 3.28237 8.78827 3.28125V4.21875C9.53396 4.21949 10.2489 4.51605 10.7762 5.04333C11.3035 5.57062 11.6 6.28556 11.6008 7.03125Z" fill="white"/>
<path d="M13.9445 7.03125H14.882C14.8802 5.41566 14.2375 3.86677 13.0951 2.72437C11.9527 1.58198 10.4039 0.939361 8.78827 0.9375V1.875C10.1553 1.87661 11.4659 2.42038 12.4325 3.38701C13.3991 4.35365 13.9429 5.66422 13.9445 7.03125Z" fill="white"/>
</g>
<defs>
<clipPath id="clip0_555_662">
<rect width="15" height="15" fill="white" transform="translate(0.819519)"/>
</clipPath>
</defs>
</svg>
