<svg width="25" height="24" viewBox="0 0 25 24" fill="none" xmlns="http://www.w3.org/2000/svg">
<g clip-path="url(#clip0_780_92)">
<path d="M23.3458 16.9455C23.3061 16.9125 18.8091 13.713 17.5948 13.9088C17.0091 14.0122 16.6746 14.412 16.0033 15.2115C15.8178 15.4341 15.628 15.6531 15.4341 15.8685C15.0098 15.7303 14.596 15.5619 14.1958 15.3645C12.13 14.3588 10.4608 12.6896 9.45508 10.6237C9.25773 10.2236 9.0893 9.80975 8.95108 9.3855C9.17158 9.18375 9.48058 8.9235 9.61258 8.8125C10.4083 8.145 10.8073 7.80975 10.9108 7.22325C11.1231 6.009 7.90708 1.5135 7.87408 1.473C7.72762 1.26529 7.53688 1.09269 7.31561 0.967663C7.09434 0.842632 6.84807 0.768289 6.59458 0.75C5.29108 0.75 1.56958 5.577 1.56958 6.39075C1.56958 6.438 1.63783 11.241 7.56058 17.2658C13.5786 23.1817 18.3816 23.25 18.4288 23.25C19.2418 23.25 24.0696 19.5285 24.0696 18.225C24.0511 17.9715 23.9766 17.7252 23.8514 17.5039C23.7263 17.2827 23.5536 17.092 23.3458 16.9455ZM18.3456 21.7455C17.6946 21.69 13.6596 21.1583 8.61958 16.2075C3.64483 11.1428 3.12658 7.101 3.07483 6.47475C4.05791 4.93173 5.24517 3.52877 6.60433 2.304C6.63433 2.334 6.67408 2.379 6.72508 2.4375C7.76745 3.86042 8.66539 5.3837 9.40558 6.98475C9.16487 7.2269 8.91046 7.45503 8.64358 7.668C8.22972 7.98334 7.84969 8.34075 7.50958 8.7345C7.45203 8.81525 7.41107 8.9066 7.38905 9.00328C7.36704 9.09996 7.36441 9.20005 7.38133 9.29775C7.54005 9.9853 7.78314 10.6506 8.10508 11.2785C9.2585 13.647 11.1724 15.5607 13.5411 16.7137C14.1689 17.0361 14.8342 17.2795 15.5218 17.4382C15.6195 17.4555 15.7197 17.4531 15.8164 17.4311C15.9132 17.4091 16.0045 17.3679 16.0851 17.31C16.4802 16.9685 16.8389 16.587 17.1553 16.1715C17.3908 15.891 17.7051 15.5168 17.8243 15.411C19.4294 16.1505 20.9561 17.0495 22.3813 18.0945C22.4436 18.147 22.4878 18.1875 22.5171 18.2137C21.2922 19.5733 19.889 20.7609 18.3456 21.744V21.7455ZM18.0696 11.25H19.5696C19.5678 9.65925 18.9351 8.13416 17.8102 7.00933C16.6854 5.8845 15.1603 5.25179 13.5696 5.25V6.75C14.7627 6.75119 15.9066 7.22568 16.7502 8.06933C17.5939 8.91299 18.0684 10.0569 18.0696 11.25Z" fill="white"/>
<path d="M21.8196 11.25H23.3196C23.3166 8.66505 22.2884 6.18683 20.4606 4.359C18.6327 2.53116 16.1545 1.50298 13.5696 1.5V3C15.7568 3.00258 17.8537 3.8726 19.4004 5.41922C20.947 6.96584 21.817 9.06276 21.8196 11.25Z" fill="white"/>
</g>
<defs>
<clipPath id="clip0_780_92">
<rect width="24" height="24" fill="white" transform="translate(0.81958)"/>
</clipPath>
</defs>
</svg>
