<svg width="40" height="40" viewBox="0 0 40 40" fill="none" xmlns="http://www.w3.org/2000/svg">
<path d="M8.55273 11.6776H9.17773C9.67484 11.6771 10.1514 11.4793 10.5029 11.1278C10.8545 10.7763 11.0522 10.2997 11.0527 9.80261V9.17761H9.80273V9.80261C9.80253 9.96831 9.73661 10.1272 9.61945 10.2443C9.50228 10.3615 9.34343 10.4274 9.17773 10.4276H8.55273V11.6776Z" fill="#18BCC7"/>
<path d="M7.92773 8.55261C8.27291 8.55261 8.55273 8.27279 8.55273 7.92761C8.55273 7.58243 8.27291 7.30261 7.92773 7.30261C7.58256 7.30261 7.30273 7.58243 7.30273 7.92761C7.30273 8.27279 7.58256 8.55261 7.92773 8.55261Z" fill="#18BCC7"/>
<path d="M11.6777 8.55261C12.0229 8.55261 12.3027 8.27279 12.3027 7.92761C12.3027 7.58243 12.0229 7.30261 11.6777 7.30261C11.3326 7.30261 11.0527 7.58243 11.0527 7.92761C11.0527 8.27279 11.3326 8.55261 11.6777 8.55261Z" fill="#18BCC7"/>
<path d="M33.5527 22.3026C33.5525 22.4683 33.4866 22.6272 33.3694 22.7443C33.2523 22.8615 33.0934 22.9274 32.9277 22.9276H32.3027V24.1776H32.9277C33.4248 24.1771 33.9014 23.9793 34.2529 23.6278C34.6045 23.2763 34.8022 22.7997 34.8027 22.3026V21.6776H33.5527V22.3026Z" fill="#18BCC7"/>
<path d="M34.8027 12.9276H32.3027C31.3085 12.9287 30.3553 13.3242 29.6523 14.0272C28.9493 14.7302 28.5539 15.6834 28.5527 16.6776V22.2797L27.2586 20.7699L26.6656 17.805C26.6634 17.7942 26.6599 17.7839 26.6573 17.7732L26.6583 17.773L26.3306 16.4896L27.5348 16.0079C27.6508 15.9615 27.7502 15.8815 27.8203 15.778C27.8903 15.6746 27.9277 15.5525 27.9277 15.4276V12.9276C27.9277 12.8042 27.8912 12.6836 27.8227 12.5809L26.5727 10.7059C26.5157 10.6203 26.4383 10.5501 26.3476 10.5016C26.2569 10.453 26.1556 10.4276 26.0527 10.4276H24.7827L24.7473 10.2888L24.9046 10.0789C25.9853 8.64278 26.593 6.90631 26.6435 5.10972C26.6515 4.82229 26.5773 4.53856 26.4296 4.29182C26.282 4.04509 26.067 3.84559 25.8099 3.71675L25.8034 3.71355C25.6203 3.62335 25.4207 3.57138 25.2168 3.56081C25.0129 3.55024 24.809 3.58129 24.6175 3.65207C24.4858 3.20185 24.1902 2.81733 23.7889 2.57435C23.3877 2.33138 22.9099 2.24758 22.4499 2.33949L21.9841 2.43261C21.1195 2.60553 20.3523 3.09926 19.8367 3.8146C19.3211 4.52994 19.0953 5.41389 19.2047 6.28886C19.2058 6.29761 19.207 6.30621 19.2085 6.3148L19.8113 9.90605L19.8134 9.91777L20.3486 12.7719L19.6512 12.9463C19.5413 12.9737 19.4409 13.0306 19.3608 13.1106C19.2807 13.1907 19.2239 13.2911 19.1964 13.401L18.617 15.7189L16.9177 17.2765L12.8187 14.9993L12.4908 14.0153C13.199 13.5638 13.782 12.9412 14.1861 12.2049C14.5902 11.4687 14.8022 10.6425 14.8027 9.80261V5.42761C14.8014 4.26769 14.3401 3.15565 13.5199 2.33546C12.6997 1.51527 11.5877 1.05392 10.4277 1.05261H9.17773C8.01781 1.05392 6.90577 1.51527 6.08558 2.33546C5.26539 3.15565 4.80404 4.26769 4.80273 5.42761V9.80261C4.80323 10.6425 5.0153 11.4687 5.41937 12.2049C5.82344 12.9412 6.40649 13.5638 7.11469 14.0153L6.78672 14.9993L2.66008 17.2918C2.17303 17.5627 1.76721 17.9587 1.48461 18.439C1.20202 18.9193 1.05291 19.4664 1.05273 20.0237V24.1776C1.05273 24.2771 1.07648 24.3751 1.122 24.4636C1.16752 24.5521 1.2335 24.6284 1.31445 24.6862L2.30273 25.3921V37.9276C2.30273 38.0934 2.36858 38.2523 2.48579 38.3696C2.603 38.4868 2.76197 38.5526 2.92773 38.5526H17.3027C17.4685 38.5526 17.6275 38.4868 17.7447 38.3696C17.8619 38.2523 17.9277 38.0934 17.9277 37.9276V25.4276H19.8027C19.9156 25.4276 20.0263 25.3971 20.1232 25.3392C20.2201 25.2813 20.2995 25.1983 20.353 25.0989L21.5354 22.9031L22.3148 26.8002C22.3353 26.9023 22.3809 26.9977 22.4476 27.0777L25.4641 30.6975L26.6863 38.0303C26.7106 38.1763 26.7859 38.3089 26.8988 38.4045C27.0116 38.5001 27.1548 38.5526 27.3027 38.5526H37.9277C38.0935 38.5526 38.2525 38.4868 38.3697 38.3696C38.4869 38.2523 38.5527 38.0934 38.5527 37.9276V26.6776C38.5527 26.5464 38.5115 26.4186 38.4348 26.3121C38.3581 26.2057 38.2498 26.1261 38.1254 26.0846L37.1576 25.7621C38.0531 24.8331 38.5533 23.5929 38.5527 22.3026V16.6776C38.5516 15.6834 38.1562 14.7302 37.4532 14.0272C36.7501 13.3242 35.797 12.9287 34.8027 12.9276ZM29.8027 16.6776C29.8035 16.0148 30.0671 15.3793 30.5358 14.9107C31.0045 14.442 31.6399 14.1784 32.3027 14.1776H34.8027C35.4655 14.1784 36.101 14.442 36.5697 14.9107C37.0384 15.3793 37.302 16.0148 37.3027 16.6776V17.3026H35.5047C34.9078 17.3033 34.328 17.1041 33.8575 16.7368C33.3871 16.3695 33.0532 15.8552 32.9091 15.276C32.8752 15.1408 32.7972 15.0208 32.6873 14.935C32.5775 14.8493 32.4421 14.8027 32.3027 14.8027C32.1634 14.8027 32.028 14.8493 31.9181 14.935C31.8083 15.0208 31.7302 15.1408 31.6964 15.276L31.6777 15.3507C31.5649 15.8041 31.3308 16.2182 31.0005 16.5486C30.6702 16.879 30.2561 17.1133 29.8027 17.2262V16.6776ZM25.7183 11.6776L26.6777 13.1168V15.0045L26.0187 15.2681L25.102 11.6776H25.7183ZM21.0431 9.69324L20.4435 6.12168C20.3766 5.56172 20.5233 4.99713 20.8543 4.54055C21.1853 4.08397 21.6763 3.76897 22.2293 3.65839L22.6951 3.56519C22.7857 3.54707 22.8793 3.54929 22.969 3.57169C23.0587 3.5941 23.1424 3.63613 23.2139 3.69476C23.2854 3.75338 23.343 3.82715 23.3825 3.91072C23.4221 3.9943 23.4426 4.08562 23.4426 4.17808V4.79792C23.0559 5.06211 22.7398 5.41695 22.5219 5.83146C22.304 6.24597 22.191 6.70753 22.1926 7.17582V7.65324H23.4426V7.17582C23.4416 6.87172 23.5258 6.57342 23.6857 6.31474C23.8456 6.05607 24.0747 5.84736 24.3472 5.7123C24.4571 5.65731 24.5484 5.57114 24.6096 5.46457L24.9123 4.93738C24.9452 4.88036 24.9985 4.83803 25.0615 4.81901C25.1245 4.79999 25.1924 4.80572 25.2512 4.83503L25.2548 4.83675C25.2979 4.85899 25.3338 4.89292 25.3584 4.93464C25.383 4.97636 25.3954 5.02418 25.3941 5.07261C25.3508 6.61146 24.8303 8.0988 23.9046 9.32886L23.5676 9.77832C23.5115 9.85309 23.4729 9.93948 23.4547 10.0311C23.4364 10.1228 23.4389 10.2174 23.462 10.3079L25.3294 17.6211L22.8005 19.0661L22.5753 17.8651L23.8323 17.2366C23.9361 17.1847 24.0234 17.1049 24.0844 17.0062C24.1454 16.9074 24.1777 16.7937 24.1777 16.6776V13.5526C24.1777 13.4366 24.1454 13.3228 24.0844 13.2241C24.0234 13.1253 23.9361 13.0455 23.8323 12.9936L22.5823 12.3686C22.4489 12.3018 22.2959 12.285 22.1512 12.3213L21.5634 12.4682L21.0431 9.69324ZM19.6001 16.5133C19.6904 16.4305 19.7544 16.323 19.7841 16.2042L20.3181 14.068L22.23 13.59L22.9277 13.9389V16.2914L20.7732 17.3686C20.6938 17.4083 20.6237 17.4645 20.5677 17.5335L12.6302 27.3026H10.5754L7.59547 25.8127L9.43352 22.5043L11.3984 23.4866C11.5115 23.5432 11.6392 23.5642 11.7645 23.5466C11.8899 23.5291 12.0069 23.4739 12.1002 23.3884L19.6001 16.5133ZM9.17773 2.30261H10.4277C10.9113 2.30267 11.3882 2.41504 11.8209 2.63088C12.2536 2.84671 12.6302 3.16011 12.9211 3.54636C12.5758 4.12207 12.0869 4.59817 11.5022 4.92797C10.9175 5.25777 10.2571 5.42994 9.58578 5.42761H6.05273C6.05369 4.5991 6.38323 3.8048 6.96908 3.21895C7.55492 2.63311 8.34922 2.30356 9.17773 2.30261ZM6.05273 9.80261V6.67761H9.58578C10.3306 6.68016 11.067 6.52004 11.7435 6.20843C12.4201 5.89683 13.0204 5.44126 13.5026 4.87355C13.5357 5.05638 13.5525 5.2418 13.5527 5.42761V9.80261C13.5527 10.7972 13.1576 11.751 12.4544 12.4543C11.7511 13.1575 10.7973 13.5526 9.80273 13.5526C8.80817 13.5526 7.85435 13.1575 7.15108 12.4543C6.44782 11.751 6.05273 10.7972 6.05273 9.80261ZM9.80273 14.8026C10.3294 14.8027 10.8527 14.7193 11.3531 14.5553L11.5877 15.2588L10.6108 16.2357C10.5817 16.2648 10.5555 16.2967 10.5327 16.331L9.80273 17.4258L9.07273 16.3309C9.04989 16.2966 9.02373 16.2647 8.99461 16.2356L8.01781 15.2587L8.25234 14.5553C8.7528 14.7192 9.27611 14.8027 9.80273 14.8026ZM2.30273 20.0237C2.30284 19.6893 2.39231 19.3611 2.56188 19.0729C2.73145 18.7847 2.97495 18.5471 3.26719 18.3846L7.19414 16.2029L8.06703 17.0758L9.28266 18.8993C9.33973 18.9849 9.41706 19.0551 9.50778 19.1036C9.5985 19.1522 9.6998 19.1776 9.8027 19.1776C9.90559 19.1776 10.0069 19.1522 10.0976 19.1036C10.1883 19.0551 10.2657 18.9849 10.3227 18.8993L11.5384 17.0758L12.4113 16.2029L15.9464 18.1668L11.5725 22.1762L9.45727 21.1186L6.95727 19.8686L6.3982 20.9866L8.31437 21.9447L5.84641 26.3871L2.30273 23.8559V20.0237ZM16.6777 37.3026H3.55273V26.285L5.68945 27.8112C5.76109 27.8624 5.84272 27.8978 5.92901 27.9152C6.0153 27.9327 6.1043 27.9317 6.19017 27.9123C6.27604 27.8929 6.35686 27.8557 6.42732 27.8029C6.49779 27.7501 6.55631 27.6831 6.59906 27.6061L6.98781 26.9064L10.1482 28.4866C10.235 28.53 10.3307 28.5526 10.4277 28.5526H12.9277C13.0207 28.5526 13.1124 28.5319 13.1963 28.492C13.2803 28.452 13.3542 28.3939 13.4128 28.3218L15.7643 25.4276H16.6777V37.3026ZM19.4295 24.1776H16.7799L21.417 18.4703L21.6518 19.7225L21.3677 19.885C21.2538 19.95 21.1632 20.0493 21.1089 20.1687C21.0545 20.2881 21.0391 20.4216 21.0648 20.5502L21.1509 20.9805L19.4295 24.1776ZM37.3027 37.3026H27.8322L26.6692 30.3249C26.651 30.2154 26.6039 30.1128 26.5329 30.0275L23.5095 26.3994L22.379 20.7468L25.6099 18.9005L26.0648 21.1752C26.0858 21.2802 26.1334 21.378 26.2031 21.4593L29.9531 25.8343L29.9882 25.8043C30.7513 26.5836 31.7487 27.0913 32.8278 27.2497C33.9069 27.4081 35.0082 27.2086 35.963 26.6816L37.3027 27.1281V37.3026ZM33.5527 26.0526C32.5585 26.0515 31.6053 25.6561 30.9023 24.953C30.1993 24.25 29.8039 23.2968 29.8027 22.3026V18.5001C30.306 18.4175 30.7876 18.2351 31.2192 17.9634C31.6508 17.6918 32.0236 17.3365 32.3157 16.9185C32.6791 17.4247 33.1579 17.8371 33.7125 18.1213C34.2671 18.4055 34.8815 18.5533 35.5047 18.5526H37.3027V22.3026C37.3016 23.2968 36.9062 24.25 36.2032 24.953C35.5001 25.6561 34.547 26.0515 33.5527 26.0526Z" fill="#18BCC7"/>
<path d="M31.6777 21.0526C32.0229 21.0526 32.3027 20.7728 32.3027 20.4276C32.3027 20.0824 32.0229 19.8026 31.6777 19.8026C31.3326 19.8026 31.0527 20.0824 31.0527 20.4276C31.0527 20.7728 31.3326 21.0526 31.6777 21.0526Z" fill="#18BCC7"/>
<path d="M35.4277 21.0526C35.7729 21.0526 36.0527 20.7728 36.0527 20.4276C36.0527 20.0824 35.7729 19.8026 35.4277 19.8026C35.0826 19.8026 34.8027 20.0824 34.8027 20.4276C34.8027 20.7728 35.0826 21.0526 35.4277 21.0526Z" fill="#18BCC7"/>
</svg>
