<svg width="40" height="40" viewBox="0 0 40 40" fill="none" xmlns="http://www.w3.org/2000/svg">
<g clip-path="url(#clip0_387_148)">
<path fill-rule="evenodd" clip-rule="evenodd" d="M15.7462 0C16.0698 0 16.3322 0.262333 16.3322 0.585938V4.3757C16.3322 4.65954 16.1287 4.90257 15.8493 4.9525L9.5612 6.07625C9.49634 6.08784 9.42999 6.08841 9.36494 6.07793L0.523377 4.65379C0.203891 4.60233 -0.0133869 4.30162 0.0380738 3.98213C0.0895346 3.66265 0.390247 3.44537 0.709733 3.49683L9.45302 4.90514L15.1603 3.8852V0.585938C15.1603 0.262333 15.4226 0 15.7462 0ZM24.315 0C24.6386 0 24.9009 0.262333 24.9009 0.585938V3.8852L27.989 4.43711C28.3076 4.49404 28.5197 4.79844 28.4627 5.11699C28.4058 5.43555 28.1014 5.64764 27.7828 5.5907L24.2119 4.9525C23.9325 4.90256 23.7291 4.65954 23.7291 4.3757V0.585938C23.7291 0.262333 23.9914 0 24.315 0ZM39.9618 3.9815C40.0136 4.30093 39.7967 4.60188 39.4772 4.65369L30.6968 6.07783C30.3774 6.12964 30.0765 5.91269 30.0247 5.59326C29.9729 5.27383 30.1898 4.97288 30.5092 4.92107L39.2896 3.49693C39.6091 3.44512 39.91 3.66207 39.9618 3.9815ZM39.8925 13.1444C40.0527 13.4255 39.9547 13.7833 39.6736 13.9436L35.016 16.5984L32.2593 29.0535C32.0683 29.9165 32.0008 30.8023 32.0589 31.6843L32.5654 39.3756C32.5867 39.6985 32.3422 39.9775 32.0193 39.9987C31.6964 40.02 31.4174 39.7755 31.3961 39.4526L30.8895 31.7613C30.8242 30.7686 30.9001 29.7716 31.1151 28.8003L31.1151 28.8003L33.928 16.0914C33.9637 15.9299 34.0662 15.7909 34.2099 15.709L39.0933 12.9255C39.3744 12.7652 39.7322 12.8632 39.8925 13.1444ZM0.107941 13.1436C0.268612 12.8627 0.626575 12.7652 0.907475 12.9259L5.77388 15.7094C5.91726 15.7914 6.01936 15.9302 6.05505 16.0914L8.86794 28.8003C9.08295 29.7716 9.15889 30.7686 9.09349 31.7613L8.58693 39.4526C8.56566 39.7755 8.28666 40.02 7.96375 39.9987C7.64085 39.9775 7.39632 39.6985 7.41759 39.3756L7.92415 31.6843C7.98225 30.8023 7.91478 29.9165 7.72376 29.0535L8.29585 28.9269L7.72376 29.0535L4.96692 16.5979L0.325635 13.9431C0.0447353 13.7825 -0.0527297 13.4245 0.107941 13.1436ZM10.8886 13.6779C11.7089 13.4099 12.5915 13.8545 12.8646 14.673L12.3088 14.8585L12.8646 14.6731L13.8856 17.7329L16.7473 20.3994V18.4075C16.7473 17.4676 17.5096 16.7096 18.4502 16.7096H18.4759C18.8596 16.7096 19.2315 16.8424 19.5284 17.0855C19.8252 17.3286 20.0289 17.6669 20.1046 18.043C20.1046 18.043 20.1046 18.043 20.1046 18.0431L20.605 20.5262C20.6127 20.5643 20.6166 20.6031 20.6166 20.642V25.0552C20.6166 25.7481 20.4575 26.4318 20.1515 27.0535L19.2171 28.9524L18.7728 39.4389C18.7591 39.7622 18.4859 40.0132 18.1626 39.9995C17.8393 39.9858 17.5883 39.7126 17.602 39.3893L18.0515 28.7796C18.055 28.6983 18.0753 28.6187 18.1112 28.5457L19.1 26.5361C19.3268 26.0754 19.4447 25.5687 19.4447 25.0552V20.7004L18.9558 18.2745L18.9558 18.2744C18.9335 18.1636 18.8735 18.0639 18.786 17.9923C18.6985 17.9206 18.5889 17.8815 18.4759 17.8815H18.4502C18.153 17.8815 17.9191 18.1187 17.9191 18.4075V21.7463C17.9191 21.9795 17.7808 22.1905 17.5669 22.2835C17.3531 22.3766 17.1044 22.3339 16.9338 22.1749L12.9776 18.4885C12.906 18.4218 12.8522 18.3382 12.8212 18.2453L11.753 15.044C11.6838 14.8366 11.4602 14.724 11.2524 14.7918L11.2523 14.7918L9.60468 15.3298C9.60468 15.3298 9.60467 15.3298 9.60467 15.3298C9.44722 15.3812 9.31153 15.4839 9.21928 15.6215C9.12703 15.7591 9.08353 15.9236 9.09574 16.0888L9.45066 20.8907C9.48438 21.347 9.61098 21.7916 9.8227 22.1971L11.898 26.1727C12.0478 26.4595 11.9366 26.8135 11.6497 26.9633C11.3629 27.113 11.0089 27.0018 10.8592 26.715L8.78385 22.7394L9.30327 22.4683L8.78385 22.7394C8.49824 22.1923 8.32746 21.5926 8.28198 20.9771L7.92706 16.1751C7.89554 15.7487 8.00782 15.324 8.24598 14.9688C8.48414 14.6137 8.83444 14.3485 9.24093 14.2158L9.24094 14.2158L10.8886 13.6779ZM12.787 28.3228C13.1026 28.3942 13.3006 28.7079 13.2292 29.0236L10.8499 39.5433C10.7785 39.859 10.4648 40.057 10.1492 39.9856C9.83354 39.9142 9.63554 39.6004 9.70693 39.2848L12.0862 28.765C12.1576 28.4494 12.4714 28.2514 12.787 28.3228Z" fill="white"/>
<path fill-rule="evenodd" clip-rule="evenodd" d="M28.8088 14.7919C28.601 14.724 28.3774 14.8366 28.3082 15.044L27.24 18.2453C27.209 18.3382 27.1553 18.4218 27.0836 18.4885L23.1275 22.175C22.9568 22.334 22.7081 22.3766 22.4943 22.2836C22.2804 22.1905 22.1421 21.9795 22.1421 21.7463V18.4075C22.1421 18.1187 21.9082 17.8815 21.611 17.8815H21.5854C21.4723 17.8815 21.3627 17.9206 21.2752 17.9923C21.1877 18.0639 21.1277 18.1636 21.1054 18.2745L20.6165 20.7004V25.0552C20.6165 25.5687 20.7344 26.0754 20.9612 26.5362L21.95 28.5457C21.9859 28.6187 22.0062 28.6983 22.0097 28.7796L22.4592 39.3893C22.4729 39.7126 22.2219 39.9858 21.8986 39.9995C21.5753 40.0132 21.3021 39.7622 21.2884 39.4389L20.8441 28.9524L19.9097 27.0536C19.6038 26.4318 19.4446 25.7481 19.4447 25.0552V20.642C19.4447 20.6031 19.4485 20.5643 19.4562 20.5262L19.9566 18.0431C19.9566 18.0431 19.9566 18.0431 19.9566 18.0431C20.0323 17.667 20.236 17.3286 20.5329 17.0855C20.8298 16.8425 21.2016 16.7096 21.5854 16.7096H21.611C22.5516 16.7096 23.3139 17.4676 23.3139 18.4075V20.3994L26.1756 17.7329L27.1966 14.6731C27.4697 13.8546 28.3523 13.41 29.1726 13.6779C29.1726 13.6779 29.1726 13.6779 29.1726 13.6779L30.8203 14.2158C31.2268 14.3486 31.5771 14.6137 31.8152 14.9688C32.0534 15.324 32.1657 15.7487 32.1342 16.1752L31.7792 20.9771C31.7338 21.5926 31.563 22.1923 31.2774 22.7395L28.0224 28.9748L30.3542 39.2848C30.4256 39.6005 30.2276 39.9142 29.912 39.9856C29.5963 40.057 29.2826 39.859 29.2112 39.5433L26.832 29.0236C26.8014 28.8882 26.8198 28.7463 26.8841 28.6232L30.2385 22.1972C30.4502 21.7916 30.5768 21.347 30.6105 20.8908L30.9655 16.0888C30.9777 15.9236 30.9342 15.7591 30.8419 15.6215C30.7497 15.4839 30.614 15.3812 30.4565 15.3298L28.8088 14.7919ZM9.79089 14.0365C10.1013 13.9452 10.427 14.1228 10.5183 14.4333L11.7885 18.7521L14.4936 21.9427C14.7029 22.1896 14.6724 22.5593 14.4256 22.7686C14.1788 22.9779 13.809 22.9474 13.5998 22.7006L10.8144 19.4153C10.7616 19.353 10.7223 19.2802 10.6992 19.2018L9.39408 14.7639C9.30278 14.4535 9.48044 14.1278 9.79089 14.0365ZM8.52869 17.2061C8.84708 17.1483 9.15207 17.3595 9.20991 17.6779L9.5385 19.487C9.58852 19.7625 9.71195 20.0194 9.89575 20.2306L12.4415 23.1566C12.6539 23.4007 12.6282 23.7708 12.384 23.9832C12.1399 24.1957 11.7698 24.1699 11.5574 23.9258L9.01168 20.9999C9.01168 20.9999 9.01168 20.9999 9.01168 20.9999C8.68952 20.6296 8.47318 20.1793 8.38549 19.6964C8.38549 19.6964 8.38549 19.6964 8.38549 19.6964L8.0569 17.8873C7.99907 17.5689 8.21029 17.2639 8.52869 17.2061Z" fill="white"/>
<path fill-rule="evenodd" clip-rule="evenodd" d="M15.06 9.06738C15.06 9.06733 15.06 9.06723 15.06 9.06718C15.0366 8.7446 14.7563 8.50193 14.4337 8.52509C14.1109 8.54825 13.868 8.82869 13.8912 9.15147L14.4756 9.10952C13.8912 9.15147 13.8912 9.15159 13.8912 9.15173L13.8913 9.15293L13.8915 9.15545L13.8921 9.16359C13.8926 9.17038 13.8934 9.17989 13.8944 9.19198C13.8965 9.21616 13.8996 9.25071 13.904 9.2946C13.9128 9.38235 13.9267 9.50768 13.9475 9.66247C13.9891 9.9715 14.0586 10.4008 14.1709 10.8844C14.3916 11.8348 14.7929 13.0658 15.5262 13.9883C15.7276 14.2416 16.0962 14.2837 16.3495 14.0823C16.6028 13.881 16.645 13.5124 16.4436 13.2591C15.8739 12.5424 15.5206 11.5163 15.3124 10.6194C15.2102 10.1794 15.1468 9.78749 15.1089 9.50624C15.09 9.36588 15.0776 9.2538 15.07 9.17792C15.0663 9.14 15.0637 9.11117 15.0621 9.09244C15.0613 9.08307 15.0607 9.07623 15.0604 9.07205L15.0601 9.06778L15.06 9.06738ZM30.2702 14.0365C30.5807 14.1278 30.7583 14.4535 30.667 14.7639L29.3619 19.2017C29.3388 19.2802 29.2996 19.3529 29.2467 19.4153L26.4614 22.7006C26.2521 22.9474 25.8824 22.9778 25.6355 22.7686C25.3887 22.5593 25.3582 22.1895 25.5675 21.9427L28.2726 18.7521L29.5428 14.4333C29.6341 14.1228 29.9598 13.9451 30.2702 14.0365ZM31.5324 17.2061C31.8507 17.2639 32.062 17.5689 32.0041 17.8873L31.6756 19.6963C31.5879 20.1792 31.3715 20.6296 31.0494 20.9998C31.0494 20.9998 31.0494 20.9998 31.0494 20.9998L28.5037 23.9258C28.2913 24.1699 27.9212 24.1956 27.677 23.9832C27.4329 23.7708 27.4072 23.4007 27.6196 23.1566L30.1653 20.2306C30.3491 20.0194 30.4725 19.7625 30.5225 19.487L30.8511 17.6779C30.909 17.3595 31.214 17.1482 31.5324 17.2061Z" fill="white"/>
<path fill-rule="evenodd" clip-rule="evenodd" d="M13.9611 8.41911C14.1475 8.1546 14.5131 8.09128 14.7776 8.27768L16.4159 9.43221C16.6805 9.61862 16.7438 9.98417 16.5574 10.2487C16.371 10.5132 16.0054 10.5765 15.7409 10.3901L14.5815 9.57311L13.7644 10.7325C13.578 10.9971 13.2124 11.0604 12.9479 10.874C12.6834 10.6875 12.6201 10.322 12.8065 10.0575L13.9611 8.41911ZM25.6273 8.5251C25.9501 8.54826 26.193 8.8287 26.1698 9.15147L25.5854 9.10953C26.1698 9.15147 26.1698 9.1516 26.1698 9.15174L26.1698 9.15207L26.1697 9.15294L26.1695 9.15546L26.1689 9.1636C26.1684 9.17039 26.1676 9.1799 26.1666 9.19199C26.1645 9.21617 26.1614 9.25071 26.157 9.29461C26.1482 9.38235 26.1343 9.50769 26.1135 9.66248C26.0719 9.97151 26.0024 10.4008 25.8901 10.8844C25.6694 11.8349 25.2681 13.0658 24.5348 13.9883C24.3334 14.2416 23.9648 14.2837 23.7115 14.0823C23.4581 13.881 23.416 13.5124 23.6174 13.2591C24.1871 12.5424 24.5403 11.5163 24.7486 10.6194C24.8507 10.1794 24.9142 9.7875 24.9521 9.50625C24.9709 9.36589 24.9833 9.25381 24.9909 9.17793C24.9947 9.14001 24.9973 9.11118 24.9989 9.09245C24.9997 9.08308 25.0003 9.07624 25.0006 9.07206L25.0009 9.06778L25.0009 9.06759C25.0009 9.06752 25.0009 9.06745 25.001 9.06739M25.6273 8.5251C25.3046 8.50194 25.0242 8.74471 25.001 9.06739L25.6273 8.5251Z" fill="#white"/>
<path fill-rule="evenodd" clip-rule="evenodd" d="M25.2836 8.27767C25.5482 8.09127 25.9137 8.1546 26.1001 8.41912L27.2546 10.0575C27.4411 10.322 27.3777 10.6876 27.1132 10.874C26.8487 11.0604 26.4831 10.997 26.2967 10.7325L25.4797 9.57311L24.3202 10.3901C24.0557 10.5765 23.6901 10.5132 23.5037 10.2487C23.3173 9.98415 23.3807 9.6186 23.6452 9.4322L25.2836 8.27767Z" fill="white"/>
</g>
<defs>
<clipPath id="clip0_387_148">
<rect width="40" height="40" fill="white"/>
</clipPath>
</defs>
</svg>
