<svg width="40" height="40" viewBox="0 0 40 40" fill="none" xmlns="http://www.w3.org/2000/svg">
<g clip-path="url(#clip0_659_357)">
<path fill-rule="evenodd" clip-rule="evenodd" d="M15.7465 0C16.0701 0 16.3324 0.262333 16.3324 0.585938V4.3757C16.3324 4.65954 16.129 4.90257 15.8496 4.9525L9.56144 6.07625C9.49658 6.08784 9.43023 6.08841 9.36518 6.07793L0.523621 4.65379C0.204135 4.60233 -0.0131428 4.30162 0.0383179 3.98213C0.0897787 3.66265 0.390491 3.44537 0.709977 3.49683L9.45327 4.90514L15.1605 3.8852V0.585938C15.1605 0.262333 15.4229 0 15.7465 0ZM24.3152 0C24.6388 0 24.9012 0.262333 24.9012 0.585938V3.8852L27.9893 4.43711C28.3078 4.49404 28.5199 4.79844 28.463 5.11699C28.406 5.43555 28.1016 5.64764 27.7831 5.5907L24.2122 4.9525C23.9327 4.90256 23.7293 4.65954 23.7293 4.3757V0.585938C23.7293 0.262333 23.9916 0 24.3152 0ZM39.9621 3.9815C40.0139 4.30093 39.7969 4.60188 39.4775 4.65369L30.6971 6.07783C30.3777 6.12964 30.0767 5.91269 30.0249 5.59326C29.9731 5.27383 30.19 4.97288 30.5095 4.92107L39.2899 3.49693C39.6093 3.44512 39.9102 3.66207 39.9621 3.9815ZM39.8927 13.1444C40.053 13.4255 39.955 13.7833 39.6738 13.9436L35.0162 16.5984L32.2595 29.0535C32.0685 29.9165 32.0011 30.8023 32.0591 31.6843L32.5657 39.3756C32.587 39.6985 32.3424 39.9775 32.0195 39.9987C31.6966 40.02 31.4176 39.7755 31.3963 39.4526L30.8898 31.7613C30.8244 30.7686 30.9004 29.7716 31.1153 28.8003L31.1153 28.8003L33.9282 16.0914C33.964 15.9299 34.0664 15.7909 34.2102 15.709L39.0935 12.9255C39.3747 12.7652 39.7325 12.8632 39.8927 13.1444ZM0.108185 13.1436C0.268856 12.8627 0.626819 12.7652 0.907719 12.9259L5.77413 15.7094C5.9175 15.7914 6.0196 15.9302 6.0553 16.0914L8.86819 28.8003C9.08319 29.7716 9.15913 30.7686 9.09374 31.7613L8.58717 39.4526C8.56591 39.7755 8.2869 40.02 7.964 39.9987C7.64109 39.9775 7.39656 39.6985 7.41783 39.3756L7.92439 31.6843C7.9825 30.8023 7.91503 29.9165 7.72401 29.0535L8.2961 28.9269L7.724 29.0535L4.96716 16.5979L0.325879 13.9431C0.0449794 13.7825 -0.0524855 13.4245 0.108185 13.1436ZM10.8888 13.6779C11.7091 13.4099 12.5917 13.8545 12.8649 14.673L12.3091 14.8585L12.8649 14.6731L13.8859 17.7329L16.7475 20.3994V18.4075C16.7475 17.4676 17.5099 16.7096 18.4505 16.7096H18.4761C18.8598 16.7096 19.2317 16.8424 19.5286 17.0855C19.8255 17.3286 20.0291 17.6669 20.1049 18.043C20.1049 18.043 20.1049 18.043 20.1049 18.0431L20.6053 20.5262C20.6129 20.5643 20.6168 20.6031 20.6168 20.642V25.0552C20.6168 25.7481 20.4577 26.4318 20.1518 27.0535L19.2174 28.9524L18.7731 39.4389C18.7594 39.7622 18.4862 40.0132 18.1629 39.9995C17.8395 39.9858 17.5885 39.7126 17.6022 39.3893L18.0518 28.7796C18.0552 28.6983 18.0755 28.6187 18.1115 28.5457L19.1003 26.5361C19.327 26.0754 19.4449 25.5687 19.4449 25.0552V20.7004L18.9561 18.2745L18.9561 18.2744C18.9337 18.1636 18.8737 18.0639 18.7862 17.9923C18.6988 17.9206 18.5892 17.8815 18.4761 17.8815H18.4505C18.1532 17.8815 17.9194 18.1187 17.9194 18.4075V21.7462C17.9194 21.9795 17.7811 22.1905 17.5672 22.2835C17.3533 22.3766 17.1046 22.3339 16.934 22.1749L12.9778 18.4885C12.9062 18.4218 12.8524 18.3382 12.8215 18.2453L11.7533 15.044C11.684 14.8366 11.4604 14.724 11.2526 14.7918L11.2526 14.7918L9.60492 15.3298C9.60492 15.3298 9.60492 15.3298 9.60491 15.3298C9.44746 15.3812 9.31177 15.4839 9.21952 15.6215C9.12727 15.7591 9.08378 15.9236 9.09599 16.0888L9.45091 20.8907C9.48462 21.347 9.61123 21.7916 9.82294 22.1971L11.8983 26.1727C12.048 26.4595 11.9368 26.8135 11.65 26.9633C11.3631 27.113 11.0092 27.0018 10.8594 26.715L8.78409 22.7394L9.30352 22.4683L8.78409 22.7394C8.49849 22.1923 8.3277 21.5926 8.28222 20.9771L7.9273 16.1751C7.89578 15.7487 8.00807 15.324 8.24622 14.9688C8.48438 14.6137 8.83468 14.3485 9.24118 14.2158L9.24119 14.2158L10.8888 13.6779ZM12.7872 28.3228C13.1029 28.3942 13.3009 28.7079 13.2295 29.0236L10.8502 39.5433C10.7788 39.859 10.465 40.057 10.1494 39.9856C9.83378 39.9142 9.63578 39.6004 9.70717 39.2848L12.0865 28.765C12.1579 28.4494 12.4716 28.2514 12.7872 28.3228Z" fill="#18BCC7"/>
<path fill-rule="evenodd" clip-rule="evenodd" d="M28.8093 14.7918C28.6015 14.7239 28.3779 14.8365 28.3087 15.0439L27.2405 18.2453C27.2095 18.3381 27.1557 18.4217 27.0841 18.4885L23.1279 22.1749C22.9573 22.3339 22.7086 22.3766 22.4948 22.2835C22.2809 22.1905 22.1426 21.9794 22.1426 21.7462V18.4075C22.1426 18.1186 21.9087 17.8814 21.6115 17.8814H21.5858C21.4728 17.8814 21.3632 17.9206 21.2757 17.9922C21.1882 18.0638 21.1282 18.1635 21.1059 18.2744L20.617 20.7004V25.0551C20.617 25.5687 20.7349 26.0753 20.9617 26.5361L21.9505 28.5456C21.9864 28.6186 22.0067 28.6983 22.0102 28.7795L22.4597 39.3892C22.4734 39.7125 22.2224 39.9857 21.8991 39.9994C21.5758 40.0131 21.3026 39.7621 21.2889 39.4388L20.8446 28.9524L19.9102 27.0535C19.6042 26.4318 19.4451 25.7481 19.4451 25.0551V20.6419C19.4451 20.603 19.449 20.5643 19.4567 20.5262L19.9571 18.043C19.9571 18.043 19.9571 18.0431 19.9571 18.043C20.0328 17.6669 20.2365 17.3285 20.5333 17.0855C20.8302 16.8424 21.2021 16.7096 21.5858 16.7096H21.6115C22.5521 16.7096 23.3144 17.4676 23.3144 18.4075V20.3993L26.1761 17.7328L27.1971 14.673C27.4702 13.8545 28.3528 13.4099 29.1731 13.6778C29.1731 13.6778 29.1731 13.6778 29.1731 13.6778L30.8208 14.2158C31.2273 14.3485 31.5776 14.6136 31.8157 14.9688C32.0539 15.3239 32.1662 15.7487 32.1346 16.1751L31.7797 20.9771C31.7342 21.5926 31.5635 22.1923 31.2778 22.7394L28.0229 28.9748L30.3547 39.2848C30.4261 39.6004 30.2281 39.9141 29.9124 39.9855C29.5968 40.0569 29.2831 39.8589 29.2117 39.5433L26.8325 29.0235C26.8018 28.8881 26.8203 28.7462 26.8845 28.6231L30.239 22.1971C30.4507 21.7915 30.5773 21.347 30.611 20.8907L30.966 16.0887C30.9782 15.9235 30.9347 15.759 30.8424 15.6215C30.7502 15.4839 30.6145 15.3812 30.457 15.3298L28.8093 14.7918ZM9.79138 14.0364C10.1018 13.9451 10.4275 14.1228 10.5188 14.4332L11.789 18.7521L14.4941 21.9427C14.7034 22.1895 14.6729 22.5593 14.4261 22.7685C14.1793 22.9778 13.8095 22.9474 13.6002 22.7005L10.8149 19.4153C10.762 19.3529 10.7228 19.2802 10.6997 19.2017L9.39457 14.7639C9.30327 14.4534 9.48092 14.1277 9.79138 14.0364ZM8.52918 17.206C8.84757 17.1482 9.15256 17.3594 9.2104 17.6778L9.53899 19.4869C9.58901 19.7624 9.71244 20.0193 9.89624 20.2306L12.442 23.1565C12.6544 23.4007 12.6286 23.7708 12.3845 23.9832C12.1404 24.1956 11.7703 24.1699 11.5579 23.9257L9.01217 20.9998C9.01216 20.9998 9.01217 20.9998 9.01217 20.9998C8.69 20.6295 8.47367 20.1792 8.38598 19.6963C8.38598 19.6963 8.38598 19.6963 8.38598 19.6963L8.05739 17.8873C7.99955 17.5689 8.21078 17.2639 8.52918 17.206Z" fill="#18BCC7"/>
<path fill-rule="evenodd" clip-rule="evenodd" d="M15.0605 9.06738C15.0605 9.06733 15.0605 9.06723 15.0605 9.06718C15.0371 8.7446 14.7568 8.50193 14.4342 8.52509C14.1114 8.54825 13.8685 8.82869 13.8917 9.15147L14.4761 9.10952C13.8917 9.15147 13.8917 9.15159 13.8917 9.15173L13.8918 9.15293L13.892 9.15545L13.8926 9.16359C13.8931 9.17038 13.8939 9.17989 13.8949 9.19198C13.897 9.21616 13.9001 9.25071 13.9045 9.2946C13.9133 9.38235 13.9272 9.50768 13.948 9.66247C13.9896 9.9715 14.0591 10.4008 14.1714 10.8844C14.392 11.8348 14.7934 13.0658 15.5267 13.9883C15.7281 14.2416 16.0967 14.2837 16.35 14.0823C16.6033 13.881 16.6454 13.5124 16.4441 13.2591C15.8744 12.5424 15.5211 11.5163 15.3129 10.6194C15.2107 10.1794 15.1472 9.78749 15.1094 9.50624C15.0905 9.36588 15.0781 9.2538 15.0705 9.17792C15.0667 9.14 15.0642 9.11117 15.0626 9.09244C15.0618 9.08307 15.0612 9.07623 15.0609 9.07205L15.0605 9.06778L15.0605 9.06738ZM30.2707 14.0365C30.5812 14.1278 30.7588 14.4535 30.6675 14.7639L29.3624 19.2017C29.3393 19.2802 29.3001 19.3529 29.2472 19.4153L26.4619 22.7006C26.2526 22.9474 25.8828 22.9778 25.636 22.7686C25.3892 22.5593 25.3587 22.1895 25.568 21.9427L28.2731 18.7521L29.5433 14.4333C29.6346 14.1228 29.9603 13.9451 30.2707 14.0365ZM31.5328 17.2061C31.8512 17.2639 32.0625 17.5689 32.0046 17.8873L31.676 19.6963C31.5884 20.1792 31.372 20.6296 31.0499 20.9998C31.0499 20.9998 31.0499 20.9998 31.0499 20.9998L28.5042 23.9258C28.2918 24.1699 27.9216 24.1956 27.6775 23.9832C27.4334 23.7708 27.4077 23.4007 27.6201 23.1566L30.1658 20.2306C30.3496 20.0194 30.473 19.7625 30.523 19.487L30.8516 17.6779C30.9095 17.3595 31.2144 17.1482 31.5328 17.2061Z" fill="#18BCC7"/>
<path fill-rule="evenodd" clip-rule="evenodd" d="M13.9614 8.41911C14.1478 8.1546 14.5133 8.09128 14.7778 8.27768L16.4162 9.43221C16.6807 9.61862 16.744 9.98417 16.5576 10.2487C16.3712 10.5132 16.0057 10.5765 15.7411 10.3901L14.5817 9.57311L13.7646 10.7325C13.5782 10.9971 13.2127 11.0604 12.9482 10.874C12.6836 10.6875 12.6203 10.322 12.8067 10.0575L13.9614 8.41911ZM25.6276 8.5251C25.9503 8.54826 26.1932 8.8287 26.17 9.15147L25.5856 9.10953C26.17 9.15147 26.17 9.1516 26.17 9.15174L26.17 9.15207L26.1699 9.15294L26.1698 9.15546L26.1691 9.1636C26.1686 9.17039 26.1678 9.1799 26.1668 9.19199C26.1647 9.21617 26.1616 9.25071 26.1572 9.29461C26.1484 9.38235 26.1345 9.50769 26.1137 9.66248C26.0722 9.97151 26.0026 10.4008 25.8903 10.8844C25.6697 11.8349 25.2683 13.0658 24.535 13.9883C24.3336 14.2416 23.965 14.2837 23.7117 14.0823C23.4584 13.881 23.4163 13.5124 23.6176 13.2591C24.1873 12.5424 24.5406 11.5163 24.7488 10.6194C24.851 10.1794 24.9145 9.7875 24.9523 9.50625C24.9712 9.36589 24.9836 9.25381 24.9912 9.17793C24.995 9.14001 24.9976 9.11118 24.9992 9.09245C25 9.08308 25.0005 9.07624 25.0008 9.07206L25.0012 9.06778L25.0012 9.06759C25.0012 9.06752 25.0012 9.06745 25.0012 9.06739M25.6276 8.5251C25.3048 8.50194 25.0245 8.74471 25.0012 9.06739Z" fill="#18BCC7"/>
<path fill-rule="evenodd" clip-rule="evenodd" d="M25.2839 8.27767C25.5484 8.09127 25.914 8.1546 26.1004 8.41912L27.2549 10.0575C27.4413 10.322 27.378 10.6876 27.1134 10.874C26.8489 11.0604 26.4834 10.997 26.297 10.7325L25.4799 9.57311L24.3205 10.3901C24.0559 10.5765 23.6904 10.5132 23.504 10.2487C23.3176 9.98415 23.3809 9.6186 23.6455 9.4322L25.2839 8.27767Z" fill="#18BCC7"/>
</g>
<defs>
<clipPath id="clip0_659_357">
<rect width="40" height="40" fill="white"/>
</clipPath>
</defs>
</svg>
