<svg width="18" height="20" viewBox="0 0 18 20" fill="none" xmlns="http://www.w3.org/2000/svg">
<path d="M13.5435 5.19275C13.5435 7.69093 11.4989 9.7355 9.00075 9.7355C6.50262 9.7355 4.45804 7.69093 4.45804 5.19275C4.45804 2.69457 6.50258 0.65 9.00075 0.65C11.4989 0.65 13.5435 2.69458 13.5435 5.19275Z" stroke="#134CB3" stroke-width="1.3"/>
<path d="M17.2644 14.6706C17.1052 14.9458 16.924 15.2073 16.7169 15.4766L16.7168 15.4765L16.7089 15.4873C16.4203 15.8788 16.0845 16.2373 15.7294 16.5924C15.4326 16.8892 15.0932 17.186 14.7567 17.4385C13.0794 18.6911 11.0621 19.3499 8.97812 19.3499C6.89834 19.3499 4.88504 18.6938 3.20974 17.4461C2.84585 17.1504 2.51365 16.8792 2.22684 16.5924L2.21987 16.5854L2.21269 16.5787C1.8566 16.2436 1.54235 15.8877 1.24743 15.4874L1.24744 15.4873L1.24411 15.4829C1.0619 15.24 0.873182 14.9756 0.719168 14.7169C0.83616 14.4559 0.984523 14.1847 1.14519 13.9526L1.1453 13.9527L1.15281 13.9413C2.06982 12.5556 3.53703 11.6388 5.1664 11.4148L5.18598 11.4121L5.20536 11.4082C5.23084 11.4031 5.29492 11.4117 5.34545 11.4496L5.34544 11.4496L5.34945 11.4525C6.41648 12.2401 7.68627 12.6453 9.00077 12.6453C10.3153 12.6453 11.5851 12.2401 12.6521 11.4525L12.6521 11.4525L12.6561 11.4496C12.6715 11.438 12.7403 11.408 12.8492 11.4167C14.4688 11.6435 15.9121 12.5568 16.8524 13.9468L16.8524 13.9469L16.8564 13.9526C17.0165 14.1839 17.1556 14.4231 17.2644 14.6706Z" stroke="#134CB3" stroke-width="1.3"/>
</svg>
