<svg width="24" height="24" viewBox="0 0 24 24" fill="none" xmlns="http://www.w3.org/2000/svg">
<path d="M12.0001 23.9976C5.38306 23.9976 6.10352e-05 18.6146 6.10352e-05 11.9976C6.10352e-05 5.38056 5.38306 -0.00244141 12.0001 -0.00244141C18.6171 -0.00244141 24.0001 5.38056 24.0001 11.9976C24.0001 18.6146 18.6171 23.9976 12.0001 23.9976ZM12.0001 0.997559C5.93506 0.997559 1.00006 5.93256 1.00006 11.9976C1.00006 18.0626 5.93506 22.9976 12.0001 22.9976C18.0651 22.9976 23.0001 18.0626 23.0001 11.9976C23.0001 5.93256 18.0651 0.997559 12.0001 0.997559Z" fill="white"/>
<path d="M17.5001 17.9976C17.3674 17.9976 17.2401 17.9451 17.1461 17.8516L11.6461 12.3516C11.5527 12.2574 11.5003 12.1302 11.5001 11.9976V4.49756C11.5001 4.36495 11.5527 4.23777 11.6465 4.14401C11.7403 4.05024 11.8675 3.99756 12.0001 3.99756C12.1327 3.99756 12.2598 4.05024 12.3536 4.14401C12.4474 4.23777 12.5001 4.36495 12.5001 4.49756V11.7906L17.8541 17.1446C17.9238 17.2145 17.9713 17.3036 17.9905 17.4006C18.0096 17.4975 17.9996 17.5979 17.9618 17.6892C17.9239 17.7805 17.8598 17.8585 17.7776 17.9134C17.6955 17.9682 17.5989 17.9975 17.5001 17.9976Z" fill="white"/>
</svg>
